%TF.GenerationSoftware,KiCad,Pcbnew,9.0.0*%
%TF.CreationDate,2025-04-10T09:35:26+02:00*%
%TF.ProjectId,3band_testboard_mcu_based,3362616e-645f-4746-9573-74626f617264,1.0*%
%TF.SameCoordinates,Original*%
%TF.FileFunction,Paste,Top*%
%TF.FilePolarity,Positive*%
%FSLAX46Y46*%
G04 Gerber Fmt 4.6, Leading zero omitted, Abs format (unit mm)*
G04 Created by KiCad (PCBNEW 9.0.0) date 2025-04-10 09:35:26*
%MOMM*%
%LPD*%
G01*
G04 APERTURE LIST*
G04 Aperture macros list*
%AMRoundRect*
0 Rectangle with rounded corners*
0 $1 Rounding radius*
0 $2 $3 $4 $5 $6 $7 $8 $9 X,Y pos of 4 corners*
0 Add a 4 corners polygon primitive as box body*
4,1,4,$2,$3,$4,$5,$6,$7,$8,$9,$2,$3,0*
0 Add four circle primitives for the rounded corners*
1,1,$1+$1,$2,$3*
1,1,$1+$1,$4,$5*
1,1,$1+$1,$6,$7*
1,1,$1+$1,$8,$9*
0 Add four rect primitives between the rounded corners*
20,1,$1+$1,$2,$3,$4,$5,0*
20,1,$1+$1,$4,$5,$6,$7,0*
20,1,$1+$1,$6,$7,$8,$9,0*
20,1,$1+$1,$8,$9,$2,$3,0*%
G04 Aperture macros list end*
%ADD10R,1.750000X0.700000*%
%ADD11R,1.300000X1.500000*%
%ADD12R,1.500000X0.800000*%
%ADD13R,1.400000X0.800000*%
%ADD14R,1.000000X1.550000*%
%ADD15R,1.550000X1.000000*%
%ADD16RoundRect,0.150000X-0.587500X-0.150000X0.587500X-0.150000X0.587500X0.150000X-0.587500X0.150000X0*%
%ADD17RoundRect,0.237500X0.287500X0.237500X-0.287500X0.237500X-0.287500X-0.237500X0.287500X-0.237500X0*%
%ADD18RoundRect,0.225000X-0.225000X-0.250000X0.225000X-0.250000X0.225000X0.250000X-0.225000X0.250000X0*%
%ADD19R,0.900000X0.900000*%
%ADD20R,1.500000X0.900000*%
%ADD21R,0.900000X1.500000*%
%ADD22RoundRect,0.237500X-0.237500X0.250000X-0.237500X-0.250000X0.237500X-0.250000X0.237500X0.250000X0*%
%ADD23RoundRect,0.225000X0.250000X-0.225000X0.250000X0.225000X-0.250000X0.225000X-0.250000X-0.225000X0*%
%ADD24RoundRect,0.317500X-1.157500X-0.317500X1.157500X-0.317500X1.157500X0.317500X-1.157500X0.317500X0*%
%ADD25RoundRect,0.200000X-0.200000X-0.275000X0.200000X-0.275000X0.200000X0.275000X-0.200000X0.275000X0*%
%ADD26R,0.400000X0.800000*%
%ADD27R,0.800000X0.800000*%
%ADD28R,0.800000X0.400000*%
%ADD29RoundRect,0.237500X-0.300000X-0.237500X0.300000X-0.237500X0.300000X0.237500X-0.300000X0.237500X0*%
%ADD30RoundRect,0.237500X-0.250000X-0.237500X0.250000X-0.237500X0.250000X0.237500X-0.250000X0.237500X0*%
%ADD31RoundRect,0.200000X-0.275000X0.200000X-0.275000X-0.200000X0.275000X-0.200000X0.275000X0.200000X0*%
%ADD32RoundRect,0.225000X0.225000X0.250000X-0.225000X0.250000X-0.225000X-0.250000X0.225000X-0.250000X0*%
%ADD33RoundRect,0.375000X-0.625000X-0.375000X0.625000X-0.375000X0.625000X0.375000X-0.625000X0.375000X0*%
%ADD34RoundRect,0.500000X-0.500000X-1.400000X0.500000X-1.400000X0.500000X1.400000X-0.500000X1.400000X0*%
%ADD35RoundRect,0.237500X0.300000X0.237500X-0.300000X0.237500X-0.300000X-0.237500X0.300000X-0.237500X0*%
%ADD36RoundRect,0.200000X0.275000X-0.200000X0.275000X0.200000X-0.275000X0.200000X-0.275000X-0.200000X0*%
%ADD37RoundRect,0.237500X0.250000X0.237500X-0.250000X0.237500X-0.250000X-0.237500X0.250000X-0.237500X0*%
%ADD38RoundRect,0.200000X0.200000X0.275000X-0.200000X0.275000X-0.200000X-0.275000X0.200000X-0.275000X0*%
%ADD39RoundRect,0.375000X-0.375000X0.625000X-0.375000X-0.625000X0.375000X-0.625000X0.375000X0.625000X0*%
%ADD40RoundRect,0.500000X-1.400000X0.500000X-1.400000X-0.500000X1.400000X-0.500000X1.400000X0.500000X0*%
%ADD41R,1.600000X1.400000*%
%ADD42R,1.100000X3.400000*%
%ADD43R,3.200000X0.400000*%
%ADD44R,1.750000X0.450000*%
%ADD45RoundRect,0.250000X-0.412500X-0.650000X0.412500X-0.650000X0.412500X0.650000X-0.412500X0.650000X0*%
%ADD46R,1.450000X0.600000*%
%ADD47R,1.450000X0.300000*%
%ADD48RoundRect,0.250000X-0.337500X-0.475000X0.337500X-0.475000X0.337500X0.475000X-0.337500X0.475000X0*%
%ADD49RoundRect,0.237500X0.237500X-0.250000X0.237500X0.250000X-0.237500X0.250000X-0.237500X-0.250000X0*%
%ADD50RoundRect,0.250000X0.250000X0.250000X-0.250000X0.250000X-0.250000X-0.250000X0.250000X-0.250000X0*%
G04 APERTURE END LIST*
D10*
%TO.C,J4*%
X78216000Y-53567000D03*
X78216000Y-52467000D03*
X78216000Y-51367000D03*
X78216000Y-50267000D03*
X78216000Y-49167000D03*
X78216000Y-48067000D03*
X78216000Y-46967000D03*
X78216000Y-45867000D03*
D11*
X78441000Y-44567000D03*
X78441000Y-56017000D03*
D12*
X85941000Y-44392000D03*
D13*
X86591000Y-56342000D03*
D14*
X87441000Y-44692000D03*
D15*
X89016000Y-55942000D03*
%TD*%
D16*
%TO.C,Q2*%
X110901000Y-66614000D03*
X110901000Y-68514000D03*
X112776000Y-67564000D03*
%TD*%
D17*
%TO.C,D3*%
X116304000Y-42418000D03*
X114554000Y-42418000D03*
%TD*%
D18*
%TO.C,C13*%
X84582000Y-61722000D03*
X86132000Y-61722000D03*
%TD*%
D19*
%TO.C,U5*%
X99716000Y-44928000D03*
X99716000Y-46328000D03*
X99716000Y-47728000D03*
X101116000Y-44928000D03*
X101116000Y-46328000D03*
X101116000Y-47728000D03*
X102516000Y-44928000D03*
X102516000Y-46328000D03*
X102516000Y-47728000D03*
D20*
X93866000Y-38608000D03*
X93866000Y-39878000D03*
X93866000Y-41148000D03*
X93866000Y-42418000D03*
X93866000Y-43688000D03*
X93866000Y-44958000D03*
X93866000Y-46228000D03*
X93866000Y-47498000D03*
X93866000Y-48768000D03*
X93866000Y-50038000D03*
X93866000Y-51308000D03*
X93866000Y-52578000D03*
X93866000Y-53848000D03*
X93866000Y-55118000D03*
D21*
X95631000Y-56368000D03*
X96901000Y-56368000D03*
X98171000Y-56368000D03*
X99441000Y-56368000D03*
X100711000Y-56368000D03*
X101981000Y-56368000D03*
X103251000Y-56368000D03*
X104521000Y-56368000D03*
X105791000Y-56368000D03*
X107061000Y-56368000D03*
X108331000Y-56368000D03*
X109601000Y-56368000D03*
D20*
X111366000Y-55118000D03*
X111366000Y-53848000D03*
X111366000Y-52578000D03*
X111366000Y-51308000D03*
X111366000Y-50038000D03*
X111366000Y-48768000D03*
X111366000Y-47498000D03*
X111366000Y-46228000D03*
X111366000Y-44958000D03*
X111366000Y-43688000D03*
X111366000Y-42418000D03*
X111366000Y-41148000D03*
X111366000Y-39878000D03*
X111366000Y-38608000D03*
%TD*%
D22*
%TO.C,R18*%
X82550000Y-89361000D03*
X82550000Y-91186000D03*
%TD*%
D23*
%TO.C,C17*%
X113284000Y-55131000D03*
X113284000Y-53581000D03*
%TD*%
D22*
%TO.C,R1*%
X149225000Y-48260000D03*
X149225000Y-50085000D03*
%TD*%
D18*
%TO.C,C11*%
X79756000Y-71120000D03*
X81306000Y-71120000D03*
%TD*%
D24*
%TO.C,U1*%
X129000000Y-34275000D03*
X129000000Y-36275000D03*
X129000000Y-38275000D03*
X129000000Y-40275000D03*
X129000000Y-42275000D03*
X129000000Y-44275000D03*
X129000000Y-46275000D03*
X129000000Y-48275000D03*
X144050000Y-48275000D03*
X144050000Y-46275000D03*
X144050000Y-44275000D03*
X144050000Y-42275000D03*
X144050000Y-40275000D03*
X144050000Y-38275000D03*
X144050000Y-36275000D03*
X144050000Y-34275000D03*
%TD*%
D25*
%TO.C,R14*%
X82042000Y-86740000D03*
X83692000Y-86740000D03*
%TD*%
D23*
%TO.C,C16*%
X91440000Y-77750000D03*
X91440000Y-76200000D03*
%TD*%
D26*
%TO.C,U4*%
X145184000Y-93465000D03*
X146034000Y-93465000D03*
X146884000Y-93465000D03*
X147734000Y-93465000D03*
X148584000Y-93465000D03*
X149434000Y-93465000D03*
X150284000Y-93465000D03*
D27*
X151434000Y-93515000D03*
D28*
X151384000Y-92515000D03*
X151384000Y-91665000D03*
X151384000Y-90815000D03*
X151384000Y-89965000D03*
X151384000Y-89115000D03*
X151384000Y-88265000D03*
X151384000Y-87415000D03*
X151384000Y-86565000D03*
X151384000Y-85715000D03*
D27*
X151434000Y-84765000D03*
D26*
X150284000Y-84765000D03*
X149434000Y-84765000D03*
X148584000Y-84765000D03*
X147734000Y-84765000D03*
X146884000Y-84765000D03*
X146034000Y-84765000D03*
X145184000Y-84765000D03*
D27*
X144034000Y-84715000D03*
D28*
X144084000Y-85715000D03*
X144084000Y-86565000D03*
X144084000Y-87415000D03*
X144084000Y-88265000D03*
X144084000Y-89115000D03*
X144084000Y-89965000D03*
X144084000Y-90815000D03*
X144084000Y-91665000D03*
X144084000Y-92515000D03*
D27*
X144034000Y-93515000D03*
X146234000Y-91365000D03*
X147734000Y-91365000D03*
X149234000Y-91365000D03*
X146234000Y-89865000D03*
X147734000Y-89865000D03*
X149234000Y-89865000D03*
X146234000Y-88365000D03*
X147734000Y-88365000D03*
X149234000Y-88365000D03*
X146234000Y-86865000D03*
X147734000Y-86865000D03*
X149234000Y-86865000D03*
%TD*%
D29*
%TO.C,C1*%
X146812000Y-40386000D03*
X148537000Y-40386000D03*
%TD*%
D16*
%TO.C,Q1*%
X110822500Y-70424000D03*
X110822500Y-72324000D03*
X112697500Y-71374000D03*
%TD*%
D30*
%TO.C,R3*%
X151130000Y-48260000D03*
X152955000Y-48260000D03*
%TD*%
D31*
%TO.C,R15*%
X114554000Y-68517000D03*
X114554000Y-70167000D03*
%TD*%
D32*
%TO.C,C10*%
X126772000Y-59690000D03*
X125222000Y-59690000D03*
%TD*%
D33*
%TO.C,U6*%
X79806000Y-64248000D03*
X79806000Y-66548000D03*
D34*
X86106000Y-66548000D03*
D33*
X79806000Y-68848000D03*
%TD*%
D35*
%TO.C,C18*%
X131265000Y-50546000D03*
X129540000Y-50546000D03*
%TD*%
D23*
%TO.C,C2*%
X88900000Y-39878000D03*
X88900000Y-38328000D03*
%TD*%
D17*
%TO.C,D4*%
X116304000Y-44450000D03*
X114554000Y-44450000D03*
%TD*%
D22*
%TO.C,R2*%
X154940000Y-48260000D03*
X154940000Y-50085000D03*
%TD*%
D23*
%TO.C,C4*%
X86868000Y-41402000D03*
X86868000Y-39852000D03*
%TD*%
D36*
%TO.C,R11*%
X83312000Y-41402000D03*
X83312000Y-39752000D03*
%TD*%
D22*
%TO.C,R9*%
X153924000Y-68199000D03*
X153924000Y-70024000D03*
%TD*%
D37*
%TO.C,R5*%
X157226000Y-87376000D03*
X155401000Y-87376000D03*
%TD*%
D38*
%TO.C,R13*%
X89280000Y-76454000D03*
X87630000Y-76454000D03*
%TD*%
D32*
%TO.C,C3*%
X94361000Y-62738000D03*
X92811000Y-62738000D03*
%TD*%
D39*
%TO.C,U3*%
X126506000Y-93370000D03*
X124206000Y-93370000D03*
D40*
X124206000Y-99670000D03*
D39*
X121906000Y-93370000D03*
%TD*%
D22*
%TO.C,R7*%
X158750000Y-68199000D03*
X158750000Y-70024000D03*
%TD*%
D41*
%TO.C,S2*%
X125012000Y-84606000D03*
X117812000Y-84606000D03*
X125012000Y-87606000D03*
X117812000Y-87606000D03*
%TD*%
D18*
%TO.C,C7*%
X133096000Y-50546000D03*
X134646000Y-50546000D03*
%TD*%
D42*
%TO.C,L1*%
X150368000Y-98425000D03*
X153368000Y-98425000D03*
%TD*%
D36*
%TO.C,R19*%
X118872000Y-42418000D03*
X118872000Y-40768000D03*
%TD*%
D43*
%TO.C,FL3*%
X90170000Y-85344000D03*
X90170000Y-86544000D03*
X90170000Y-87744000D03*
%TD*%
D23*
%TO.C,C6*%
X139700000Y-87122000D03*
X139700000Y-85572000D03*
%TD*%
D44*
%TO.C,U7*%
X104228000Y-69850000D03*
X104228000Y-69200000D03*
X104228000Y-68550000D03*
X104228000Y-67900000D03*
X104228000Y-67250000D03*
X104228000Y-66600000D03*
X104228000Y-65950000D03*
X104228000Y-65300000D03*
X104228000Y-64650000D03*
X104228000Y-64000000D03*
X104228000Y-63350000D03*
X104228000Y-62700000D03*
X104228000Y-62050000D03*
X104228000Y-61400000D03*
X97028000Y-61400000D03*
X97028000Y-62050000D03*
X97028000Y-62700000D03*
X97028000Y-63350000D03*
X97028000Y-64000000D03*
X97028000Y-64650000D03*
X97028000Y-65300000D03*
X97028000Y-65950000D03*
X97028000Y-66600000D03*
X97028000Y-67250000D03*
X97028000Y-67900000D03*
X97028000Y-68550000D03*
X97028000Y-69200000D03*
X97028000Y-69850000D03*
%TD*%
D33*
%TO.C,U2*%
X126796000Y-52818000D03*
X126796000Y-55118000D03*
D34*
X133096000Y-55118000D03*
D33*
X126796000Y-57418000D03*
%TD*%
D45*
%TO.C,C19*%
X98221000Y-79756000D03*
X101346000Y-79756000D03*
%TD*%
D36*
%TO.C,R16*%
X108966000Y-70104000D03*
X108966000Y-68454000D03*
%TD*%
D43*
%TO.C,FL1*%
X94742000Y-85344000D03*
X94742000Y-86544000D03*
X94742000Y-87744000D03*
%TD*%
D46*
%TO.C,J6*%
X84765000Y-77268000D03*
X84765000Y-78068000D03*
D47*
X84765000Y-79268000D03*
X84765000Y-80268000D03*
X84765000Y-80768000D03*
X84765000Y-81768000D03*
D46*
X84765000Y-82968000D03*
X84765000Y-83768000D03*
X84765000Y-83768000D03*
X84765000Y-82968000D03*
D47*
X84765000Y-82268000D03*
X84765000Y-81268000D03*
X84765000Y-79768000D03*
X84765000Y-78768000D03*
D46*
X84765000Y-78068000D03*
X84765000Y-77268000D03*
%TD*%
D23*
%TO.C,C20*%
X141224000Y-87122000D03*
X141224000Y-85572000D03*
%TD*%
D48*
%TO.C,C15*%
X145872000Y-96363500D03*
X147947000Y-96363500D03*
%TD*%
D31*
%TO.C,R17*%
X115062000Y-53468000D03*
X115062000Y-55118000D03*
%TD*%
D37*
%TO.C,R8*%
X157226000Y-68199000D03*
X155401000Y-68199000D03*
%TD*%
D41*
%TO.C,S1*%
X125012000Y-78002000D03*
X117812000Y-78002000D03*
X125012000Y-81002000D03*
X117812000Y-81002000D03*
%TD*%
D36*
%TO.C,R12*%
X80518000Y-42037000D03*
X80518000Y-40387000D03*
%TD*%
D49*
%TO.C,R6*%
X153924000Y-87376000D03*
X153924000Y-85551000D03*
%TD*%
D18*
%TO.C,C5*%
X121907000Y-90932000D03*
X123457000Y-90932000D03*
%TD*%
D43*
%TO.C,FL2*%
X94742000Y-81280000D03*
X94742000Y-80080000D03*
X94742000Y-78880000D03*
%TD*%
D49*
%TO.C,R4*%
X158750000Y-87376000D03*
X158750000Y-85551000D03*
%TD*%
D31*
%TO.C,R10*%
X84836000Y-39878000D03*
X84836000Y-41528000D03*
%TD*%
D50*
%TO.C,D1*%
X90130000Y-81788000D03*
X87630000Y-81788000D03*
%TD*%
D31*
%TO.C,R20*%
X118872000Y-44450000D03*
X118872000Y-46100000D03*
%TD*%
D18*
%TO.C,C14*%
X96748000Y-83058000D03*
X98298000Y-83058000D03*
%TD*%
M02*
