%TF.GenerationSoftware,KiCad,Pcbnew,9.0.0*%
%TF.CreationDate,2025-04-10T09:35:26+02:00*%
%TF.ProjectId,3band_testboard_mcu_based,3362616e-645f-4746-9573-74626f617264,1.0*%
%TF.SameCoordinates,Original*%
%TF.FileFunction,Copper,L2,Bot*%
%TF.FilePolarity,Positive*%
%FSLAX46Y46*%
G04 Gerber Fmt 4.6, Leading zero omitted, Abs format (unit mm)*
G04 Created by KiCad (PCBNEW 9.0.0) date 2025-04-10 09:35:26*
%MOMM*%
%LPD*%
G01*
G04 APERTURE LIST*
G04 Aperture macros list*
%AMRoundRect*
0 Rectangle with rounded corners*
0 $1 Rounding radius*
0 $2 $3 $4 $5 $6 $7 $8 $9 X,Y pos of 4 corners*
0 Add a 4 corners polygon primitive as box body*
4,1,4,$2,$3,$4,$5,$6,$7,$8,$9,$2,$3,0*
0 Add four circle primitives for the rounded corners*
1,1,$1+$1,$2,$3*
1,1,$1+$1,$4,$5*
1,1,$1+$1,$6,$7*
1,1,$1+$1,$8,$9*
0 Add four rect primitives between the rounded corners*
20,1,$1+$1,$2,$3,$4,$5,0*
20,1,$1+$1,$4,$5,$6,$7,0*
20,1,$1+$1,$6,$7,$8,$9,0*
20,1,$1+$1,$8,$9,$2,$3,0*%
G04 Aperture macros list end*
%TA.AperFunction,SMDPad,CuDef*%
%ADD10RoundRect,0.250000X1.600000X-0.425000X1.600000X0.425000X-1.600000X0.425000X-1.600000X-0.425000X0*%
%TD*%
%TA.AperFunction,HeatsinkPad*%
%ADD11C,0.600000*%
%TD*%
%TA.AperFunction,ComponentPad*%
%ADD12R,1.700000X1.700000*%
%TD*%
%TA.AperFunction,ComponentPad*%
%ADD13O,1.700000X1.700000*%
%TD*%
%TA.AperFunction,ComponentPad*%
%ADD14RoundRect,0.250000X-1.000000X-1.000000X1.000000X-1.000000X1.000000X1.000000X-1.000000X1.000000X0*%
%TD*%
%TA.AperFunction,ComponentPad*%
%ADD15C,2.500000*%
%TD*%
%TA.AperFunction,ComponentPad*%
%ADD16R,1.800000X1.800000*%
%TD*%
%TA.AperFunction,ComponentPad*%
%ADD17C,1.800000*%
%TD*%
%TA.AperFunction,ComponentPad*%
%ADD18R,1.600000X1.600000*%
%TD*%
%TA.AperFunction,ComponentPad*%
%ADD19C,1.600000*%
%TD*%
%TA.AperFunction,HeatsinkPad*%
%ADD20O,2.100000X1.000000*%
%TD*%
%TA.AperFunction,HeatsinkPad*%
%ADD21O,1.600000X1.000000*%
%TD*%
%TA.AperFunction,ComponentPad*%
%ADD22C,1.700000*%
%TD*%
%TA.AperFunction,ViaPad*%
%ADD23C,0.600000*%
%TD*%
%TA.AperFunction,Conductor*%
%ADD24C,0.600000*%
%TD*%
%TA.AperFunction,Conductor*%
%ADD25C,0.300000*%
%TD*%
%TA.AperFunction,Conductor*%
%ADD26C,0.400000*%
%TD*%
%TA.AperFunction,Conductor*%
%ADD27C,0.800000*%
%TD*%
G04 APERTURE END LIST*
D10*
%TO.P,J2,2,Ext*%
%TO.N,GND*%
X162814000Y-84522718D03*
X162814000Y-90172718D03*
%TD*%
D11*
%TO.P,U5,41,GND*%
%TO.N,GND*%
X99716000Y-45628000D03*
X99716000Y-47028000D03*
X100416000Y-44928000D03*
X100416000Y-46328000D03*
X100416000Y-47728000D03*
X101116000Y-45628000D03*
X101116000Y-47028000D03*
X101816000Y-44928000D03*
X101816000Y-46328000D03*
X101816000Y-47728000D03*
X102516000Y-45628000D03*
X102516000Y-47028000D03*
%TD*%
D12*
%TO.P,J9,1,Pin_1*%
%TO.N,/MCU/~{CS2}*%
X110236000Y-59690000D03*
D13*
%TO.P,J9,2,Pin_2*%
%TO.N,/CS2*%
X112776000Y-59690000D03*
%TO.P,J9,3,Pin_3*%
%TO.N,/MCU/~{CS1}*%
X110236000Y-62230000D03*
%TO.P,J9,4,Pin_4*%
%TO.N,/CS1*%
X112776000Y-62230000D03*
%TD*%
D12*
%TO.P,J8,1,Pin_1*%
%TO.N,GND*%
X101346000Y-83058000D03*
D13*
%TO.P,J8,2,Pin_2*%
%TO.N,/MCU/GPIO.9*%
X103886000Y-83058000D03*
%TO.P,J8,3,Pin_3*%
%TO.N,/MCU/GPIO.10*%
X106426000Y-83058000D03*
%TO.P,J8,4,Pin_4*%
%TO.N,/MCU/GPIO.11*%
X108966000Y-83058000D03*
%TO.P,J8,5,Pin_5*%
%TO.N,/MCU/GPIO.12*%
X111506000Y-83058000D03*
%TO.P,J8,6,Pin_6*%
%TO.N,/MCU/GPIO.13*%
X114046000Y-83058000D03*
%TD*%
D10*
%TO.P,J3,2,Ext*%
%TO.N,GND*%
X162814000Y-65374000D03*
X162814000Y-71024000D03*
%TD*%
D14*
%TO.P,J5,1,Pin_1*%
%TO.N,GND*%
X99100000Y-98465500D03*
D15*
%TO.P,J5,2,Pin_2*%
%TO.N,VCC*%
X104100000Y-98465500D03*
%TD*%
D16*
%TO.P,D2,1,K*%
%TO.N,Net-(D2-K)*%
X86106000Y-91186000D03*
D17*
%TO.P,D2,2,A*%
%TO.N,VCC*%
X86106000Y-88646000D03*
%TD*%
D18*
%TO.P,C9,1*%
%TO.N,3.3V RF1*%
X136144000Y-53975000D03*
D19*
%TO.P,C9,2*%
%TO.N,GND*%
X138644000Y-53975000D03*
%TD*%
D18*
%TO.P,C12,1*%
%TO.N,+3.3V*%
X88646000Y-71755000D03*
D19*
%TO.P,C12,2*%
%TO.N,GND*%
X91146000Y-71755000D03*
%TD*%
D12*
%TO.P,J7,1,Pin_1*%
%TO.N,GND*%
X101346000Y-76454000D03*
D13*
%TO.P,J7,2,Pin_2*%
%TO.N,/MCU/UART.CTS*%
X103886000Y-76454000D03*
%TO.P,J7,3,Pin_3*%
%TO.N,unconnected-(J7-Pin_3-Pad3)*%
X106426000Y-76454000D03*
%TO.P,J7,4,Pin_4*%
%TO.N,/MCU/UART.TX*%
X108966000Y-76454000D03*
%TO.P,J7,5,Pin_5*%
%TO.N,/MCU/UART.RX*%
X111506000Y-76454000D03*
%TO.P,J7,6,Pin_6*%
%TO.N,/MCU/UART.DTR*%
X114046000Y-76454000D03*
%TD*%
D20*
%TO.P,J6,S1,SHIELD*%
%TO.N,GND*%
X83850000Y-76198000D03*
D21*
X79670000Y-76198000D03*
D20*
X83850000Y-84838000D03*
D21*
X79670000Y-84838000D03*
%TD*%
D18*
%TO.P,C8,1*%
%TO.N,3.3V RF2*%
X130937000Y-96201113D03*
D19*
%TO.P,C8,2*%
%TO.N,GND*%
X130937000Y-93701113D03*
%TD*%
D10*
%TO.P,J1,2,Ext*%
%TO.N,GND*%
X162941000Y-45435000D03*
X162941000Y-51085000D03*
%TD*%
D12*
%TO.P,J10,1,Pin_1*%
%TO.N,/433MHz/SCK*%
X128270000Y-66548000D03*
D22*
%TO.P,J10,2,Pin_2*%
%TO.N,/433MHz/MOSI*%
X128270000Y-69088000D03*
%TO.P,J10,3,Pin_3*%
%TO.N,/433MHz/MISO*%
X128270000Y-71628000D03*
%TD*%
D23*
%TO.N,+3.3V*%
X88900000Y-67564000D03*
X83820000Y-69596000D03*
X83820000Y-68580000D03*
X89916000Y-65532000D03*
X82804000Y-67564000D03*
X83820000Y-64516000D03*
X82804000Y-64516000D03*
X81788000Y-65532000D03*
X83820000Y-65532000D03*
X80772000Y-57150000D03*
X89916000Y-64516000D03*
X87884000Y-63500000D03*
X87884000Y-65532000D03*
X81788000Y-66548000D03*
X89916000Y-67564000D03*
X87884000Y-69596000D03*
X91948000Y-66548000D03*
X90932000Y-67564000D03*
X88900000Y-69596000D03*
X89916000Y-63500000D03*
X84836000Y-63500000D03*
X86868000Y-69596000D03*
X90932000Y-68580000D03*
X90932000Y-64516000D03*
X90932000Y-69596000D03*
X91948000Y-67564000D03*
X91948000Y-65532000D03*
X83820000Y-67564000D03*
X83820000Y-66548000D03*
X85852000Y-63500000D03*
X82804000Y-68580000D03*
X86868000Y-63500000D03*
X91948000Y-68580000D03*
X83820000Y-63500000D03*
X82804000Y-66548000D03*
X81788000Y-67564000D03*
X82804000Y-65532000D03*
X91948000Y-64516000D03*
X89916000Y-68580000D03*
X83312000Y-38862000D03*
X87884000Y-64516000D03*
X88900000Y-66548000D03*
X90424000Y-39878000D03*
X85852000Y-69596000D03*
X80518000Y-49988000D03*
X88900000Y-64516000D03*
X88900000Y-68580000D03*
X89916000Y-69596000D03*
X90932000Y-66548000D03*
X88900000Y-63500000D03*
X90932000Y-65532000D03*
X90932000Y-63500000D03*
X89916000Y-66548000D03*
X84836000Y-69596000D03*
X115062000Y-47498000D03*
X87884000Y-66548000D03*
X88900000Y-65532000D03*
X87884000Y-67564000D03*
X87884000Y-68580000D03*
%TO.N,GND*%
X148562438Y-80226802D03*
X158496000Y-79502000D03*
X121666000Y-53848000D03*
X151384000Y-31496000D03*
X148590000Y-75692000D03*
X143764000Y-59690000D03*
X164084000Y-59690000D03*
X136652000Y-92456000D03*
X138176000Y-49784000D03*
X124714000Y-37592000D03*
X146939000Y-95123000D03*
X93218000Y-89535000D03*
X135636000Y-34290000D03*
X102108000Y-89535000D03*
X132842000Y-60960000D03*
X130048000Y-31496000D03*
X158496000Y-40894000D03*
X120396000Y-75184000D03*
X130302000Y-60960000D03*
X157734000Y-33782000D03*
X154432000Y-84328000D03*
X131064000Y-31496000D03*
X151892000Y-81026000D03*
X126746000Y-37592000D03*
X132842000Y-83312000D03*
X134620000Y-98298000D03*
X103632000Y-54102000D03*
X137160000Y-31496000D03*
X164592000Y-57912000D03*
X153416000Y-84328000D03*
X139192000Y-61722000D03*
X155702000Y-71120000D03*
X132842000Y-68072000D03*
X114808000Y-94234000D03*
X136652000Y-66802000D03*
X163576000Y-54864000D03*
X140716000Y-42164000D03*
X117348000Y-96774000D03*
X107188000Y-89535000D03*
X164592000Y-61722000D03*
X140716000Y-34290000D03*
X151892000Y-79502000D03*
X151384000Y-57912000D03*
X164084000Y-88900000D03*
X121666000Y-37592000D03*
X154940000Y-84836000D03*
X133096000Y-39624000D03*
X126238000Y-60960000D03*
X158496000Y-66294000D03*
X148590000Y-83305154D03*
X117348000Y-94234000D03*
X129540000Y-100838000D03*
X156464000Y-40894000D03*
X109220000Y-45974000D03*
X151892000Y-72650846D03*
X132842000Y-76200000D03*
X154178000Y-88900000D03*
X151892000Y-77216000D03*
X148590000Y-74168000D03*
X157480000Y-40894000D03*
X150368000Y-31496000D03*
X91554000Y-38608000D03*
X150368000Y-39370000D03*
X147320000Y-57912000D03*
X134112000Y-57912000D03*
X138176000Y-37084000D03*
X141478000Y-49022000D03*
X129032000Y-74422000D03*
X135636000Y-39624000D03*
X161036000Y-59690000D03*
X153416000Y-88646000D03*
X163576000Y-57912000D03*
X164592000Y-41656000D03*
X159004000Y-59690000D03*
X154940000Y-88900000D03*
X148590000Y-74930000D03*
X136652000Y-74422000D03*
X164592000Y-60706000D03*
X143256000Y-52324000D03*
X97028000Y-38354000D03*
X141478000Y-49911000D03*
X163576000Y-40894000D03*
X162560000Y-40894000D03*
X109728000Y-89535000D03*
X141732000Y-66802000D03*
X136652000Y-59690000D03*
X123952000Y-82550000D03*
X97028000Y-45974000D03*
X163576000Y-79502000D03*
X154686000Y-66294000D03*
X149098000Y-68834000D03*
X152400000Y-66548000D03*
X148590000Y-70358000D03*
X150114000Y-67564000D03*
X146431000Y-46228000D03*
X141478000Y-46355000D03*
X132842000Y-67056000D03*
X136652000Y-82042000D03*
X144272000Y-76962000D03*
X143510000Y-50800000D03*
X112268000Y-89535000D03*
X142748000Y-59690000D03*
X149860000Y-59690000D03*
X146812000Y-61722000D03*
X156210000Y-85598000D03*
X157988000Y-59690000D03*
X132842000Y-85852000D03*
X151638000Y-101600000D03*
X132842000Y-59944000D03*
X157226000Y-71120000D03*
X146812000Y-59690000D03*
X104648000Y-41402000D03*
X134620000Y-75946000D03*
X138176000Y-44704000D03*
X117856000Y-82550000D03*
X127000000Y-35560000D03*
X144272000Y-69342000D03*
X145796000Y-59690000D03*
X134620000Y-70866000D03*
X164592000Y-53848000D03*
X132842000Y-87376000D03*
X141224000Y-57912000D03*
X141224000Y-31496000D03*
X156972000Y-64262000D03*
X156972000Y-33020000D03*
X152146000Y-71888846D03*
X160020000Y-59690000D03*
X154940000Y-100584000D03*
X162052000Y-59690000D03*
X121666000Y-45720000D03*
X137668000Y-59690000D03*
X145542000Y-50800000D03*
X143256000Y-31496000D03*
X148590000Y-76454000D03*
X132080000Y-31496000D03*
X122682000Y-37592000D03*
X158242000Y-84328000D03*
X141478000Y-47244000D03*
X97028000Y-40894000D03*
X161290000Y-85852000D03*
X148590000Y-79495154D03*
X144526000Y-97282000D03*
X148590000Y-78733154D03*
X149098000Y-95377000D03*
X140716000Y-59690000D03*
X117348000Y-99314000D03*
X154432000Y-64262000D03*
X141478000Y-62992000D03*
X161544000Y-57912000D03*
X155956000Y-79502000D03*
X157734000Y-66294000D03*
X133350000Y-94742000D03*
X163576000Y-76962000D03*
X121666000Y-52832000D03*
X147574000Y-51689000D03*
X139700000Y-59690000D03*
X160528000Y-57912000D03*
X90538000Y-38608000D03*
X162560000Y-88900000D03*
X159512000Y-40894000D03*
X161036000Y-88900000D03*
X149606000Y-68072000D03*
X127254000Y-60960000D03*
X145542000Y-51689000D03*
X144272000Y-61722000D03*
X156464000Y-71114000D03*
X158496000Y-76962000D03*
X138684000Y-59690000D03*
X104648000Y-38862000D03*
X159512000Y-61722000D03*
X136652000Y-69342000D03*
X135128000Y-57912000D03*
X134620000Y-61722000D03*
X112268000Y-99314000D03*
X137160000Y-100838000D03*
X97028000Y-89535000D03*
X153162000Y-66421000D03*
X121666000Y-38608000D03*
X121666000Y-49784000D03*
X132080000Y-98298000D03*
X133096000Y-34290000D03*
X161036000Y-76962000D03*
X156972000Y-59690000D03*
X144526000Y-50800000D03*
X157480000Y-57912000D03*
X139192000Y-64262000D03*
X162814000Y-85852000D03*
X141478000Y-48133000D03*
X134620000Y-63754000D03*
X121666000Y-42672000D03*
X112268000Y-94234000D03*
X129540000Y-75946000D03*
X134620000Y-77978000D03*
X155956000Y-59690000D03*
X158496000Y-74422000D03*
X150876000Y-54864000D03*
X132842000Y-64008000D03*
X98552000Y-54102000D03*
X154432000Y-57912000D03*
X157988000Y-71120000D03*
X134620000Y-68834000D03*
X132842000Y-62992000D03*
X134620000Y-72898000D03*
X148590000Y-71120000D03*
X134620000Y-62738000D03*
X132842000Y-71120000D03*
X134620000Y-69850000D03*
X159258000Y-66294000D03*
X151892000Y-74936846D03*
X127000000Y-31496000D03*
X138176000Y-31496000D03*
X162306000Y-38354000D03*
X154432000Y-40894000D03*
X152654000Y-51689000D03*
X134620000Y-89662000D03*
X137160000Y-87122000D03*
X151892000Y-78740000D03*
X133096000Y-31496000D03*
X150368000Y-44958000D03*
X158750000Y-88900000D03*
X129286000Y-60960000D03*
X152654000Y-84963000D03*
X83312000Y-48006000D03*
X114808000Y-96774000D03*
X159639000Y-52705000D03*
X123952000Y-80010000D03*
X142494000Y-50800000D03*
X132842000Y-65024000D03*
X147819000Y-92456000D03*
X132842000Y-79248000D03*
X157480000Y-84836000D03*
X159512000Y-57912000D03*
X134620000Y-66802000D03*
X132842000Y-77216000D03*
X153924000Y-66294000D03*
X153416000Y-57912000D03*
X142240000Y-31496000D03*
X121666000Y-51816000D03*
X154432000Y-61722000D03*
X139192000Y-31496000D03*
X121666000Y-40640000D03*
X158496000Y-57912000D03*
X128270000Y-60960000D03*
X150359000Y-89154000D03*
X153670000Y-51689000D03*
X140208000Y-57912000D03*
X84836000Y-53721000D03*
X159004000Y-84328000D03*
X152908000Y-59690000D03*
X134620000Y-59690000D03*
X136652000Y-64262000D03*
X156972000Y-66294000D03*
X138176000Y-57912000D03*
X156210000Y-66294000D03*
X150368000Y-86868000D03*
X156464000Y-57912000D03*
X155956000Y-81788000D03*
X146304000Y-57912000D03*
X132842000Y-70104000D03*
X148590000Y-81019154D03*
X104648000Y-89535000D03*
X125222000Y-60960000D03*
X161036000Y-79502000D03*
X158496000Y-34544000D03*
X161544000Y-37592000D03*
X157734000Y-45720000D03*
X135128000Y-31496000D03*
X145288000Y-31496000D03*
X163068000Y-59690000D03*
X121666000Y-43688000D03*
X149606000Y-51689000D03*
X151638000Y-66802000D03*
X139192000Y-66802000D03*
X160020000Y-36068000D03*
X138430000Y-89916000D03*
X155448000Y-40894000D03*
X104648000Y-43942000D03*
X152908000Y-94615000D03*
X145279000Y-92456000D03*
X151892000Y-77978000D03*
X152400000Y-57912000D03*
X132842000Y-58928000D03*
X129032000Y-64262000D03*
X163576000Y-85852000D03*
X160655000Y-52705000D03*
X121412000Y-77470000D03*
X159766000Y-85598000D03*
X144272000Y-31496000D03*
X141732000Y-64262000D03*
X148336000Y-31496000D03*
X151892000Y-82550000D03*
X133096000Y-37084000D03*
X152400000Y-85598000D03*
X121666000Y-56896000D03*
X132842000Y-74168000D03*
X164338000Y-85852000D03*
X148336000Y-54864000D03*
X141732000Y-71882000D03*
X154432000Y-95758000D03*
X141478000Y-50800000D03*
X136652000Y-76962000D03*
X82296000Y-48006000D03*
X144272000Y-74422000D03*
X132842000Y-81280000D03*
X145279000Y-85852000D03*
X96012000Y-54102000D03*
X155067000Y-98171000D03*
X121412000Y-80010000D03*
X99568000Y-89535000D03*
X148590000Y-82543154D03*
X133096000Y-42164000D03*
X123698000Y-37592000D03*
X132842000Y-57912000D03*
X145288000Y-57912000D03*
X154686000Y-51689000D03*
X132842000Y-84582000D03*
X144272000Y-66802000D03*
X164592000Y-54864000D03*
X117856000Y-86233000D03*
X132842000Y-75184000D03*
X121666000Y-58928000D03*
X132842000Y-73152000D03*
X161671000Y-52705000D03*
X155448000Y-66294000D03*
X149352000Y-45720000D03*
X139192000Y-57912000D03*
X148590000Y-81781154D03*
X136144000Y-31496000D03*
X162560000Y-57912000D03*
X147320000Y-31496000D03*
X149098000Y-100711000D03*
X159258000Y-35306000D03*
X148844000Y-59690000D03*
X97028000Y-43434000D03*
X150359000Y-85852000D03*
X151892000Y-64262000D03*
X127000000Y-36576000D03*
X160274000Y-88900000D03*
X158750000Y-71120000D03*
X163830000Y-39878000D03*
X134620000Y-74930000D03*
X152400000Y-42926000D03*
X129032000Y-31496000D03*
X136144000Y-57912000D03*
X148844000Y-69596000D03*
X156591000Y-91440000D03*
X153416000Y-54864000D03*
X164592000Y-55880000D03*
X149860000Y-39878000D03*
X121666000Y-46736000D03*
X161544000Y-40894000D03*
X141732000Y-74422000D03*
X123952000Y-85090000D03*
X132842000Y-66040000D03*
X126492000Y-64262000D03*
X155702000Y-51689000D03*
X155702000Y-88900000D03*
X159639000Y-51689000D03*
X109220000Y-54610000D03*
X83820000Y-53721000D03*
X153416000Y-41910000D03*
X139192000Y-69342000D03*
X154178000Y-71120000D03*
X150876000Y-67056000D03*
X138176000Y-47244000D03*
X145279000Y-89154000D03*
X147320000Y-45720000D03*
X127000000Y-33528000D03*
X158623000Y-51689000D03*
X150368000Y-57912000D03*
X132842000Y-69088000D03*
X104648000Y-46482000D03*
X121666000Y-47752000D03*
X140208000Y-31496000D03*
X82296000Y-45466000D03*
X134620000Y-100838000D03*
X151892000Y-81788000D03*
X132842000Y-78232000D03*
X148562438Y-73375648D03*
X135636000Y-37084000D03*
X155448000Y-85598000D03*
X148336000Y-57912000D03*
X156464000Y-88900000D03*
X146558000Y-51689000D03*
X109728000Y-96774000D03*
X137160000Y-57912000D03*
X150622000Y-51689000D03*
X150368000Y-88138000D03*
X146812000Y-64262000D03*
X141732000Y-61722000D03*
X148590000Y-77216000D03*
X156972000Y-61722000D03*
X151892000Y-83312000D03*
X144272000Y-57912000D03*
X137160000Y-98298000D03*
X125730000Y-37592000D03*
X139192000Y-76962000D03*
X148590000Y-51689000D03*
X159512000Y-88900000D03*
X127000000Y-34544000D03*
X151892000Y-61722000D03*
X121666000Y-48768000D03*
X121666000Y-44704000D03*
X140716000Y-44704000D03*
X143256000Y-57912000D03*
X134620000Y-80010000D03*
X134620000Y-67818000D03*
X160020000Y-66294000D03*
X156972000Y-85598000D03*
X141732000Y-76962000D03*
X160782000Y-36830000D03*
X140716000Y-37084000D03*
X163322000Y-88900000D03*
X83312000Y-45466000D03*
X163068000Y-39116000D03*
X159512000Y-45720000D03*
X114808000Y-99314000D03*
X121666000Y-41656000D03*
X153416000Y-71120000D03*
X155956000Y-74422000D03*
X149352000Y-31496000D03*
X157988000Y-88900000D03*
X152908000Y-81534000D03*
X142240000Y-57912000D03*
X101092000Y-54102000D03*
X156718000Y-51689000D03*
X132842000Y-61976000D03*
X132842000Y-72136000D03*
X129540000Y-98298000D03*
X134620000Y-60706000D03*
X144272000Y-71882000D03*
X136652000Y-71882000D03*
X134620000Y-81026000D03*
X154940000Y-59690000D03*
X151892000Y-76454000D03*
X144780000Y-59690000D03*
X162052000Y-85852000D03*
X121666000Y-57912000D03*
X158496000Y-54864000D03*
X159512000Y-91440000D03*
X149352000Y-64262000D03*
X138176000Y-42164000D03*
X134620000Y-64770000D03*
X160528000Y-85852000D03*
X157256352Y-88872438D03*
X136652000Y-61722000D03*
X121412000Y-85090000D03*
X121666000Y-50800000D03*
X161036000Y-54864000D03*
X134112000Y-31496000D03*
X121666000Y-54864000D03*
X155448000Y-31496000D03*
X121666000Y-39624000D03*
X148590000Y-72644000D03*
X151384000Y-43942000D03*
X139192000Y-71882000D03*
X132842000Y-80264000D03*
X154432000Y-31496000D03*
X149352000Y-61722000D03*
X164592000Y-40640000D03*
X78359000Y-58420000D03*
X160528000Y-40894000D03*
X152654000Y-88392000D03*
X154940000Y-71120000D03*
X109728000Y-94234000D03*
X156210000Y-32258000D03*
X149352000Y-57912000D03*
X121666000Y-59944000D03*
X145796000Y-54864000D03*
X140716000Y-54864000D03*
X155448000Y-57912000D03*
X141732000Y-69342000D03*
X151919562Y-80294352D03*
X147828000Y-59690000D03*
X135636000Y-59690000D03*
X112268000Y-96774000D03*
X164592000Y-56896000D03*
X134620000Y-73914000D03*
X134620000Y-78994000D03*
X118872000Y-80010000D03*
X132080000Y-100838000D03*
X151919562Y-73443198D03*
X134620000Y-71882000D03*
X148590000Y-77971154D03*
X151892000Y-74174846D03*
X162052000Y-61722000D03*
X138176000Y-34290000D03*
X117221000Y-76200000D03*
X155956000Y-54864000D03*
X158496000Y-71882000D03*
X152654000Y-71374000D03*
X148590000Y-71882000D03*
X158496000Y-81788000D03*
X157607000Y-51689000D03*
X146304000Y-31496000D03*
X149352000Y-85598000D03*
X136144000Y-94742000D03*
X121666000Y-55880000D03*
X159766000Y-84836000D03*
X126492000Y-82550000D03*
X151892000Y-75698846D03*
X159512000Y-71120000D03*
X150359000Y-92456000D03*
X150876000Y-59690000D03*
X161798000Y-88900000D03*
X153924000Y-59690000D03*
X134620000Y-76962000D03*
X141732000Y-59690000D03*
X138176000Y-52324000D03*
X109728000Y-99314000D03*
X152400000Y-31496000D03*
X155956000Y-76962000D03*
X143256000Y-54864000D03*
X136652000Y-79502000D03*
X128016000Y-31496000D03*
X134620000Y-65786000D03*
X153416000Y-31496000D03*
X140716000Y-52324000D03*
X148336000Y-45720000D03*
X127000000Y-32512000D03*
X139192000Y-74422000D03*
X151892000Y-59690000D03*
X121412000Y-82550000D03*
X151638000Y-51689000D03*
%TO.N,/433MHz/SCK*%
X120333500Y-68263500D03*
X95377000Y-51181000D03*
X131572000Y-40386000D03*
X131064000Y-87630000D03*
X154169000Y-90678000D03*
X119126000Y-51308000D03*
X122825120Y-65771880D03*
%TO.N,/MCU/ESP32.enable*%
X111506000Y-73660000D03*
X109220000Y-71374000D03*
X108204000Y-53848000D03*
%TO.N,/433MHz/MOSI*%
X118110000Y-50292000D03*
X119194000Y-68394000D03*
X130048000Y-87630000D03*
X121543500Y-66044500D03*
X131572000Y-38354000D03*
X154169000Y-91694000D03*
X95504000Y-50038000D03*
%TO.N,/433MHz/MISO*%
X154169000Y-92710000D03*
X131572000Y-36322000D03*
X129032000Y-87630000D03*
X116586000Y-49022000D03*
X120277000Y-66302000D03*
X95504000Y-49022000D03*
X117348000Y-67818000D03*
%TO.N,/MCU/GPIO.13*%
X103124000Y-58420000D03*
%TO.N,/MCU/GPIO.10*%
X99314000Y-58420000D03*
%TO.N,/MCU/GPIO.12*%
X101854000Y-58420000D03*
%TO.N,/MCU/GPIO.11*%
X100584000Y-58420000D03*
%TO.N,/MCU/GPIO.9*%
X98044000Y-58420000D03*
%TO.N,/MCU/ESP32.reset*%
X113284000Y-56388000D03*
X110744000Y-67564000D03*
X115062000Y-72390000D03*
%TO.N,/MCU/UART.DTR*%
X113030000Y-68580000D03*
%TO.N,/MCU/UART.RX*%
X106172000Y-67310000D03*
X106172000Y-52324000D03*
%TO.N,/MCU/UART.TX*%
X105918000Y-69850000D03*
X107188000Y-52324000D03*
%TO.N,/MCU/UART.RTS*%
X107442000Y-68550000D03*
X108929311Y-72248000D03*
%TO.N,V_{USB}*%
X93218000Y-77724000D03*
X95250000Y-75692000D03*
%TO.N,/CS2*%
X128016000Y-87630000D03*
X154169000Y-93726000D03*
%TO.N,Net-(U2-VI)*%
X98425000Y-87757000D03*
X130810000Y-59690000D03*
X130048000Y-59690000D03*
X99187000Y-87757000D03*
%TO.N,VCC*%
X94742000Y-83566000D03*
X94742000Y-82550000D03*
%TO.N,/MCU/USB1.D-*%
X86830000Y-80010000D03*
X95250000Y-61214000D03*
%TO.N,/MCU/USB1.D+*%
X95333240Y-62050000D03*
X86830000Y-80895012D03*
%TO.N,Net-(J6-CC1)*%
X86360000Y-79248000D03*
X86614000Y-76454000D03*
%TO.N,Net-(J6-CC2)*%
X86360000Y-82168000D03*
X86868000Y-84074000D03*
%TO.N,/CS1*%
X115682000Y-71374000D03*
X131572000Y-42418000D03*
%TD*%
D24*
%TO.N,+3.3V*%
X82804000Y-40894000D02*
X83312000Y-40386000D01*
X80518000Y-56896000D02*
X80772000Y-57150000D01*
X83312000Y-40386000D02*
X83820000Y-40894000D01*
X83312000Y-40894000D02*
X83820000Y-40894000D01*
X82804000Y-40894000D02*
X83312000Y-40894000D01*
X83820000Y-40894000D02*
X89408000Y-40894000D01*
X80518000Y-49988000D02*
X80518000Y-56896000D01*
X83312000Y-40386000D02*
X83312000Y-40894000D01*
X82296000Y-40894000D02*
X82804000Y-40894000D01*
X80518000Y-42672000D02*
X82296000Y-40894000D01*
X107442000Y-39878000D02*
X115062000Y-47498000D01*
X90424000Y-39878000D02*
X107442000Y-39878000D01*
X83312000Y-38862000D02*
X83312000Y-40386000D01*
X89408000Y-40894000D02*
X90424000Y-39878000D01*
X80518000Y-49988000D02*
X80518000Y-42672000D01*
D25*
%TO.N,/433MHz/SCK*%
X131064000Y-87630000D02*
X134112000Y-90678000D01*
X120333500Y-68263500D02*
X122825120Y-65771880D01*
X134112000Y-90678000D02*
X154169000Y-90678000D01*
X122825120Y-65771880D02*
X123319000Y-65278000D01*
X129032000Y-40386000D02*
X131572000Y-40386000D01*
X123319000Y-65278000D02*
X123319000Y-46099000D01*
D26*
X95377000Y-51181000D02*
X118999000Y-51181000D01*
X118999000Y-51181000D02*
X119126000Y-51308000D01*
D25*
X123319000Y-46099000D02*
X129032000Y-40386000D01*
%TO.N,/MCU/ESP32.enable*%
X108204000Y-53848000D02*
X108204000Y-70358000D01*
X108204000Y-70358000D02*
X109220000Y-71374000D01*
X111506000Y-73660000D02*
X109220000Y-71374000D01*
%TO.N,/433MHz/MOSI*%
X122818000Y-64770000D02*
X122818000Y-45784520D01*
X134112000Y-91694000D02*
X154169000Y-91694000D01*
D26*
X117856000Y-50038000D02*
X95504000Y-50038000D01*
D25*
X130248520Y-38354000D02*
X131572000Y-38354000D01*
X119194000Y-68394000D02*
X121543500Y-66044500D01*
X122818000Y-45784520D02*
X130248520Y-38354000D01*
X130048000Y-87630000D02*
X134112000Y-91694000D01*
X121543500Y-66044500D02*
X122818000Y-64770000D01*
D26*
X118110000Y-50292000D02*
X117856000Y-50038000D01*
D25*
%TO.N,/433MHz/MISO*%
X118761000Y-67818000D02*
X120277000Y-66302000D01*
X117348000Y-67818000D02*
X118761000Y-67818000D01*
X134509000Y-93107000D02*
X153772000Y-93107000D01*
D26*
X116586000Y-49022000D02*
X95504000Y-49022000D01*
D25*
X120277000Y-66302000D02*
X122317000Y-64262000D01*
X153772000Y-93107000D02*
X154169000Y-92710000D01*
X129032000Y-87630000D02*
X134509000Y-93107000D01*
X122317000Y-45577000D02*
X131572000Y-36322000D01*
X122317000Y-64262000D02*
X122317000Y-45577000D01*
%TO.N,/MCU/GPIO.13*%
X98023000Y-76754480D02*
X100008520Y-78740000D01*
X109728000Y-78740000D02*
X114046000Y-83058000D01*
X100008520Y-78740000D02*
X109728000Y-78740000D01*
X103124000Y-58420000D02*
X98023000Y-63521000D01*
X98023000Y-63521000D02*
X98023000Y-76754480D01*
%TO.N,/MCU/GPIO.10*%
X96520000Y-62190520D02*
X96520000Y-77001480D01*
X96813479Y-77710000D02*
X96813480Y-77710000D01*
X99367479Y-80264000D02*
X103632000Y-80264000D01*
X99314000Y-58420000D02*
X96520000Y-61214000D01*
X99067000Y-79963521D02*
X99367479Y-80264000D01*
X99067000Y-79963521D02*
X99067000Y-79963520D01*
X96813480Y-77710000D02*
X99067000Y-79963521D01*
X96520000Y-77416521D02*
X96813479Y-77710000D01*
X96520000Y-77216000D02*
X96520000Y-77416520D01*
X96520000Y-77001480D02*
X96520000Y-77216000D01*
X96520000Y-61775480D02*
X96520000Y-62190520D01*
X96520000Y-61214000D02*
X96520000Y-61775480D01*
X103632000Y-80264000D02*
X106426000Y-83058000D01*
X96520000Y-77416520D02*
X96520000Y-77416521D01*
%TO.N,/MCU/GPIO.12*%
X97522000Y-62752000D02*
X97522000Y-76962000D01*
X107696000Y-79248000D02*
X111506000Y-83058000D01*
X97522000Y-76962000D02*
X99808000Y-79248000D01*
X99808000Y-79248000D02*
X107696000Y-79248000D01*
X101854000Y-58420000D02*
X97522000Y-62752000D01*
%TO.N,/MCU/GPIO.11*%
X100584000Y-58420000D02*
X97021000Y-61983000D01*
X97021000Y-77209000D02*
X99568000Y-79756000D01*
X105664000Y-79756000D02*
X108966000Y-83058000D01*
X99568000Y-79756000D02*
X105664000Y-79756000D01*
X97021000Y-61983000D02*
X97021000Y-77209000D01*
%TO.N,/MCU/GPIO.9*%
X96019000Y-77477000D02*
X96019000Y-77624041D01*
X96012000Y-60452000D02*
X96012000Y-77470000D01*
X96605957Y-78211001D02*
X96605961Y-78211001D01*
X96605961Y-78211001D02*
X98859478Y-80464521D01*
X98859478Y-80464521D02*
X98859480Y-80464521D01*
X96019000Y-77624041D02*
X96019000Y-77624042D01*
X96165740Y-77770781D02*
X96312479Y-77917520D01*
X99159958Y-80765000D02*
X99159959Y-80765000D01*
X98044000Y-58420000D02*
X96012000Y-60452000D01*
X96312478Y-77917522D02*
X96605957Y-78211001D01*
X96012000Y-77470000D02*
X96019000Y-77477000D01*
X96312479Y-77917520D02*
X96312480Y-77917520D01*
X96312480Y-77917520D02*
X96312479Y-77917521D01*
X99574999Y-80765000D02*
X101593000Y-80765000D01*
X99159959Y-80765000D02*
X99307000Y-80765000D01*
X98866479Y-80471521D02*
X99159958Y-80765000D01*
X98859480Y-80464521D02*
X98866479Y-80471520D01*
X96312479Y-77917521D02*
X96312478Y-77917522D01*
X98866479Y-80471520D02*
X98866479Y-80471521D01*
X99307000Y-80765000D02*
X99574999Y-80765000D01*
X101593000Y-80765000D02*
X103886000Y-83058000D01*
X96019000Y-77624041D02*
X96165740Y-77770781D01*
D26*
%TO.N,/MCU/ESP32.reset*%
X114300000Y-64516000D02*
X113792000Y-64516000D01*
X115062000Y-72390000D02*
X114300000Y-71628000D01*
X110744000Y-67564000D02*
X113792000Y-64516000D01*
X115316000Y-58420000D02*
X113284000Y-56388000D01*
X115316000Y-62992000D02*
X115316000Y-58420000D01*
X114300000Y-64516000D02*
X114300000Y-64008000D01*
X114300000Y-71628000D02*
X114300000Y-64516000D01*
X113792000Y-64516000D02*
X115316000Y-62992000D01*
%TO.N,/MCU/UART.DTR*%
X114046000Y-76454000D02*
X113030000Y-75438000D01*
X113030000Y-75438000D02*
X113030000Y-68580000D01*
D25*
%TO.N,/MCU/UART.RX*%
X106934000Y-73406000D02*
X109728000Y-73406000D01*
X106172000Y-67310000D02*
X105156000Y-68326000D01*
X105156000Y-68326000D02*
X105156000Y-71628000D01*
X105156000Y-71628000D02*
X106934000Y-73406000D01*
X106172000Y-67310000D02*
X106172000Y-52324000D01*
X111506000Y-75184000D02*
X111506000Y-76454000D01*
X109728000Y-73406000D02*
X111506000Y-75184000D01*
%TO.N,/MCU/UART.TX*%
X105918000Y-69850000D02*
X105918000Y-68580000D01*
X105918000Y-68580000D02*
X107188000Y-67310000D01*
X107188000Y-67310000D02*
X107188000Y-52324000D01*
%TO.N,/MCU/UART.RTS*%
X107442000Y-68550000D02*
X107442000Y-70760689D01*
X107442000Y-70760689D02*
X108929311Y-72248000D01*
D26*
%TO.N,V_{USB}*%
X95250000Y-75692000D02*
X93218000Y-77724000D01*
D25*
%TO.N,/CS2*%
X154169000Y-93726000D02*
X134112000Y-93726000D01*
X134112000Y-93726000D02*
X128016000Y-87630000D01*
D24*
%TO.N,Net-(U2-VI)*%
X131572000Y-60452000D02*
X131572000Y-81788000D01*
X125603000Y-87757000D02*
X98425000Y-87757000D01*
X130048000Y-59690000D02*
X130810000Y-59690000D01*
X131572000Y-81788000D02*
X125603000Y-87757000D01*
X130810000Y-59690000D02*
X131572000Y-60452000D01*
D27*
%TO.N,VCC*%
X94742000Y-83566000D02*
X94742000Y-82550000D01*
X104100000Y-98465500D02*
X104053500Y-98465500D01*
X104053500Y-98465500D02*
X94742000Y-89154000D01*
X94742000Y-89154000D02*
X94742000Y-82550000D01*
D25*
%TO.N,/MCU/USB1.D-*%
X93980000Y-62484000D02*
X93980000Y-72860000D01*
X95250000Y-61214000D02*
X93980000Y-62484000D01*
X93980000Y-72860000D02*
X86830000Y-80010000D01*
%TO.N,/MCU/USB1.D+*%
X94820620Y-73073380D02*
X86998988Y-80895012D01*
X95333240Y-62050000D02*
X94820620Y-62562620D01*
X86998988Y-80895012D02*
X86830000Y-80895012D01*
X94820620Y-62562620D02*
X94820620Y-73073380D01*
%TO.N,Net-(J6-CC1)*%
X86360000Y-79248000D02*
X86360000Y-76708000D01*
X86360000Y-76708000D02*
X86614000Y-76454000D01*
%TO.N,Net-(J6-CC2)*%
X86360000Y-82168000D02*
X86868000Y-82676000D01*
X86868000Y-82676000D02*
X86868000Y-84074000D01*
%TO.N,/CS1*%
X124460000Y-46482000D02*
X128524000Y-42418000D01*
X128524000Y-42418000D02*
X131572000Y-42418000D01*
X115682000Y-71374000D02*
X118872000Y-71374000D01*
X118872000Y-71374000D02*
X124460000Y-65786000D01*
X124460000Y-65786000D02*
X124460000Y-46482000D01*
%TD*%
%TA.AperFunction,Conductor*%
%TO.N,GND*%
G36*
X153773653Y-92114185D02*
G01*
X153819408Y-92166989D01*
X153829352Y-92236147D01*
X153800327Y-92299703D01*
X153794295Y-92306181D01*
X153728493Y-92371982D01*
X153728488Y-92371988D01*
X153656017Y-92497511D01*
X153656016Y-92497515D01*
X153624643Y-92614595D01*
X153588280Y-92674254D01*
X153525433Y-92704783D01*
X153504870Y-92706500D01*
X134726254Y-92706500D01*
X134659215Y-92686815D01*
X134638573Y-92670181D01*
X134274573Y-92306181D01*
X134241088Y-92244858D01*
X134246072Y-92175166D01*
X134287944Y-92119233D01*
X134353408Y-92094816D01*
X134362254Y-92094500D01*
X153706614Y-92094500D01*
X153773653Y-92114185D01*
G37*
%TD.AperFunction*%
%TA.AperFunction,Conductor*%
G36*
X156272363Y-31000185D02*
G01*
X156293005Y-31016819D01*
X165071181Y-39794995D01*
X165104666Y-39856318D01*
X165107500Y-39882676D01*
X165107500Y-44256051D01*
X165087815Y-44323090D01*
X165035011Y-44368845D01*
X164965853Y-44378789D01*
X164918404Y-44361590D01*
X164860128Y-44325645D01*
X164860119Y-44325641D01*
X164693697Y-44270494D01*
X164693690Y-44270493D01*
X164590986Y-44260000D01*
X163191000Y-44260000D01*
X163191000Y-46609999D01*
X164590972Y-46609999D01*
X164590986Y-46609998D01*
X164693697Y-46599505D01*
X164860119Y-46544358D01*
X164860130Y-46544353D01*
X164918403Y-46508410D01*
X164985795Y-46489969D01*
X165052459Y-46510891D01*
X165097228Y-46564533D01*
X165107500Y-46613948D01*
X165107500Y-47064088D01*
X165087815Y-47131127D01*
X165035011Y-47176882D01*
X164997684Y-47187274D01*
X162299154Y-47497999D01*
X162299154Y-49012043D01*
X162299153Y-49012043D01*
X163179459Y-49149843D01*
X165002678Y-49435244D01*
X165065866Y-49465059D01*
X165102904Y-49524304D01*
X165107500Y-49557752D01*
X165107500Y-49906051D01*
X165087815Y-49973090D01*
X165035011Y-50018845D01*
X164965853Y-50028789D01*
X164918404Y-50011590D01*
X164860128Y-49975645D01*
X164860119Y-49975641D01*
X164693697Y-49920494D01*
X164693690Y-49920493D01*
X164590986Y-49910000D01*
X163191000Y-49910000D01*
X163191000Y-52259999D01*
X164590972Y-52259999D01*
X164590986Y-52259998D01*
X164693697Y-52249505D01*
X164860119Y-52194358D01*
X164860130Y-52194353D01*
X164918403Y-52158410D01*
X164985795Y-52139969D01*
X165052459Y-52160891D01*
X165097228Y-52214533D01*
X165107500Y-52263948D01*
X165107500Y-58296000D01*
X165087815Y-58363039D01*
X165035011Y-58408794D01*
X164983500Y-58420000D01*
X134112000Y-58420000D01*
X133477000Y-58420000D01*
X133477000Y-82550000D01*
X134112000Y-82550000D01*
X134112000Y-71498986D01*
X160464001Y-71498986D01*
X160474494Y-71601697D01*
X160529641Y-71768119D01*
X160529643Y-71768124D01*
X160621684Y-71917345D01*
X160745654Y-72041315D01*
X160894875Y-72133356D01*
X160894880Y-72133358D01*
X161061302Y-72188505D01*
X161061309Y-72188506D01*
X161164019Y-72198999D01*
X162563999Y-72198999D01*
X162564000Y-72198998D01*
X162564000Y-71274000D01*
X160464001Y-71274000D01*
X160464001Y-71498986D01*
X134112000Y-71498986D01*
X134112000Y-70549013D01*
X160464000Y-70549013D01*
X160464000Y-70774000D01*
X162564000Y-70774000D01*
X162564000Y-69849000D01*
X161164028Y-69849000D01*
X161164012Y-69849001D01*
X161061302Y-69859494D01*
X160894880Y-69914641D01*
X160894875Y-69914643D01*
X160745654Y-70006684D01*
X160621684Y-70130654D01*
X160529643Y-70279875D01*
X160529641Y-70279880D01*
X160474494Y-70446302D01*
X160474493Y-70446309D01*
X160464000Y-70549013D01*
X134112000Y-70549013D01*
X134112000Y-65848986D01*
X160464001Y-65848986D01*
X160474494Y-65951697D01*
X160529641Y-66118119D01*
X160529643Y-66118124D01*
X160621684Y-66267345D01*
X160745654Y-66391315D01*
X160894875Y-66483356D01*
X160894880Y-66483358D01*
X161061302Y-66538505D01*
X161061309Y-66538506D01*
X161164019Y-66548999D01*
X162563999Y-66548999D01*
X162564000Y-66548998D01*
X162564000Y-65624000D01*
X160464001Y-65624000D01*
X160464001Y-65848986D01*
X134112000Y-65848986D01*
X134112000Y-64899013D01*
X160464000Y-64899013D01*
X160464000Y-65124000D01*
X162564000Y-65124000D01*
X162564000Y-64199000D01*
X161164028Y-64199000D01*
X161164012Y-64199001D01*
X161061302Y-64209494D01*
X160894880Y-64264641D01*
X160894875Y-64264643D01*
X160745654Y-64356684D01*
X160621684Y-64480654D01*
X160529643Y-64629875D01*
X160529641Y-64629880D01*
X160474494Y-64796302D01*
X160474493Y-64796309D01*
X160464000Y-64899013D01*
X134112000Y-64899013D01*
X134112000Y-59179000D01*
X134131685Y-59111961D01*
X134184489Y-59066206D01*
X134236000Y-59055000D01*
X164983500Y-59055000D01*
X165050539Y-59074685D01*
X165096294Y-59127489D01*
X165107500Y-59179000D01*
X165107500Y-64282477D01*
X165087815Y-64349516D01*
X165035011Y-64395271D01*
X164965853Y-64405215D01*
X164902297Y-64376190D01*
X164895819Y-64370158D01*
X164882345Y-64356684D01*
X164733124Y-64264643D01*
X164733119Y-64264641D01*
X164566697Y-64209494D01*
X164566690Y-64209493D01*
X164463986Y-64199000D01*
X163064000Y-64199000D01*
X163064000Y-66548999D01*
X164463972Y-66548999D01*
X164463986Y-66548998D01*
X164566697Y-66538505D01*
X164733119Y-66483358D01*
X164733124Y-66483356D01*
X164882345Y-66391315D01*
X164895819Y-66377842D01*
X164957142Y-66344357D01*
X165026834Y-66349341D01*
X165082767Y-66391213D01*
X165107184Y-66456677D01*
X165107500Y-66465523D01*
X165107500Y-67032335D01*
X165087815Y-67099374D01*
X165035011Y-67145129D01*
X164997684Y-67155521D01*
X162553154Y-67437000D01*
X162553154Y-68951043D01*
X162553153Y-68951043D01*
X162874778Y-69001389D01*
X165002678Y-69334483D01*
X165065866Y-69364298D01*
X165102904Y-69423543D01*
X165107500Y-69456991D01*
X165107500Y-69932477D01*
X165087815Y-69999516D01*
X165035011Y-70045271D01*
X164965853Y-70055215D01*
X164902297Y-70026190D01*
X164895819Y-70020158D01*
X164882345Y-70006684D01*
X164733124Y-69914643D01*
X164733119Y-69914641D01*
X164566697Y-69859494D01*
X164566690Y-69859493D01*
X164463986Y-69849000D01*
X163064000Y-69849000D01*
X163064000Y-72198999D01*
X164463972Y-72198999D01*
X164463986Y-72198998D01*
X164566697Y-72188505D01*
X164733119Y-72133358D01*
X164733124Y-72133356D01*
X164882345Y-72041315D01*
X164895819Y-72027842D01*
X164957142Y-71994357D01*
X165026834Y-71999341D01*
X165082767Y-72041213D01*
X165107184Y-72106677D01*
X165107500Y-72115523D01*
X165107500Y-83431195D01*
X165087815Y-83498234D01*
X165035011Y-83543989D01*
X164965853Y-83553933D01*
X164902297Y-83524908D01*
X164895819Y-83518876D01*
X164882345Y-83505402D01*
X164733124Y-83413361D01*
X164733119Y-83413359D01*
X164566697Y-83358212D01*
X164566690Y-83358211D01*
X164463986Y-83347718D01*
X163064000Y-83347718D01*
X163064000Y-85697717D01*
X164463972Y-85697717D01*
X164463986Y-85697716D01*
X164566697Y-85687223D01*
X164733119Y-85632076D01*
X164733124Y-85632074D01*
X164882345Y-85540033D01*
X164895819Y-85526560D01*
X164957142Y-85493075D01*
X165026834Y-85498059D01*
X165082767Y-85539931D01*
X165107184Y-85605395D01*
X165107500Y-85614241D01*
X165107500Y-86238582D01*
X165087815Y-86305621D01*
X165035011Y-86351376D01*
X164997684Y-86361768D01*
X162807154Y-86614000D01*
X162807154Y-88128043D01*
X162807153Y-88128043D01*
X163294694Y-88204361D01*
X165002678Y-88471723D01*
X165065866Y-88501538D01*
X165102904Y-88560783D01*
X165107500Y-88594231D01*
X165107500Y-89081195D01*
X165087815Y-89148234D01*
X165035011Y-89193989D01*
X164965853Y-89203933D01*
X164902297Y-89174908D01*
X164895819Y-89168876D01*
X164882345Y-89155402D01*
X164733124Y-89063361D01*
X164733119Y-89063359D01*
X164566697Y-89008212D01*
X164566690Y-89008211D01*
X164463986Y-88997718D01*
X163064000Y-88997718D01*
X163064000Y-91347717D01*
X164463972Y-91347717D01*
X164463986Y-91347716D01*
X164566697Y-91337223D01*
X164733119Y-91282076D01*
X164733124Y-91282074D01*
X164882345Y-91190033D01*
X164895819Y-91176560D01*
X164957142Y-91143075D01*
X165026834Y-91148059D01*
X165082767Y-91189931D01*
X165107184Y-91255395D01*
X165107500Y-91264241D01*
X165107500Y-93721324D01*
X165087815Y-93788363D01*
X165071181Y-93809005D01*
X156293005Y-102587181D01*
X156231682Y-102620666D01*
X156205324Y-102623500D01*
X86110676Y-102623500D01*
X86043637Y-102603815D01*
X86022995Y-102587181D01*
X83119498Y-99683684D01*
X84838217Y-99683684D01*
X84838217Y-99949749D01*
X84838218Y-99949766D01*
X84872946Y-100213556D01*
X84941812Y-100470567D01*
X85043634Y-100716386D01*
X85043638Y-100716396D01*
X85176672Y-100946819D01*
X85338658Y-101157922D01*
X85526794Y-101346058D01*
X85526798Y-101346061D01*
X85526800Y-101346063D01*
X85737893Y-101508041D01*
X85737897Y-101508044D01*
X85968320Y-101641078D01*
X85968321Y-101641078D01*
X85968324Y-101641080D01*
X86214148Y-101742904D01*
X86471159Y-101811770D01*
X86734961Y-101846500D01*
X86734968Y-101846500D01*
X87001032Y-101846500D01*
X87001039Y-101846500D01*
X87264841Y-101811770D01*
X87521852Y-101742904D01*
X87767676Y-101641080D01*
X87998107Y-101508041D01*
X88209200Y-101346063D01*
X88397346Y-101157917D01*
X88559324Y-100946824D01*
X88692363Y-100716393D01*
X88794187Y-100470569D01*
X88863053Y-100213558D01*
X88897783Y-99949756D01*
X88897783Y-99683678D01*
X88863053Y-99419876D01*
X88794187Y-99162865D01*
X88692363Y-98917041D01*
X88687958Y-98909411D01*
X88582146Y-98726138D01*
X88559327Y-98686615D01*
X88559326Y-98686614D01*
X88559324Y-98686610D01*
X88397346Y-98475517D01*
X88397344Y-98475515D01*
X88397341Y-98475511D01*
X88209205Y-98287375D01*
X87998102Y-98125389D01*
X87767679Y-97992355D01*
X87767669Y-97992351D01*
X87521850Y-97890529D01*
X87264839Y-97821663D01*
X87001049Y-97786935D01*
X87001044Y-97786934D01*
X87001039Y-97786934D01*
X86734961Y-97786934D01*
X86734955Y-97786934D01*
X86734950Y-97786935D01*
X86471160Y-97821663D01*
X86214149Y-97890529D01*
X85968330Y-97992351D01*
X85968320Y-97992355D01*
X85737897Y-98125389D01*
X85526794Y-98287375D01*
X85338658Y-98475511D01*
X85176672Y-98686614D01*
X85043638Y-98917037D01*
X85043634Y-98917047D01*
X84941812Y-99162866D01*
X84872946Y-99419877D01*
X84838218Y-99683667D01*
X84838217Y-99683684D01*
X83119498Y-99683684D01*
X80851327Y-97415513D01*
X97350000Y-97415513D01*
X97350000Y-98215500D01*
X98499999Y-98215500D01*
X98474979Y-98275902D01*
X98450000Y-98401481D01*
X98450000Y-98529519D01*
X98474979Y-98655098D01*
X98499999Y-98715500D01*
X97350001Y-98715500D01*
X97350001Y-99515486D01*
X97360494Y-99618197D01*
X97415641Y-99784619D01*
X97415643Y-99784624D01*
X97507684Y-99933845D01*
X97631654Y-100057815D01*
X97780875Y-100149856D01*
X97780880Y-100149858D01*
X97947302Y-100205005D01*
X97947309Y-100205006D01*
X98050019Y-100215499D01*
X98849999Y-100215499D01*
X98850000Y-100215498D01*
X98850000Y-99065501D01*
X98910402Y-99090521D01*
X99035981Y-99115500D01*
X99164019Y-99115500D01*
X99289598Y-99090521D01*
X99350000Y-99065501D01*
X99350000Y-100215499D01*
X100149972Y-100215499D01*
X100149986Y-100215498D01*
X100252697Y-100205005D01*
X100419119Y-100149858D01*
X100419124Y-100149856D01*
X100568345Y-100057815D01*
X100692315Y-99933845D01*
X100784356Y-99784624D01*
X100784358Y-99784619D01*
X100839505Y-99618197D01*
X100839506Y-99618190D01*
X100849999Y-99515486D01*
X100850000Y-99515473D01*
X100850000Y-98715500D01*
X99700001Y-98715500D01*
X99725021Y-98655098D01*
X99750000Y-98529519D01*
X99750000Y-98401481D01*
X99725021Y-98275902D01*
X99700001Y-98215500D01*
X100849999Y-98215500D01*
X100849999Y-97415528D01*
X100849998Y-97415513D01*
X100839505Y-97312802D01*
X100784358Y-97146380D01*
X100784356Y-97146375D01*
X100692315Y-96997154D01*
X100568345Y-96873184D01*
X100419124Y-96781143D01*
X100419119Y-96781141D01*
X100252697Y-96725994D01*
X100252690Y-96725993D01*
X100149986Y-96715500D01*
X99350000Y-96715500D01*
X99350000Y-97865498D01*
X99289598Y-97840479D01*
X99164019Y-97815500D01*
X99035981Y-97815500D01*
X98910402Y-97840479D01*
X98850000Y-97865498D01*
X98850000Y-96715500D01*
X98050028Y-96715500D01*
X98050012Y-96715501D01*
X97947302Y-96725994D01*
X97780880Y-96781141D01*
X97780875Y-96781143D01*
X97631654Y-96873184D01*
X97507684Y-96997154D01*
X97415643Y-97146375D01*
X97415641Y-97146380D01*
X97360494Y-97312802D01*
X97360493Y-97312809D01*
X97350000Y-97415513D01*
X80851327Y-97415513D01*
X77244819Y-93809005D01*
X77211334Y-93747682D01*
X77208500Y-93721324D01*
X77208500Y-88555448D01*
X84955500Y-88555448D01*
X84955500Y-88736551D01*
X84983829Y-88915410D01*
X85039787Y-89087636D01*
X85039788Y-89087639D01*
X85122006Y-89248997D01*
X85228441Y-89395494D01*
X85228445Y-89395499D01*
X85356500Y-89523554D01*
X85356505Y-89523558D01*
X85418603Y-89568674D01*
X85503006Y-89629996D01*
X85608484Y-89683740D01*
X85664360Y-89712211D01*
X85664363Y-89712212D01*
X85750476Y-89740191D01*
X85836591Y-89768171D01*
X85903769Y-89778811D01*
X85968267Y-89789027D01*
X86031402Y-89818956D01*
X86068333Y-89878268D01*
X86067335Y-89948131D01*
X86028725Y-90006363D01*
X85964761Y-90034477D01*
X85948869Y-90035500D01*
X85181323Y-90035500D01*
X85108264Y-90050032D01*
X85108260Y-90050033D01*
X85025399Y-90105399D01*
X84970033Y-90188260D01*
X84970032Y-90188264D01*
X84955500Y-90261321D01*
X84955500Y-92110678D01*
X84970032Y-92183735D01*
X84970033Y-92183739D01*
X84970034Y-92183740D01*
X85025399Y-92266601D01*
X85084636Y-92306181D01*
X85108260Y-92321966D01*
X85108264Y-92321967D01*
X85181321Y-92336499D01*
X85181324Y-92336500D01*
X85181326Y-92336500D01*
X87030676Y-92336500D01*
X87030677Y-92336499D01*
X87103740Y-92321966D01*
X87186601Y-92266601D01*
X87241966Y-92183740D01*
X87256500Y-92110674D01*
X87256500Y-90261326D01*
X87256500Y-90261323D01*
X87256499Y-90261321D01*
X87241967Y-90188264D01*
X87241966Y-90188260D01*
X87226435Y-90165016D01*
X87186601Y-90105399D01*
X87103740Y-90050034D01*
X87103739Y-90050033D01*
X87103735Y-90050032D01*
X87030677Y-90035500D01*
X87030674Y-90035500D01*
X86263131Y-90035500D01*
X86196092Y-90015815D01*
X86150337Y-89963011D01*
X86140393Y-89893853D01*
X86169418Y-89830297D01*
X86228196Y-89792523D01*
X86243733Y-89789027D01*
X86301408Y-89779891D01*
X86375409Y-89768171D01*
X86547639Y-89712211D01*
X86708994Y-89629996D01*
X86855501Y-89523553D01*
X86983553Y-89395501D01*
X87089996Y-89248994D01*
X87105752Y-89218071D01*
X94091499Y-89218071D01*
X94116497Y-89343738D01*
X94116499Y-89343744D01*
X94137937Y-89395501D01*
X94165535Y-89462127D01*
X94236723Y-89568669D01*
X94236726Y-89568673D01*
X94236727Y-89568674D01*
X102618456Y-97950402D01*
X102651941Y-98011725D01*
X102648706Y-98076401D01*
X102636447Y-98114130D01*
X102599500Y-98347402D01*
X102599500Y-98583597D01*
X102636446Y-98816868D01*
X102709433Y-99041496D01*
X102816657Y-99251933D01*
X102955483Y-99443010D01*
X103122490Y-99610017D01*
X103313567Y-99748843D01*
X103383791Y-99784624D01*
X103524003Y-99856066D01*
X103524005Y-99856066D01*
X103524008Y-99856068D01*
X103644412Y-99895189D01*
X103748631Y-99929053D01*
X103981903Y-99966000D01*
X103981908Y-99966000D01*
X104218097Y-99966000D01*
X104451368Y-99929053D01*
X104486755Y-99917555D01*
X104675992Y-99856068D01*
X104886433Y-99748843D01*
X105077510Y-99610017D01*
X105244517Y-99443010D01*
X105383343Y-99251933D01*
X105490568Y-99041492D01*
X105563553Y-98816868D01*
X105589175Y-98655098D01*
X105600500Y-98583597D01*
X105600500Y-98347402D01*
X105563553Y-98114131D01*
X105490900Y-97890530D01*
X105490568Y-97889508D01*
X105490566Y-97889505D01*
X105490566Y-97889503D01*
X105383342Y-97679066D01*
X105244517Y-97487990D01*
X105077510Y-97320983D01*
X104886433Y-97182157D01*
X104816217Y-97146380D01*
X104675996Y-97074933D01*
X104451368Y-97001946D01*
X104218097Y-96965000D01*
X104218092Y-96965000D01*
X103981908Y-96965000D01*
X103981903Y-96965000D01*
X103748634Y-97001946D01*
X103640706Y-97037013D01*
X103570864Y-97039007D01*
X103514708Y-97006762D01*
X100106741Y-93598795D01*
X129637000Y-93598795D01*
X129637000Y-93803430D01*
X129669009Y-94005530D01*
X129732244Y-94200144D01*
X129825141Y-94382463D01*
X129825147Y-94382472D01*
X129857523Y-94427034D01*
X129857524Y-94427035D01*
X130537000Y-93747559D01*
X130537000Y-93753774D01*
X130564259Y-93855507D01*
X130616920Y-93946719D01*
X130691394Y-94021193D01*
X130782606Y-94073854D01*
X130884339Y-94101113D01*
X130890553Y-94101113D01*
X130211076Y-94780587D01*
X130255650Y-94812972D01*
X130437968Y-94905868D01*
X130446629Y-94908682D01*
X130504304Y-94948120D01*
X130531502Y-95012479D01*
X130519587Y-95081325D01*
X130472342Y-95132801D01*
X130408310Y-95150613D01*
X130112323Y-95150613D01*
X130039264Y-95165145D01*
X130039260Y-95165146D01*
X129956399Y-95220512D01*
X129901033Y-95303373D01*
X129901032Y-95303377D01*
X129886500Y-95376434D01*
X129886500Y-97025791D01*
X129901032Y-97098848D01*
X129901033Y-97098852D01*
X129901034Y-97098853D01*
X129956399Y-97181714D01*
X130039260Y-97237079D01*
X130039264Y-97237080D01*
X130112321Y-97251612D01*
X130112324Y-97251613D01*
X130112326Y-97251613D01*
X131761676Y-97251613D01*
X131761677Y-97251612D01*
X131834740Y-97237079D01*
X131917601Y-97181714D01*
X131972966Y-97098853D01*
X131987500Y-97025787D01*
X131987500Y-95376439D01*
X131987500Y-95376436D01*
X131987499Y-95376434D01*
X131972967Y-95303377D01*
X131972966Y-95303373D01*
X131917601Y-95220512D01*
X131834740Y-95165147D01*
X131834739Y-95165146D01*
X131834735Y-95165145D01*
X131761677Y-95150613D01*
X131761674Y-95150613D01*
X131465690Y-95150613D01*
X131398651Y-95130928D01*
X131352896Y-95078124D01*
X131342952Y-95008966D01*
X131371977Y-94945410D01*
X131427371Y-94908682D01*
X131436031Y-94905868D01*
X131618349Y-94812972D01*
X131662921Y-94780587D01*
X130983447Y-94101113D01*
X130989661Y-94101113D01*
X131091394Y-94073854D01*
X131182606Y-94021193D01*
X131257080Y-93946719D01*
X131309741Y-93855507D01*
X131337000Y-93753774D01*
X131337000Y-93747560D01*
X132016474Y-94427034D01*
X132048859Y-94382462D01*
X132141755Y-94200144D01*
X132204990Y-94005530D01*
X132237000Y-93803430D01*
X132237000Y-93598795D01*
X132204990Y-93396695D01*
X132141755Y-93202081D01*
X132048859Y-93019763D01*
X132016474Y-92975190D01*
X132016474Y-92975189D01*
X131337000Y-93654664D01*
X131337000Y-93648452D01*
X131309741Y-93546719D01*
X131257080Y-93455507D01*
X131182606Y-93381033D01*
X131091394Y-93328372D01*
X130989661Y-93301113D01*
X130983446Y-93301113D01*
X131662922Y-92621637D01*
X131662921Y-92621636D01*
X131618359Y-92589260D01*
X131618350Y-92589254D01*
X131436031Y-92496357D01*
X131241417Y-92433122D01*
X131039317Y-92401113D01*
X130834683Y-92401113D01*
X130632582Y-92433122D01*
X130437968Y-92496357D01*
X130255644Y-92589256D01*
X130211077Y-92621636D01*
X130211077Y-92621637D01*
X130890554Y-93301113D01*
X130884339Y-93301113D01*
X130782606Y-93328372D01*
X130691394Y-93381033D01*
X130616920Y-93455507D01*
X130564259Y-93546719D01*
X130537000Y-93648452D01*
X130537000Y-93654666D01*
X129857524Y-92975190D01*
X129857523Y-92975190D01*
X129825143Y-93019757D01*
X129732244Y-93202081D01*
X129669009Y-93396695D01*
X129637000Y-93598795D01*
X100106741Y-93598795D01*
X95428819Y-88920873D01*
X95395334Y-88859550D01*
X95392500Y-88833192D01*
X95392500Y-87684525D01*
X97874500Y-87684525D01*
X97874500Y-87829475D01*
X97892460Y-87896500D01*
X97912017Y-87969488D01*
X97984488Y-88095011D01*
X97984490Y-88095013D01*
X97984491Y-88095015D01*
X98086985Y-88197509D01*
X98086986Y-88197510D01*
X98086988Y-88197511D01*
X98212511Y-88269982D01*
X98212512Y-88269982D01*
X98212515Y-88269984D01*
X98352525Y-88307500D01*
X98352528Y-88307500D01*
X125675472Y-88307500D01*
X125675474Y-88307500D01*
X125675475Y-88307500D01*
X125815485Y-88269984D01*
X125941015Y-88197510D01*
X126581000Y-87557525D01*
X127465500Y-87557525D01*
X127465500Y-87702475D01*
X127499529Y-87829472D01*
X127503017Y-87842488D01*
X127575488Y-87968011D01*
X127575490Y-87968013D01*
X127575491Y-87968015D01*
X127677985Y-88070509D01*
X127677986Y-88070510D01*
X127677988Y-88070511D01*
X127803511Y-88142982D01*
X127803512Y-88142982D01*
X127803515Y-88142984D01*
X127943525Y-88180500D01*
X127948745Y-88180500D01*
X128015784Y-88200185D01*
X128036426Y-88216819D01*
X133866087Y-94046480D01*
X133957412Y-94099207D01*
X134059273Y-94126500D01*
X134164727Y-94126500D01*
X153739614Y-94126500D01*
X153806653Y-94146185D01*
X153827295Y-94162819D01*
X153830985Y-94166509D01*
X153830986Y-94166510D01*
X153830988Y-94166511D01*
X153956511Y-94238982D01*
X153956512Y-94238982D01*
X153956515Y-94238984D01*
X154096525Y-94276500D01*
X154096528Y-94276500D01*
X154241472Y-94276500D01*
X154241475Y-94276500D01*
X154381485Y-94238984D01*
X154507015Y-94166509D01*
X154609509Y-94064015D01*
X154681984Y-93938485D01*
X154719500Y-93798475D01*
X154719500Y-93653525D01*
X154681984Y-93513515D01*
X154609509Y-93387985D01*
X154527205Y-93305681D01*
X154493720Y-93244358D01*
X154498704Y-93174666D01*
X154527205Y-93130319D01*
X154609509Y-93048015D01*
X154681984Y-92922485D01*
X154719500Y-92782475D01*
X154719500Y-92637525D01*
X154681984Y-92497515D01*
X154681315Y-92496357D01*
X154609511Y-92371988D01*
X154609506Y-92371982D01*
X154527205Y-92289681D01*
X154493720Y-92228358D01*
X154498704Y-92158666D01*
X154527205Y-92114319D01*
X154547024Y-92094500D01*
X154609509Y-92032015D01*
X154681984Y-91906485D01*
X154719500Y-91766475D01*
X154719500Y-91621525D01*
X154681984Y-91481515D01*
X154609509Y-91355985D01*
X154527205Y-91273681D01*
X154493720Y-91212358D01*
X154498704Y-91142666D01*
X154527205Y-91098319D01*
X154559461Y-91066063D01*
X154609509Y-91016015D01*
X154681984Y-90890485D01*
X154719500Y-90750475D01*
X154719500Y-90647704D01*
X160464001Y-90647704D01*
X160474494Y-90750415D01*
X160529641Y-90916837D01*
X160529643Y-90916842D01*
X160621684Y-91066063D01*
X160745654Y-91190033D01*
X160894875Y-91282074D01*
X160894880Y-91282076D01*
X161061302Y-91337223D01*
X161061309Y-91337224D01*
X161164019Y-91347717D01*
X162563999Y-91347717D01*
X162564000Y-91347716D01*
X162564000Y-90422718D01*
X160464001Y-90422718D01*
X160464001Y-90647704D01*
X154719500Y-90647704D01*
X154719500Y-90605525D01*
X154681984Y-90465515D01*
X154681982Y-90465512D01*
X154681982Y-90465510D01*
X154681981Y-90465509D01*
X154663418Y-90433357D01*
X154663417Y-90433356D01*
X154657275Y-90422718D01*
X154609509Y-90339985D01*
X154507015Y-90237491D01*
X154507013Y-90237490D01*
X154507011Y-90237488D01*
X154381488Y-90165017D01*
X154381489Y-90165017D01*
X154370006Y-90161940D01*
X154241475Y-90127500D01*
X154096525Y-90127500D01*
X153967993Y-90161940D01*
X153956511Y-90165017D01*
X153830988Y-90237488D01*
X153830982Y-90237493D01*
X153827295Y-90241181D01*
X153765972Y-90274666D01*
X153739614Y-90277500D01*
X134329255Y-90277500D01*
X134262216Y-90257815D01*
X134241574Y-90241181D01*
X133698124Y-89697731D01*
X160464000Y-89697731D01*
X160464000Y-89922718D01*
X162564000Y-89922718D01*
X162564000Y-88997718D01*
X161164028Y-88997718D01*
X161164012Y-88997719D01*
X161061302Y-89008212D01*
X160894880Y-89063359D01*
X160894875Y-89063361D01*
X160745654Y-89155402D01*
X160621684Y-89279372D01*
X160529643Y-89428593D01*
X160529641Y-89428598D01*
X160474494Y-89595020D01*
X160474493Y-89595027D01*
X160464000Y-89697731D01*
X133698124Y-89697731D01*
X131650819Y-87650426D01*
X131617334Y-87589103D01*
X131614500Y-87562745D01*
X131614500Y-87557527D01*
X131614500Y-87557525D01*
X131576984Y-87417515D01*
X131509307Y-87300296D01*
X131504511Y-87291988D01*
X131504506Y-87291982D01*
X131402017Y-87189493D01*
X131402011Y-87189488D01*
X131276488Y-87117017D01*
X131276489Y-87117017D01*
X131265006Y-87113940D01*
X131136475Y-87079500D01*
X130991525Y-87079500D01*
X130862993Y-87113940D01*
X130851511Y-87117017D01*
X130725988Y-87189488D01*
X130725982Y-87189493D01*
X130643681Y-87271795D01*
X130582358Y-87305280D01*
X130512666Y-87300296D01*
X130468319Y-87271795D01*
X130386017Y-87189493D01*
X130386011Y-87189488D01*
X130260488Y-87117017D01*
X130260489Y-87117017D01*
X130249006Y-87113940D01*
X130120475Y-87079500D01*
X129975525Y-87079500D01*
X129846993Y-87113940D01*
X129835511Y-87117017D01*
X129709988Y-87189488D01*
X129709982Y-87189493D01*
X129627681Y-87271795D01*
X129566358Y-87305280D01*
X129496666Y-87300296D01*
X129452319Y-87271795D01*
X129370017Y-87189493D01*
X129370011Y-87189488D01*
X129244488Y-87117017D01*
X129244489Y-87117017D01*
X129233006Y-87113940D01*
X129104475Y-87079500D01*
X128959525Y-87079500D01*
X128830993Y-87113940D01*
X128819511Y-87117017D01*
X128693988Y-87189488D01*
X128693982Y-87189493D01*
X128611681Y-87271795D01*
X128550358Y-87305280D01*
X128480666Y-87300296D01*
X128436319Y-87271795D01*
X128354017Y-87189493D01*
X128354011Y-87189488D01*
X128228488Y-87117017D01*
X128228489Y-87117017D01*
X128217006Y-87113940D01*
X128088475Y-87079500D01*
X127943525Y-87079500D01*
X127814993Y-87113940D01*
X127803511Y-87117017D01*
X127677988Y-87189488D01*
X127677982Y-87189493D01*
X127575493Y-87291982D01*
X127575488Y-87291988D01*
X127503017Y-87417511D01*
X127503016Y-87417515D01*
X127465500Y-87557525D01*
X126581000Y-87557525D01*
X129140821Y-84997704D01*
X160464001Y-84997704D01*
X160474494Y-85100415D01*
X160529641Y-85266837D01*
X160529643Y-85266842D01*
X160621684Y-85416063D01*
X160745654Y-85540033D01*
X160894875Y-85632074D01*
X160894880Y-85632076D01*
X161061302Y-85687223D01*
X161061309Y-85687224D01*
X161164019Y-85697717D01*
X162563999Y-85697717D01*
X162564000Y-85697716D01*
X162564000Y-84772718D01*
X160464001Y-84772718D01*
X160464001Y-84997704D01*
X129140821Y-84997704D01*
X130090794Y-84047731D01*
X160464000Y-84047731D01*
X160464000Y-84272718D01*
X162564000Y-84272718D01*
X162564000Y-83347718D01*
X161164028Y-83347718D01*
X161164012Y-83347719D01*
X161061302Y-83358212D01*
X160894880Y-83413359D01*
X160894875Y-83413361D01*
X160745654Y-83505402D01*
X160621684Y-83629372D01*
X160529643Y-83778593D01*
X160529641Y-83778598D01*
X160474494Y-83945020D01*
X160474493Y-83945027D01*
X160464000Y-84047731D01*
X130090794Y-84047731D01*
X132012510Y-82126015D01*
X132084984Y-82000485D01*
X132094250Y-81965906D01*
X132097035Y-81955513D01*
X132112043Y-81899500D01*
X132122500Y-81860475D01*
X132122500Y-60379525D01*
X132084984Y-60239515D01*
X132012510Y-60113985D01*
X131148015Y-59249490D01*
X131022485Y-59177016D01*
X131022486Y-59177016D01*
X130987482Y-59167637D01*
X130882475Y-59139500D01*
X129975525Y-59139500D01*
X129846993Y-59173940D01*
X129835511Y-59177017D01*
X129709988Y-59249488D01*
X129709982Y-59249493D01*
X129607493Y-59351982D01*
X129607488Y-59351988D01*
X129535017Y-59477511D01*
X129535016Y-59477515D01*
X129497500Y-59617525D01*
X129497500Y-59762475D01*
X129535016Y-59902485D01*
X129535017Y-59902488D01*
X129607488Y-60028011D01*
X129607490Y-60028013D01*
X129607491Y-60028015D01*
X129709985Y-60130509D01*
X129709986Y-60130510D01*
X129709988Y-60130511D01*
X129835511Y-60202982D01*
X129835512Y-60202982D01*
X129835515Y-60202984D01*
X129975525Y-60240500D01*
X130530613Y-60240500D01*
X130597652Y-60260185D01*
X130618294Y-60276819D01*
X130985181Y-60643706D01*
X131018666Y-60705029D01*
X131021500Y-60731387D01*
X131021500Y-81508613D01*
X131001815Y-81575652D01*
X130985181Y-81596294D01*
X125411294Y-87170181D01*
X125349971Y-87203666D01*
X125323613Y-87206500D01*
X98352525Y-87206500D01*
X98223993Y-87240940D01*
X98212511Y-87244017D01*
X98086988Y-87316488D01*
X98086982Y-87316493D01*
X97984493Y-87418982D01*
X97984488Y-87418988D01*
X97912017Y-87544511D01*
X97912016Y-87544515D01*
X97874500Y-87684525D01*
X95392500Y-87684525D01*
X95392500Y-82485928D01*
X95367502Y-82360261D01*
X95367501Y-82360260D01*
X95367501Y-82360256D01*
X95318465Y-82241873D01*
X95302906Y-82218588D01*
X95247276Y-82135331D01*
X95247273Y-82135327D01*
X95156672Y-82044726D01*
X95156668Y-82044723D01*
X95050133Y-81973538D01*
X95050124Y-81973533D01*
X94931744Y-81924499D01*
X94931738Y-81924497D01*
X94806071Y-81899500D01*
X94806069Y-81899500D01*
X94677931Y-81899500D01*
X94677929Y-81899500D01*
X94552261Y-81924497D01*
X94552255Y-81924499D01*
X94433875Y-81973533D01*
X94433866Y-81973538D01*
X94327331Y-82044723D01*
X94327327Y-82044726D01*
X94236726Y-82135327D01*
X94236723Y-82135331D01*
X94165538Y-82241866D01*
X94165533Y-82241875D01*
X94116499Y-82360255D01*
X94116497Y-82360261D01*
X94091500Y-82485928D01*
X94091500Y-82485931D01*
X94091500Y-89218069D01*
X94091500Y-89218071D01*
X94091499Y-89218071D01*
X87105752Y-89218071D01*
X87172211Y-89087639D01*
X87228171Y-88915409D01*
X87242765Y-88823259D01*
X87256500Y-88736551D01*
X87256500Y-88555448D01*
X87240019Y-88451397D01*
X87228171Y-88376591D01*
X87172211Y-88204361D01*
X87172211Y-88204360D01*
X87116494Y-88095011D01*
X87089996Y-88043006D01*
X87076396Y-88024287D01*
X86983558Y-87896505D01*
X86983554Y-87896500D01*
X86855499Y-87768445D01*
X86855494Y-87768441D01*
X86708997Y-87662006D01*
X86708996Y-87662005D01*
X86708994Y-87662004D01*
X86657300Y-87635664D01*
X86547639Y-87579788D01*
X86547636Y-87579787D01*
X86375410Y-87523829D01*
X86196551Y-87495500D01*
X86196546Y-87495500D01*
X86015454Y-87495500D01*
X86015449Y-87495500D01*
X85836589Y-87523829D01*
X85664363Y-87579787D01*
X85664360Y-87579788D01*
X85503002Y-87662006D01*
X85356505Y-87768441D01*
X85356500Y-87768445D01*
X85228445Y-87896500D01*
X85228441Y-87896505D01*
X85122006Y-88043002D01*
X85039788Y-88204360D01*
X85039787Y-88204363D01*
X84983829Y-88376589D01*
X84955500Y-88555448D01*
X77208500Y-88555448D01*
X77208500Y-84588000D01*
X78400138Y-84588000D01*
X79193013Y-84588000D01*
X79189656Y-84589938D01*
X79131938Y-84647656D01*
X79091126Y-84718344D01*
X79070000Y-84797188D01*
X79070000Y-84878812D01*
X79091126Y-84957656D01*
X79131938Y-85028344D01*
X79189656Y-85086062D01*
X79193013Y-85088000D01*
X78400138Y-85088000D01*
X78408430Y-85129690D01*
X78408430Y-85129692D01*
X78483807Y-85311671D01*
X78483814Y-85311684D01*
X78593248Y-85475462D01*
X78593251Y-85475466D01*
X78732533Y-85614748D01*
X78732537Y-85614751D01*
X78896315Y-85724185D01*
X78896328Y-85724192D01*
X79078306Y-85799569D01*
X79078318Y-85799572D01*
X79271504Y-85837999D01*
X79271508Y-85838000D01*
X79420000Y-85838000D01*
X79420000Y-85148000D01*
X79920000Y-85148000D01*
X79920000Y-85838000D01*
X80068492Y-85838000D01*
X80068495Y-85837999D01*
X80261681Y-85799572D01*
X80261693Y-85799569D01*
X80443671Y-85724192D01*
X80443684Y-85724185D01*
X80607462Y-85614751D01*
X80607466Y-85614748D01*
X80746748Y-85475466D01*
X80746751Y-85475462D01*
X80856185Y-85311684D01*
X80856192Y-85311671D01*
X80931569Y-85129692D01*
X80931569Y-85129690D01*
X80939862Y-85088000D01*
X80146987Y-85088000D01*
X80150344Y-85086062D01*
X80208062Y-85028344D01*
X80248874Y-84957656D01*
X80270000Y-84878812D01*
X80270000Y-84797188D01*
X80248874Y-84718344D01*
X80208062Y-84647656D01*
X80150344Y-84589938D01*
X80146987Y-84588000D01*
X80939862Y-84588000D01*
X82330138Y-84588000D01*
X83123013Y-84588000D01*
X83119656Y-84589938D01*
X83061938Y-84647656D01*
X83021126Y-84718344D01*
X83000000Y-84797188D01*
X83000000Y-84878812D01*
X83021126Y-84957656D01*
X83061938Y-85028344D01*
X83119656Y-85086062D01*
X83123013Y-85088000D01*
X82330138Y-85088000D01*
X82338430Y-85129690D01*
X82338430Y-85129692D01*
X82413807Y-85311671D01*
X82413814Y-85311684D01*
X82523248Y-85475462D01*
X82523251Y-85475466D01*
X82662533Y-85614748D01*
X82662537Y-85614751D01*
X82826315Y-85724185D01*
X82826328Y-85724192D01*
X83008306Y-85799569D01*
X83008318Y-85799572D01*
X83201504Y-85837999D01*
X83201508Y-85838000D01*
X83600000Y-85838000D01*
X83600000Y-85148000D01*
X84100000Y-85148000D01*
X84100000Y-85838000D01*
X84498492Y-85838000D01*
X84498495Y-85837999D01*
X84691681Y-85799572D01*
X84691693Y-85799569D01*
X84873671Y-85724192D01*
X84873684Y-85724185D01*
X85037462Y-85614751D01*
X85037466Y-85614748D01*
X85176748Y-85475466D01*
X85176751Y-85475462D01*
X85286185Y-85311684D01*
X85286192Y-85311671D01*
X85361569Y-85129692D01*
X85361569Y-85129690D01*
X85369862Y-85088000D01*
X84576987Y-85088000D01*
X84580344Y-85086062D01*
X84638062Y-85028344D01*
X84678874Y-84957656D01*
X84700000Y-84878812D01*
X84700000Y-84797188D01*
X84678874Y-84718344D01*
X84638062Y-84647656D01*
X84580344Y-84589938D01*
X84576987Y-84588000D01*
X85369862Y-84588000D01*
X85361569Y-84546309D01*
X85361569Y-84546307D01*
X85286192Y-84364328D01*
X85286185Y-84364315D01*
X85176751Y-84200537D01*
X85176748Y-84200533D01*
X85037466Y-84061251D01*
X85037462Y-84061248D01*
X84873684Y-83951814D01*
X84873671Y-83951807D01*
X84691693Y-83876430D01*
X84691681Y-83876427D01*
X84498495Y-83838000D01*
X84100000Y-83838000D01*
X84100000Y-84528000D01*
X83600000Y-84528000D01*
X83600000Y-83982463D01*
X83619685Y-83915424D01*
X83662000Y-83875076D01*
X83673365Y-83868515D01*
X83780515Y-83761365D01*
X83781372Y-83759879D01*
X83801721Y-83724637D01*
X83844645Y-83650288D01*
X83856281Y-83630135D01*
X83895500Y-83483766D01*
X83895500Y-83332234D01*
X83856281Y-83185865D01*
X83780515Y-83054635D01*
X83673365Y-82947485D01*
X83607750Y-82909602D01*
X83542136Y-82871719D01*
X83468950Y-82852109D01*
X83395766Y-82832500D01*
X83244234Y-82832500D01*
X83097863Y-82871719D01*
X82966635Y-82947485D01*
X82966632Y-82947487D01*
X82859487Y-83054632D01*
X82859485Y-83054635D01*
X82783719Y-83185863D01*
X82766268Y-83250993D01*
X82744500Y-83332234D01*
X82744500Y-83483766D01*
X82755524Y-83524908D01*
X82783719Y-83630136D01*
X82807296Y-83670972D01*
X82859485Y-83761365D01*
X82859487Y-83761367D01*
X82864432Y-83767811D01*
X82861612Y-83769974D01*
X82887302Y-83817020D01*
X82882318Y-83886712D01*
X82840446Y-83942645D01*
X82831379Y-83948416D01*
X82831387Y-83948427D01*
X82662536Y-84061248D01*
X82523251Y-84200533D01*
X82523248Y-84200537D01*
X82413814Y-84364315D01*
X82413807Y-84364328D01*
X82338430Y-84546307D01*
X82338430Y-84546309D01*
X82330138Y-84588000D01*
X80939862Y-84588000D01*
X80931569Y-84546309D01*
X80931569Y-84546307D01*
X80856192Y-84364328D01*
X80856185Y-84364315D01*
X80746751Y-84200537D01*
X80746748Y-84200533D01*
X80607466Y-84061251D01*
X80607462Y-84061248D01*
X80443684Y-83951814D01*
X80443671Y-83951807D01*
X80261693Y-83876430D01*
X80261681Y-83876427D01*
X80068495Y-83838000D01*
X79920000Y-83838000D01*
X79920000Y-84528000D01*
X79420000Y-84528000D01*
X79420000Y-83838000D01*
X79271504Y-83838000D01*
X79078318Y-83876427D01*
X79078306Y-83876430D01*
X78896328Y-83951807D01*
X78896315Y-83951814D01*
X78732537Y-84061248D01*
X78732533Y-84061251D01*
X78593251Y-84200533D01*
X78593248Y-84200537D01*
X78483814Y-84364315D01*
X78483807Y-84364328D01*
X78408430Y-84546307D01*
X78408430Y-84546309D01*
X78400138Y-84588000D01*
X77208500Y-84588000D01*
X77208500Y-82095525D01*
X85809500Y-82095525D01*
X85809500Y-82240475D01*
X85841596Y-82360256D01*
X85847017Y-82380488D01*
X85919488Y-82506011D01*
X85919490Y-82506013D01*
X85919491Y-82506015D01*
X86021985Y-82608509D01*
X86021986Y-82608510D01*
X86021988Y-82608511D01*
X86147511Y-82680982D01*
X86147512Y-82680982D01*
X86147515Y-82680984D01*
X86287525Y-82718500D01*
X86292745Y-82718500D01*
X86322185Y-82727144D01*
X86352172Y-82733668D01*
X86357187Y-82737422D01*
X86359784Y-82738185D01*
X86380426Y-82754819D01*
X86431181Y-82805574D01*
X86464666Y-82866897D01*
X86467500Y-82893255D01*
X86467500Y-83644614D01*
X86447815Y-83711653D01*
X86431181Y-83732295D01*
X86427493Y-83735982D01*
X86427488Y-83735988D01*
X86355017Y-83861511D01*
X86355016Y-83861515D01*
X86317500Y-84001525D01*
X86317500Y-84146475D01*
X86349309Y-84265187D01*
X86355017Y-84286488D01*
X86427488Y-84412011D01*
X86427490Y-84412013D01*
X86427491Y-84412015D01*
X86529985Y-84514509D01*
X86529986Y-84514510D01*
X86529988Y-84514511D01*
X86655511Y-84586982D01*
X86655512Y-84586982D01*
X86655515Y-84586984D01*
X86795525Y-84624500D01*
X86795528Y-84624500D01*
X86940472Y-84624500D01*
X86940475Y-84624500D01*
X87080485Y-84586984D01*
X87206015Y-84514509D01*
X87308509Y-84412015D01*
X87380984Y-84286485D01*
X87418500Y-84146475D01*
X87418500Y-84001525D01*
X87380984Y-83861515D01*
X87330993Y-83774929D01*
X87308511Y-83735988D01*
X87308506Y-83735982D01*
X87304819Y-83732295D01*
X87271334Y-83670972D01*
X87268500Y-83644614D01*
X87268500Y-82623275D01*
X87268500Y-82623273D01*
X87241207Y-82521413D01*
X87188480Y-82430087D01*
X87113913Y-82355520D01*
X86946819Y-82188426D01*
X86913334Y-82127103D01*
X86910500Y-82100745D01*
X86910500Y-82095527D01*
X86910500Y-82095525D01*
X86872984Y-81955515D01*
X86818112Y-81860475D01*
X86800511Y-81829988D01*
X86800506Y-81829982D01*
X86698017Y-81727493D01*
X86698011Y-81727488D01*
X86572488Y-81655017D01*
X86572489Y-81655017D01*
X86561006Y-81651940D01*
X86432475Y-81617500D01*
X86287525Y-81617500D01*
X86158993Y-81651940D01*
X86147511Y-81655017D01*
X86021988Y-81727488D01*
X86021982Y-81727493D01*
X85919493Y-81829982D01*
X85919488Y-81829988D01*
X85847017Y-81955511D01*
X85847016Y-81955515D01*
X85809500Y-82095525D01*
X77208500Y-82095525D01*
X77208500Y-79175525D01*
X85809500Y-79175525D01*
X85809500Y-79320475D01*
X85847016Y-79460485D01*
X85847017Y-79460488D01*
X85919488Y-79586011D01*
X85919490Y-79586013D01*
X85919491Y-79586015D01*
X86021985Y-79688509D01*
X86147515Y-79760984D01*
X86195019Y-79773712D01*
X86254679Y-79810077D01*
X86285208Y-79872924D01*
X86282701Y-79925575D01*
X86279500Y-79937520D01*
X86279500Y-79937525D01*
X86279500Y-80082475D01*
X86309067Y-80192819D01*
X86317017Y-80222488D01*
X86389488Y-80348011D01*
X86389494Y-80348018D01*
X86406302Y-80364827D01*
X86439786Y-80426151D01*
X86434800Y-80495842D01*
X86406302Y-80540185D01*
X86389494Y-80556993D01*
X86389488Y-80557000D01*
X86317017Y-80682523D01*
X86317016Y-80682527D01*
X86279500Y-80822537D01*
X86279500Y-80967487D01*
X86317016Y-81107497D01*
X86317017Y-81107500D01*
X86389488Y-81233023D01*
X86389490Y-81233025D01*
X86389491Y-81233027D01*
X86491985Y-81335521D01*
X86491986Y-81335522D01*
X86491988Y-81335523D01*
X86617511Y-81407994D01*
X86617512Y-81407994D01*
X86617515Y-81407996D01*
X86757525Y-81445512D01*
X86757528Y-81445512D01*
X86902472Y-81445512D01*
X86902475Y-81445512D01*
X87042485Y-81407996D01*
X87168015Y-81335521D01*
X87270509Y-81233027D01*
X87321282Y-81145082D01*
X87340982Y-81119409D01*
X95141100Y-73319293D01*
X95193827Y-73227968D01*
X95221120Y-73126107D01*
X95221120Y-73020653D01*
X95221120Y-62779875D01*
X95229764Y-62750434D01*
X95236288Y-62720448D01*
X95240042Y-62715432D01*
X95240805Y-62712836D01*
X95257439Y-62692194D01*
X95312814Y-62636819D01*
X95374137Y-62603334D01*
X95400495Y-62600500D01*
X95405713Y-62600500D01*
X95405715Y-62600500D01*
X95455406Y-62587185D01*
X95525255Y-62588847D01*
X95583118Y-62628008D01*
X95610623Y-62692237D01*
X95611500Y-62706959D01*
X95611500Y-75057344D01*
X95591815Y-75124383D01*
X95539011Y-75170138D01*
X95469853Y-75180082D01*
X95455407Y-75177119D01*
X95373239Y-75155102D01*
X95322475Y-75141500D01*
X95177525Y-75141500D01*
X95070648Y-75170138D01*
X95037511Y-75179017D01*
X94911988Y-75251488D01*
X94911982Y-75251493D01*
X94809493Y-75353982D01*
X94809488Y-75353988D01*
X94737017Y-75479511D01*
X94737014Y-75479518D01*
X94713269Y-75568133D01*
X94681176Y-75623719D01*
X93149719Y-77155176D01*
X93094133Y-77187269D01*
X93005518Y-77211014D01*
X93005511Y-77211017D01*
X92879988Y-77283488D01*
X92879982Y-77283493D01*
X92777493Y-77385982D01*
X92777488Y-77385988D01*
X92705017Y-77511511D01*
X92705016Y-77511515D01*
X92667500Y-77651525D01*
X92667500Y-77796475D01*
X92705016Y-77936485D01*
X92705017Y-77936488D01*
X92777488Y-78062011D01*
X92777490Y-78062013D01*
X92777491Y-78062015D01*
X92879985Y-78164509D01*
X92879986Y-78164510D01*
X92879988Y-78164511D01*
X93005511Y-78236982D01*
X93005512Y-78236982D01*
X93005515Y-78236984D01*
X93145525Y-78274500D01*
X93145528Y-78274500D01*
X93290472Y-78274500D01*
X93290475Y-78274500D01*
X93430485Y-78236984D01*
X93556015Y-78164509D01*
X93658509Y-78062015D01*
X93730984Y-77936485D01*
X93754729Y-77847864D01*
X93786820Y-77792281D01*
X95318281Y-76260820D01*
X95332165Y-76252804D01*
X95341423Y-76242621D01*
X95373861Y-76228730D01*
X95455408Y-76206880D01*
X95525257Y-76208543D01*
X95583119Y-76247706D01*
X95610623Y-76311935D01*
X95611500Y-76326655D01*
X95611500Y-77522728D01*
X95614275Y-77533084D01*
X95618500Y-77565176D01*
X95618500Y-77571314D01*
X95618500Y-77676769D01*
X95625734Y-77703765D01*
X95645793Y-77778628D01*
X95645794Y-77778631D01*
X95698521Y-77869956D01*
X95783291Y-77954726D01*
X95783297Y-77954731D01*
X95783301Y-77954734D01*
X95838189Y-78009622D01*
X95838192Y-78009626D01*
X95987009Y-78158443D01*
X95987034Y-78158471D01*
X96366308Y-78537745D01*
X96366343Y-78537775D01*
X98538996Y-80710431D01*
X98538998Y-80710434D01*
X98613565Y-80785001D01*
X98613567Y-80785002D01*
X98914045Y-81085480D01*
X99005370Y-81138207D01*
X99107231Y-81165500D01*
X99107232Y-81165500D01*
X99254273Y-81165500D01*
X99522272Y-81165500D01*
X101375745Y-81165500D01*
X101442784Y-81185185D01*
X101463426Y-81201819D01*
X101757926Y-81496319D01*
X101791411Y-81557642D01*
X101786427Y-81627334D01*
X101744555Y-81683267D01*
X101679091Y-81707684D01*
X101670245Y-81708000D01*
X101596000Y-81708000D01*
X101596000Y-82624988D01*
X101538993Y-82592075D01*
X101411826Y-82558000D01*
X101280174Y-82558000D01*
X101153007Y-82592075D01*
X101096000Y-82624988D01*
X101096000Y-81708000D01*
X100448155Y-81708000D01*
X100388627Y-81714401D01*
X100388620Y-81714403D01*
X100253913Y-81764645D01*
X100253906Y-81764649D01*
X100138812Y-81850809D01*
X100138809Y-81850812D01*
X100052649Y-81965906D01*
X100052645Y-81965913D01*
X100002403Y-82100620D01*
X100002401Y-82100627D01*
X99996000Y-82160155D01*
X99996000Y-82808000D01*
X100912988Y-82808000D01*
X100880075Y-82865007D01*
X100846000Y-82992174D01*
X100846000Y-83123826D01*
X100880075Y-83250993D01*
X100912988Y-83308000D01*
X99996000Y-83308000D01*
X99996000Y-83955844D01*
X100002401Y-84015372D01*
X100002403Y-84015379D01*
X100052645Y-84150086D01*
X100052649Y-84150093D01*
X100138809Y-84265187D01*
X100138812Y-84265190D01*
X100253906Y-84351350D01*
X100253913Y-84351354D01*
X100388620Y-84401596D01*
X100388627Y-84401598D01*
X100448155Y-84407999D01*
X100448172Y-84408000D01*
X101096000Y-84408000D01*
X101096000Y-83491012D01*
X101153007Y-83523925D01*
X101280174Y-83558000D01*
X101411826Y-83558000D01*
X101538993Y-83523925D01*
X101596000Y-83491012D01*
X101596000Y-84408000D01*
X102243828Y-84408000D01*
X102243844Y-84407999D01*
X102303372Y-84401598D01*
X102303379Y-84401596D01*
X102438086Y-84351354D01*
X102438093Y-84351350D01*
X102553187Y-84265190D01*
X102553190Y-84265187D01*
X102639350Y-84150093D01*
X102639354Y-84150086D01*
X102689596Y-84015379D01*
X102689598Y-84015372D01*
X102695999Y-83955844D01*
X102696000Y-83955827D01*
X102696000Y-83663050D01*
X102715685Y-83596011D01*
X102768489Y-83550256D01*
X102837647Y-83540312D01*
X102901203Y-83569337D01*
X102930485Y-83606756D01*
X102944766Y-83634786D01*
X102971057Y-83670972D01*
X103046586Y-83774928D01*
X103169072Y-83897414D01*
X103309212Y-83999232D01*
X103463555Y-84077873D01*
X103628299Y-84131402D01*
X103799389Y-84158500D01*
X103799390Y-84158500D01*
X103972610Y-84158500D01*
X103972611Y-84158500D01*
X104143701Y-84131402D01*
X104308445Y-84077873D01*
X104462788Y-83999232D01*
X104602928Y-83897414D01*
X104725414Y-83774928D01*
X104827232Y-83634788D01*
X104905873Y-83480445D01*
X104959402Y-83315701D01*
X104986500Y-83144611D01*
X104986500Y-82971389D01*
X104959402Y-82800299D01*
X104905873Y-82635555D01*
X104827232Y-82481212D01*
X104725414Y-82341072D01*
X104602928Y-82218586D01*
X104462788Y-82116768D01*
X104321392Y-82044724D01*
X104308447Y-82038128D01*
X104308446Y-82038127D01*
X104308445Y-82038127D01*
X104143701Y-81984598D01*
X104143699Y-81984597D01*
X104143698Y-81984597D01*
X104012271Y-81963781D01*
X103972611Y-81957500D01*
X103799389Y-81957500D01*
X103767192Y-81962599D01*
X103628301Y-81984597D01*
X103628297Y-81984598D01*
X103512397Y-82022256D01*
X103442556Y-82024251D01*
X103386399Y-81992006D01*
X102270574Y-80876181D01*
X102237089Y-80814858D01*
X102242073Y-80745166D01*
X102283945Y-80689233D01*
X102349409Y-80664816D01*
X102358255Y-80664500D01*
X103414745Y-80664500D01*
X103481784Y-80684185D01*
X103502426Y-80700819D01*
X105360006Y-82558399D01*
X105393491Y-82619722D01*
X105390256Y-82684397D01*
X105352598Y-82800297D01*
X105352597Y-82800301D01*
X105341286Y-82871719D01*
X105325500Y-82971389D01*
X105325500Y-83144611D01*
X105352598Y-83315701D01*
X105406127Y-83480445D01*
X105484768Y-83634788D01*
X105586586Y-83774928D01*
X105709072Y-83897414D01*
X105849212Y-83999232D01*
X106003555Y-84077873D01*
X106168299Y-84131402D01*
X106339389Y-84158500D01*
X106339390Y-84158500D01*
X106512610Y-84158500D01*
X106512611Y-84158500D01*
X106683701Y-84131402D01*
X106848445Y-84077873D01*
X107002788Y-83999232D01*
X107142928Y-83897414D01*
X107265414Y-83774928D01*
X107367232Y-83634788D01*
X107445873Y-83480445D01*
X107499402Y-83315701D01*
X107526500Y-83144611D01*
X107526500Y-82971389D01*
X107499402Y-82800299D01*
X107445873Y-82635555D01*
X107367232Y-82481212D01*
X107265414Y-82341072D01*
X107142928Y-82218586D01*
X107002788Y-82116768D01*
X106861392Y-82044724D01*
X106848447Y-82038128D01*
X106848446Y-82038127D01*
X106848445Y-82038127D01*
X106683701Y-81984598D01*
X106683699Y-81984597D01*
X106683698Y-81984597D01*
X106552271Y-81963781D01*
X106512611Y-81957500D01*
X106339389Y-81957500D01*
X106307192Y-81962599D01*
X106168301Y-81984597D01*
X106168297Y-81984598D01*
X106052397Y-82022256D01*
X105982556Y-82024251D01*
X105926399Y-81992006D01*
X104302574Y-80368181D01*
X104269089Y-80306858D01*
X104274073Y-80237166D01*
X104315945Y-80181233D01*
X104381409Y-80156816D01*
X104390255Y-80156500D01*
X105446745Y-80156500D01*
X105513784Y-80176185D01*
X105534426Y-80192819D01*
X107900006Y-82558399D01*
X107933491Y-82619722D01*
X107930256Y-82684397D01*
X107892598Y-82800297D01*
X107892597Y-82800301D01*
X107881286Y-82871719D01*
X107865500Y-82971389D01*
X107865500Y-83144611D01*
X107892598Y-83315701D01*
X107946127Y-83480445D01*
X108024768Y-83634788D01*
X108126586Y-83774928D01*
X108249072Y-83897414D01*
X108389212Y-83999232D01*
X108543555Y-84077873D01*
X108708299Y-84131402D01*
X108879389Y-84158500D01*
X108879390Y-84158500D01*
X109052610Y-84158500D01*
X109052611Y-84158500D01*
X109223701Y-84131402D01*
X109388445Y-84077873D01*
X109542788Y-83999232D01*
X109682928Y-83897414D01*
X109805414Y-83774928D01*
X109907232Y-83634788D01*
X109985873Y-83480445D01*
X110039402Y-83315701D01*
X110066500Y-83144611D01*
X110066500Y-82971389D01*
X110039402Y-82800299D01*
X109985873Y-82635555D01*
X109907232Y-82481212D01*
X109805414Y-82341072D01*
X109682928Y-82218586D01*
X109542788Y-82116768D01*
X109401392Y-82044724D01*
X109388447Y-82038128D01*
X109388446Y-82038127D01*
X109388445Y-82038127D01*
X109223701Y-81984598D01*
X109223699Y-81984597D01*
X109223698Y-81984597D01*
X109092271Y-81963781D01*
X109052611Y-81957500D01*
X108879389Y-81957500D01*
X108847192Y-81962599D01*
X108708301Y-81984597D01*
X108708297Y-81984598D01*
X108592397Y-82022256D01*
X108522556Y-82024251D01*
X108466399Y-81992006D01*
X106334574Y-79860181D01*
X106301089Y-79798858D01*
X106306073Y-79729166D01*
X106347945Y-79673233D01*
X106413409Y-79648816D01*
X106422255Y-79648500D01*
X107478745Y-79648500D01*
X107545784Y-79668185D01*
X107566426Y-79684819D01*
X109012556Y-81130949D01*
X110440006Y-82558398D01*
X110473491Y-82619721D01*
X110470256Y-82684396D01*
X110432598Y-82800297D01*
X110432597Y-82800301D01*
X110421286Y-82871719D01*
X110405500Y-82971389D01*
X110405500Y-83144611D01*
X110432598Y-83315701D01*
X110486127Y-83480445D01*
X110564768Y-83634788D01*
X110666586Y-83774928D01*
X110789072Y-83897414D01*
X110929212Y-83999232D01*
X111083555Y-84077873D01*
X111248299Y-84131402D01*
X111419389Y-84158500D01*
X111419390Y-84158500D01*
X111592610Y-84158500D01*
X111592611Y-84158500D01*
X111763701Y-84131402D01*
X111928445Y-84077873D01*
X112082788Y-83999232D01*
X112222928Y-83897414D01*
X112345414Y-83774928D01*
X112447232Y-83634788D01*
X112525873Y-83480445D01*
X112579402Y-83315701D01*
X112606500Y-83144611D01*
X112606500Y-82971389D01*
X112579402Y-82800299D01*
X112525873Y-82635555D01*
X112447232Y-82481212D01*
X112345414Y-82341072D01*
X112222928Y-82218586D01*
X112082788Y-82116768D01*
X111941392Y-82044724D01*
X111928447Y-82038128D01*
X111928446Y-82038127D01*
X111928445Y-82038127D01*
X111763701Y-81984598D01*
X111763699Y-81984597D01*
X111763698Y-81984597D01*
X111632271Y-81963781D01*
X111592611Y-81957500D01*
X111419389Y-81957500D01*
X111387192Y-81962599D01*
X111248301Y-81984597D01*
X111248297Y-81984598D01*
X111132396Y-82022256D01*
X111062555Y-82024251D01*
X111006398Y-81992006D01*
X108366574Y-79352181D01*
X108333089Y-79290858D01*
X108338073Y-79221166D01*
X108379945Y-79165233D01*
X108445409Y-79140816D01*
X108454255Y-79140500D01*
X109510745Y-79140500D01*
X109577784Y-79160185D01*
X109598426Y-79176819D01*
X112980006Y-82558399D01*
X113013491Y-82619722D01*
X113010256Y-82684397D01*
X112972598Y-82800297D01*
X112972597Y-82800301D01*
X112961286Y-82871719D01*
X112945500Y-82971389D01*
X112945500Y-83144611D01*
X112972598Y-83315701D01*
X113026127Y-83480445D01*
X113104768Y-83634788D01*
X113206586Y-83774928D01*
X113329072Y-83897414D01*
X113469212Y-83999232D01*
X113623555Y-84077873D01*
X113788299Y-84131402D01*
X113959389Y-84158500D01*
X113959390Y-84158500D01*
X114132610Y-84158500D01*
X114132611Y-84158500D01*
X114303701Y-84131402D01*
X114468445Y-84077873D01*
X114622788Y-83999232D01*
X114762928Y-83897414D01*
X114885414Y-83774928D01*
X114987232Y-83634788D01*
X115065873Y-83480445D01*
X115119402Y-83315701D01*
X115146500Y-83144611D01*
X115146500Y-82971389D01*
X115119402Y-82800299D01*
X115065873Y-82635555D01*
X114987232Y-82481212D01*
X114885414Y-82341072D01*
X114762928Y-82218586D01*
X114622788Y-82116768D01*
X114481392Y-82044724D01*
X114468447Y-82038128D01*
X114468446Y-82038127D01*
X114468445Y-82038127D01*
X114303701Y-81984598D01*
X114303699Y-81984597D01*
X114303698Y-81984597D01*
X114172271Y-81963781D01*
X114132611Y-81957500D01*
X113959389Y-81957500D01*
X113927192Y-81962599D01*
X113788301Y-81984597D01*
X113788297Y-81984598D01*
X113672397Y-82022256D01*
X113602556Y-82024251D01*
X113546399Y-81992006D01*
X109973915Y-78419522D01*
X109973913Y-78419520D01*
X109928250Y-78393156D01*
X109882589Y-78366793D01*
X109831657Y-78353146D01*
X109780727Y-78339500D01*
X109780726Y-78339500D01*
X100225775Y-78339500D01*
X100158736Y-78319815D01*
X100138094Y-78303181D01*
X98459819Y-76624906D01*
X98426334Y-76563583D01*
X98423500Y-76537225D01*
X98423500Y-75556155D01*
X99996000Y-75556155D01*
X99996000Y-76204000D01*
X100912988Y-76204000D01*
X100880075Y-76261007D01*
X100846000Y-76388174D01*
X100846000Y-76519826D01*
X100880075Y-76646993D01*
X100912988Y-76704000D01*
X99996000Y-76704000D01*
X99996000Y-77351844D01*
X100002401Y-77411372D01*
X100002403Y-77411379D01*
X100052645Y-77546086D01*
X100052649Y-77546093D01*
X100138809Y-77661187D01*
X100138812Y-77661190D01*
X100253906Y-77747350D01*
X100253913Y-77747354D01*
X100388620Y-77797596D01*
X100388627Y-77797598D01*
X100448155Y-77803999D01*
X100448172Y-77804000D01*
X101096000Y-77804000D01*
X101096000Y-76887012D01*
X101153007Y-76919925D01*
X101280174Y-76954000D01*
X101411826Y-76954000D01*
X101538993Y-76919925D01*
X101596000Y-76887012D01*
X101596000Y-77804000D01*
X102243828Y-77804000D01*
X102243844Y-77803999D01*
X102303372Y-77797598D01*
X102303379Y-77797596D01*
X102438086Y-77747354D01*
X102438093Y-77747350D01*
X102553187Y-77661190D01*
X102553190Y-77661187D01*
X102639350Y-77546093D01*
X102639354Y-77546086D01*
X102689596Y-77411379D01*
X102689598Y-77411372D01*
X102695999Y-77351844D01*
X102696000Y-77351827D01*
X102696000Y-77059050D01*
X102715685Y-76992011D01*
X102768489Y-76946256D01*
X102837647Y-76936312D01*
X102901203Y-76965337D01*
X102930485Y-77002756D01*
X102944766Y-77030786D01*
X102975357Y-77072890D01*
X103046586Y-77170928D01*
X103169072Y-77293414D01*
X103309212Y-77395232D01*
X103463555Y-77473873D01*
X103628299Y-77527402D01*
X103799389Y-77554500D01*
X103799390Y-77554500D01*
X103972610Y-77554500D01*
X103972611Y-77554500D01*
X104143701Y-77527402D01*
X104308445Y-77473873D01*
X104462788Y-77395232D01*
X104602928Y-77293414D01*
X104725414Y-77170928D01*
X104827232Y-77030788D01*
X104905873Y-76876445D01*
X104959402Y-76711701D01*
X104986500Y-76540611D01*
X104986500Y-76367389D01*
X105325500Y-76367389D01*
X105325500Y-76540611D01*
X105329138Y-76563583D01*
X105343660Y-76655273D01*
X105352598Y-76711701D01*
X105406127Y-76876445D01*
X105484768Y-77030788D01*
X105586586Y-77170928D01*
X105709072Y-77293414D01*
X105849212Y-77395232D01*
X106003555Y-77473873D01*
X106168299Y-77527402D01*
X106339389Y-77554500D01*
X106339390Y-77554500D01*
X106512610Y-77554500D01*
X106512611Y-77554500D01*
X106683701Y-77527402D01*
X106848445Y-77473873D01*
X107002788Y-77395232D01*
X107142928Y-77293414D01*
X107265414Y-77170928D01*
X107367232Y-77030788D01*
X107445873Y-76876445D01*
X107499402Y-76711701D01*
X107526500Y-76540611D01*
X107526500Y-76367389D01*
X107865500Y-76367389D01*
X107865500Y-76540611D01*
X107869138Y-76563583D01*
X107883660Y-76655273D01*
X107892598Y-76711701D01*
X107946127Y-76876445D01*
X108024768Y-77030788D01*
X108126586Y-77170928D01*
X108249072Y-77293414D01*
X108389212Y-77395232D01*
X108543555Y-77473873D01*
X108708299Y-77527402D01*
X108879389Y-77554500D01*
X108879390Y-77554500D01*
X109052610Y-77554500D01*
X109052611Y-77554500D01*
X109223701Y-77527402D01*
X109388445Y-77473873D01*
X109542788Y-77395232D01*
X109682928Y-77293414D01*
X109805414Y-77170928D01*
X109907232Y-77030788D01*
X109985873Y-76876445D01*
X110039402Y-76711701D01*
X110066500Y-76540611D01*
X110066500Y-76367389D01*
X110039402Y-76196299D01*
X109985873Y-76031555D01*
X109907232Y-75877212D01*
X109805414Y-75737072D01*
X109682928Y-75614586D01*
X109542788Y-75512768D01*
X109388445Y-75434127D01*
X109223701Y-75380598D01*
X109223699Y-75380597D01*
X109223698Y-75380597D01*
X109092271Y-75359781D01*
X109052611Y-75353500D01*
X108879389Y-75353500D01*
X108839728Y-75359781D01*
X108708302Y-75380597D01*
X108543552Y-75434128D01*
X108389211Y-75512768D01*
X108323469Y-75560533D01*
X108249072Y-75614586D01*
X108249070Y-75614588D01*
X108249069Y-75614588D01*
X108126588Y-75737069D01*
X108126588Y-75737070D01*
X108126586Y-75737072D01*
X108082859Y-75797256D01*
X108024768Y-75877211D01*
X107946128Y-76031552D01*
X107892597Y-76196302D01*
X107882349Y-76261007D01*
X107865500Y-76367389D01*
X107526500Y-76367389D01*
X107499402Y-76196299D01*
X107445873Y-76031555D01*
X107367232Y-75877212D01*
X107265414Y-75737072D01*
X107142928Y-75614586D01*
X107002788Y-75512768D01*
X106848445Y-75434127D01*
X106683701Y-75380598D01*
X106683699Y-75380597D01*
X106683698Y-75380597D01*
X106552271Y-75359781D01*
X106512611Y-75353500D01*
X106339389Y-75353500D01*
X106299728Y-75359781D01*
X106168302Y-75380597D01*
X106003552Y-75434128D01*
X105849211Y-75512768D01*
X105783469Y-75560533D01*
X105709072Y-75614586D01*
X105709070Y-75614588D01*
X105709069Y-75614588D01*
X105586588Y-75737069D01*
X105586588Y-75737070D01*
X105586586Y-75737072D01*
X105542859Y-75797256D01*
X105484768Y-75877211D01*
X105406128Y-76031552D01*
X105352597Y-76196302D01*
X105342349Y-76261007D01*
X105325500Y-76367389D01*
X104986500Y-76367389D01*
X104959402Y-76196299D01*
X104905873Y-76031555D01*
X104827232Y-75877212D01*
X104725414Y-75737072D01*
X104602928Y-75614586D01*
X104462788Y-75512768D01*
X104308445Y-75434127D01*
X104143701Y-75380598D01*
X104143699Y-75380597D01*
X104143698Y-75380597D01*
X104012271Y-75359781D01*
X103972611Y-75353500D01*
X103799389Y-75353500D01*
X103759728Y-75359781D01*
X103628302Y-75380597D01*
X103463552Y-75434128D01*
X103309211Y-75512768D01*
X103243469Y-75560533D01*
X103169072Y-75614586D01*
X103169070Y-75614588D01*
X103169069Y-75614588D01*
X103046588Y-75737069D01*
X103046588Y-75737070D01*
X103046586Y-75737072D01*
X103002859Y-75797256D01*
X102944768Y-75877211D01*
X102930485Y-75905244D01*
X102882510Y-75956040D01*
X102814689Y-75972835D01*
X102748554Y-75950297D01*
X102705103Y-75895582D01*
X102696000Y-75848949D01*
X102696000Y-75556172D01*
X102695999Y-75556155D01*
X102689598Y-75496627D01*
X102689596Y-75496620D01*
X102639354Y-75361913D01*
X102639350Y-75361906D01*
X102553190Y-75246812D01*
X102553187Y-75246809D01*
X102438093Y-75160649D01*
X102438086Y-75160645D01*
X102303379Y-75110403D01*
X102303372Y-75110401D01*
X102243844Y-75104000D01*
X101596000Y-75104000D01*
X101596000Y-76020988D01*
X101538993Y-75988075D01*
X101411826Y-75954000D01*
X101280174Y-75954000D01*
X101153007Y-75988075D01*
X101096000Y-76020988D01*
X101096000Y-75104000D01*
X100448155Y-75104000D01*
X100388627Y-75110401D01*
X100388620Y-75110403D01*
X100253913Y-75160645D01*
X100253906Y-75160649D01*
X100138812Y-75246809D01*
X100138809Y-75246812D01*
X100052649Y-75361906D01*
X100052645Y-75361913D01*
X100002403Y-75496620D01*
X100002401Y-75496627D01*
X99996000Y-75556155D01*
X98423500Y-75556155D01*
X98423500Y-63738255D01*
X98443185Y-63671216D01*
X98459819Y-63650574D01*
X103103574Y-59006819D01*
X103164897Y-58973334D01*
X103191255Y-58970500D01*
X103196472Y-58970500D01*
X103196475Y-58970500D01*
X103336485Y-58932984D01*
X103462015Y-58860509D01*
X103564509Y-58758015D01*
X103636984Y-58632485D01*
X103674500Y-58492475D01*
X103674500Y-58347525D01*
X103636984Y-58207515D01*
X103599957Y-58143383D01*
X103564511Y-58081988D01*
X103564506Y-58081982D01*
X103462017Y-57979493D01*
X103462011Y-57979488D01*
X103336488Y-57907017D01*
X103336489Y-57907017D01*
X103325006Y-57903940D01*
X103196475Y-57869500D01*
X103051525Y-57869500D01*
X102922993Y-57903940D01*
X102911511Y-57907017D01*
X102785988Y-57979488D01*
X102785982Y-57979493D01*
X102683493Y-58081982D01*
X102683488Y-58081988D01*
X102611017Y-58207511D01*
X102611015Y-58207516D01*
X102608774Y-58215881D01*
X102572409Y-58275541D01*
X102509561Y-58306069D01*
X102440186Y-58297774D01*
X102386309Y-58253288D01*
X102369226Y-58215881D01*
X102366984Y-58207516D01*
X102366982Y-58207511D01*
X102294511Y-58081988D01*
X102294506Y-58081982D01*
X102192017Y-57979493D01*
X102192011Y-57979488D01*
X102066488Y-57907017D01*
X102066489Y-57907017D01*
X102055006Y-57903940D01*
X101926475Y-57869500D01*
X101781525Y-57869500D01*
X101652993Y-57903940D01*
X101641511Y-57907017D01*
X101515988Y-57979488D01*
X101515982Y-57979493D01*
X101413493Y-58081982D01*
X101413488Y-58081988D01*
X101341017Y-58207511D01*
X101341015Y-58207516D01*
X101338774Y-58215881D01*
X101302409Y-58275541D01*
X101239561Y-58306069D01*
X101170186Y-58297774D01*
X101116309Y-58253288D01*
X101099226Y-58215881D01*
X101096984Y-58207516D01*
X101096982Y-58207511D01*
X101024511Y-58081988D01*
X101024506Y-58081982D01*
X100922017Y-57979493D01*
X100922011Y-57979488D01*
X100796488Y-57907017D01*
X100796489Y-57907017D01*
X100785006Y-57903940D01*
X100656475Y-57869500D01*
X100511525Y-57869500D01*
X100382993Y-57903940D01*
X100371511Y-57907017D01*
X100245988Y-57979488D01*
X100245982Y-57979493D01*
X100143493Y-58081982D01*
X100143488Y-58081988D01*
X100071017Y-58207511D01*
X100071015Y-58207516D01*
X100068774Y-58215881D01*
X100032409Y-58275541D01*
X99969561Y-58306069D01*
X99900186Y-58297774D01*
X99846309Y-58253288D01*
X99829226Y-58215881D01*
X99826984Y-58207516D01*
X99826982Y-58207511D01*
X99754511Y-58081988D01*
X99754506Y-58081982D01*
X99652017Y-57979493D01*
X99652011Y-57979488D01*
X99526488Y-57907017D01*
X99526489Y-57907017D01*
X99515006Y-57903940D01*
X99386475Y-57869500D01*
X99241525Y-57869500D01*
X99112993Y-57903940D01*
X99101511Y-57907017D01*
X98975988Y-57979488D01*
X98975982Y-57979493D01*
X98873493Y-58081982D01*
X98873488Y-58081988D01*
X98801017Y-58207511D01*
X98801015Y-58207516D01*
X98798774Y-58215881D01*
X98762409Y-58275541D01*
X98699561Y-58306069D01*
X98630186Y-58297774D01*
X98576309Y-58253288D01*
X98559226Y-58215881D01*
X98556984Y-58207516D01*
X98556982Y-58207511D01*
X98484511Y-58081988D01*
X98484506Y-58081982D01*
X98382017Y-57979493D01*
X98382011Y-57979488D01*
X98256488Y-57907017D01*
X98256489Y-57907017D01*
X98245006Y-57903940D01*
X98116475Y-57869500D01*
X97971525Y-57869500D01*
X97842993Y-57903940D01*
X97831511Y-57907017D01*
X97705988Y-57979488D01*
X97705982Y-57979493D01*
X97603493Y-58081982D01*
X97603488Y-58081988D01*
X97531017Y-58207511D01*
X97531016Y-58207515D01*
X97493500Y-58347525D01*
X97493500Y-58347527D01*
X97493500Y-58352745D01*
X97473815Y-58419784D01*
X97457181Y-58440426D01*
X95691522Y-60206084D01*
X95691518Y-60206090D01*
X95638792Y-60297412D01*
X95638793Y-60297413D01*
X95611500Y-60399273D01*
X95611500Y-60579344D01*
X95591815Y-60646383D01*
X95539011Y-60692138D01*
X95469853Y-60702082D01*
X95455407Y-60699119D01*
X95373239Y-60677102D01*
X95322475Y-60663500D01*
X95177525Y-60663500D01*
X95070648Y-60692138D01*
X95037511Y-60701017D01*
X94911988Y-60773488D01*
X94911982Y-60773493D01*
X94809493Y-60875982D01*
X94809488Y-60875988D01*
X94737017Y-61001511D01*
X94737016Y-61001515D01*
X94699500Y-61141525D01*
X94699500Y-61141527D01*
X94699500Y-61146745D01*
X94679815Y-61213784D01*
X94663181Y-61234426D01*
X93659522Y-62238084D01*
X93659520Y-62238087D01*
X93606791Y-62329414D01*
X93591091Y-62388013D01*
X93579500Y-62431271D01*
X93579500Y-72642744D01*
X93559815Y-72709783D01*
X93543181Y-72730425D01*
X87102008Y-79171597D01*
X87040685Y-79205082D01*
X86970993Y-79200098D01*
X86915060Y-79158226D01*
X86894553Y-79116013D01*
X86872984Y-79035515D01*
X86800509Y-78909985D01*
X86796819Y-78906295D01*
X86763334Y-78844972D01*
X86760500Y-78818614D01*
X86760500Y-77076671D01*
X86780185Y-77009632D01*
X86822500Y-76969284D01*
X86826482Y-76966984D01*
X86826485Y-76966984D01*
X86952015Y-76894509D01*
X87054509Y-76792015D01*
X87126984Y-76666485D01*
X87164500Y-76526475D01*
X87164500Y-76381525D01*
X87126984Y-76241515D01*
X87125423Y-76238812D01*
X87054511Y-76115988D01*
X87054506Y-76115982D01*
X86952017Y-76013493D01*
X86952011Y-76013488D01*
X86826488Y-75941017D01*
X86826489Y-75941017D01*
X86815006Y-75937940D01*
X86686475Y-75903500D01*
X86541525Y-75903500D01*
X86412993Y-75937940D01*
X86401511Y-75941017D01*
X86275988Y-76013488D01*
X86275982Y-76013493D01*
X86173493Y-76115982D01*
X86173488Y-76115988D01*
X86101017Y-76241511D01*
X86101016Y-76241515D01*
X86063500Y-76381525D01*
X86063500Y-76381527D01*
X86063500Y-76388743D01*
X86043815Y-76455782D01*
X86040155Y-76460987D01*
X85986793Y-76553411D01*
X85963185Y-76641516D01*
X85963186Y-76641517D01*
X85959500Y-76655273D01*
X85959500Y-78818614D01*
X85939815Y-78885653D01*
X85923181Y-78906295D01*
X85919493Y-78909982D01*
X85919488Y-78909988D01*
X85847017Y-79035511D01*
X85847016Y-79035515D01*
X85809500Y-79175525D01*
X77208500Y-79175525D01*
X77208500Y-75948000D01*
X78400138Y-75948000D01*
X79193013Y-75948000D01*
X79189656Y-75949938D01*
X79131938Y-76007656D01*
X79091126Y-76078344D01*
X79070000Y-76157188D01*
X79070000Y-76238812D01*
X79091126Y-76317656D01*
X79131938Y-76388344D01*
X79189656Y-76446062D01*
X79193013Y-76448000D01*
X78400138Y-76448000D01*
X78408430Y-76489690D01*
X78408430Y-76489692D01*
X78483807Y-76671671D01*
X78483814Y-76671684D01*
X78593248Y-76835462D01*
X78593251Y-76835466D01*
X78732533Y-76974748D01*
X78732537Y-76974751D01*
X78896315Y-77084185D01*
X78896328Y-77084192D01*
X79078306Y-77159569D01*
X79078318Y-77159572D01*
X79271504Y-77197999D01*
X79271508Y-77198000D01*
X79420000Y-77198000D01*
X79420000Y-76508000D01*
X79920000Y-76508000D01*
X79920000Y-77198000D01*
X80068492Y-77198000D01*
X80068495Y-77197999D01*
X80261681Y-77159572D01*
X80261693Y-77159569D01*
X80443671Y-77084192D01*
X80443684Y-77084185D01*
X80607462Y-76974751D01*
X80607466Y-76974748D01*
X80746748Y-76835466D01*
X80746751Y-76835462D01*
X80856185Y-76671684D01*
X80856192Y-76671671D01*
X80931569Y-76489692D01*
X80931569Y-76489690D01*
X80939862Y-76448000D01*
X80146987Y-76448000D01*
X80150344Y-76446062D01*
X80208062Y-76388344D01*
X80248874Y-76317656D01*
X80270000Y-76238812D01*
X80270000Y-76157188D01*
X80248874Y-76078344D01*
X80208062Y-76007656D01*
X80150344Y-75949938D01*
X80146987Y-75948000D01*
X80939862Y-75948000D01*
X82330138Y-75948000D01*
X83123013Y-75948000D01*
X83119656Y-75949938D01*
X83061938Y-76007656D01*
X83021126Y-76078344D01*
X83000000Y-76157188D01*
X83000000Y-76238812D01*
X83021126Y-76317656D01*
X83061938Y-76388344D01*
X83119656Y-76446062D01*
X83123013Y-76448000D01*
X82330138Y-76448000D01*
X82338430Y-76489690D01*
X82338430Y-76489692D01*
X82413807Y-76671671D01*
X82413814Y-76671684D01*
X82523248Y-76835462D01*
X82523251Y-76835466D01*
X82662533Y-76974748D01*
X82662537Y-76974751D01*
X82831387Y-77087574D01*
X82830430Y-77089005D01*
X82874425Y-77132211D01*
X82889895Y-77200346D01*
X82866072Y-77266029D01*
X82864309Y-77268094D01*
X82864432Y-77268189D01*
X82859485Y-77274635D01*
X82783719Y-77405863D01*
X82744500Y-77552234D01*
X82744500Y-77703765D01*
X82783719Y-77850136D01*
X82821602Y-77915750D01*
X82859485Y-77981365D01*
X82966635Y-78088515D01*
X83080281Y-78154129D01*
X83096399Y-78163435D01*
X83097865Y-78164281D01*
X83244234Y-78203500D01*
X83244236Y-78203500D01*
X83395764Y-78203500D01*
X83395766Y-78203500D01*
X83542135Y-78164281D01*
X83673365Y-78088515D01*
X83780515Y-77981365D01*
X83856281Y-77850135D01*
X83895500Y-77703766D01*
X83895500Y-77552234D01*
X83856281Y-77405865D01*
X83780515Y-77274635D01*
X83673365Y-77167485D01*
X83661998Y-77160922D01*
X83613783Y-77110354D01*
X83600000Y-77053536D01*
X83600000Y-76508000D01*
X84100000Y-76508000D01*
X84100000Y-77198000D01*
X84498492Y-77198000D01*
X84498495Y-77197999D01*
X84691681Y-77159572D01*
X84691693Y-77159569D01*
X84873671Y-77084192D01*
X84873684Y-77084185D01*
X85037462Y-76974751D01*
X85037466Y-76974748D01*
X85176748Y-76835466D01*
X85176751Y-76835462D01*
X85286185Y-76671684D01*
X85286192Y-76671671D01*
X85361569Y-76489692D01*
X85361569Y-76489690D01*
X85369862Y-76448000D01*
X84576987Y-76448000D01*
X84580344Y-76446062D01*
X84638062Y-76388344D01*
X84678874Y-76317656D01*
X84700000Y-76238812D01*
X84700000Y-76157188D01*
X84678874Y-76078344D01*
X84638062Y-76007656D01*
X84580344Y-75949938D01*
X84576987Y-75948000D01*
X85369862Y-75948000D01*
X85361569Y-75906309D01*
X85361569Y-75906307D01*
X85286192Y-75724328D01*
X85286185Y-75724315D01*
X85176751Y-75560537D01*
X85176748Y-75560533D01*
X85037466Y-75421251D01*
X85037462Y-75421248D01*
X84873684Y-75311814D01*
X84873671Y-75311807D01*
X84691693Y-75236430D01*
X84691681Y-75236427D01*
X84498495Y-75198000D01*
X84100000Y-75198000D01*
X84100000Y-75888000D01*
X83600000Y-75888000D01*
X83600000Y-75198000D01*
X83201504Y-75198000D01*
X83008318Y-75236427D01*
X83008306Y-75236430D01*
X82826328Y-75311807D01*
X82826315Y-75311814D01*
X82662537Y-75421248D01*
X82662533Y-75421251D01*
X82523251Y-75560533D01*
X82523248Y-75560537D01*
X82413814Y-75724315D01*
X82413807Y-75724328D01*
X82338430Y-75906307D01*
X82338430Y-75906309D01*
X82330138Y-75948000D01*
X80939862Y-75948000D01*
X80931569Y-75906309D01*
X80931569Y-75906307D01*
X80856192Y-75724328D01*
X80856185Y-75724315D01*
X80746751Y-75560537D01*
X80746748Y-75560533D01*
X80607466Y-75421251D01*
X80607462Y-75421248D01*
X80443684Y-75311814D01*
X80443671Y-75311807D01*
X80261693Y-75236430D01*
X80261681Y-75236427D01*
X80068495Y-75198000D01*
X79920000Y-75198000D01*
X79920000Y-75888000D01*
X79420000Y-75888000D01*
X79420000Y-75198000D01*
X79271504Y-75198000D01*
X79078318Y-75236427D01*
X79078306Y-75236430D01*
X78896328Y-75311807D01*
X78896315Y-75311814D01*
X78732537Y-75421248D01*
X78732533Y-75421251D01*
X78593251Y-75560533D01*
X78593248Y-75560537D01*
X78483814Y-75724315D01*
X78483807Y-75724328D01*
X78408430Y-75906307D01*
X78408430Y-75906309D01*
X78400138Y-75948000D01*
X77208500Y-75948000D01*
X77208500Y-65885000D01*
X78382500Y-65885000D01*
X78382500Y-67211007D01*
X78385644Y-67250952D01*
X78385646Y-67250973D01*
X78390488Y-67281553D01*
X78394404Y-67301237D01*
X78436140Y-67391771D01*
X78436143Y-67391776D01*
X78472094Y-67441259D01*
X78472100Y-67441267D01*
X78472102Y-67441270D01*
X78472105Y-67441273D01*
X78512876Y-67485378D01*
X78512878Y-67485379D01*
X78599851Y-67534085D01*
X78599854Y-67534086D01*
X78599857Y-67534088D01*
X78658048Y-67552995D01*
X78737000Y-67565500D01*
X80749129Y-67565500D01*
X80816168Y-67585185D01*
X80843391Y-67608935D01*
X81990476Y-68951043D01*
X83082240Y-70228426D01*
X83088138Y-70235326D01*
X83108953Y-70256966D01*
X83117493Y-70264857D01*
X83126027Y-70272743D01*
X83133495Y-70279378D01*
X83153366Y-70290506D01*
X83220470Y-70328085D01*
X83220473Y-70328086D01*
X83220476Y-70328088D01*
X83278667Y-70346995D01*
X83357619Y-70359500D01*
X83357620Y-70359500D01*
X90504829Y-70359500D01*
X90571868Y-70379185D01*
X90617623Y-70431989D01*
X90627567Y-70501147D01*
X90598542Y-70564703D01*
X90561124Y-70593985D01*
X90464644Y-70643143D01*
X90420077Y-70675523D01*
X90420077Y-70675524D01*
X91099554Y-71355000D01*
X91093339Y-71355000D01*
X90991606Y-71382259D01*
X90900394Y-71434920D01*
X90825920Y-71509394D01*
X90773259Y-71600606D01*
X90746000Y-71702339D01*
X90746000Y-71708553D01*
X90066524Y-71029077D01*
X90066523Y-71029077D01*
X90034143Y-71073644D01*
X89941244Y-71255968D01*
X89938431Y-71264629D01*
X89898993Y-71322304D01*
X89834634Y-71349502D01*
X89765788Y-71337587D01*
X89714312Y-71290342D01*
X89696500Y-71226310D01*
X89696500Y-70930323D01*
X89696499Y-70930321D01*
X89681967Y-70857264D01*
X89681966Y-70857260D01*
X89626601Y-70774399D01*
X89543740Y-70719034D01*
X89543739Y-70719033D01*
X89543735Y-70719032D01*
X89470677Y-70704500D01*
X89470674Y-70704500D01*
X87821326Y-70704500D01*
X87821323Y-70704500D01*
X87748264Y-70719032D01*
X87748260Y-70719033D01*
X87665399Y-70774399D01*
X87610033Y-70857260D01*
X87610032Y-70857264D01*
X87595500Y-70930321D01*
X87595500Y-72579678D01*
X87610032Y-72652735D01*
X87610033Y-72652739D01*
X87610034Y-72652740D01*
X87665399Y-72735601D01*
X87708040Y-72764092D01*
X87748260Y-72790966D01*
X87748264Y-72790967D01*
X87821321Y-72805499D01*
X87821324Y-72805500D01*
X87821326Y-72805500D01*
X89470676Y-72805500D01*
X89470677Y-72805499D01*
X89543740Y-72790966D01*
X89626601Y-72735601D01*
X89681966Y-72652740D01*
X89696500Y-72579674D01*
X89696500Y-72283689D01*
X89716185Y-72216650D01*
X89768989Y-72170895D01*
X89838147Y-72160951D01*
X89901703Y-72189976D01*
X89938431Y-72245372D01*
X89941243Y-72254028D01*
X90034141Y-72436350D01*
X90034147Y-72436359D01*
X90066523Y-72480921D01*
X90066524Y-72480922D01*
X90746000Y-71801446D01*
X90746000Y-71807661D01*
X90773259Y-71909394D01*
X90825920Y-72000606D01*
X90900394Y-72075080D01*
X90991606Y-72127741D01*
X91093339Y-72155000D01*
X91099553Y-72155000D01*
X90420076Y-72834474D01*
X90464650Y-72866859D01*
X90646968Y-72959755D01*
X90841582Y-73022990D01*
X91043683Y-73055000D01*
X91248317Y-73055000D01*
X91450417Y-73022990D01*
X91645031Y-72959755D01*
X91827349Y-72866859D01*
X91871921Y-72834474D01*
X91192447Y-72155000D01*
X91198661Y-72155000D01*
X91300394Y-72127741D01*
X91391606Y-72075080D01*
X91466080Y-72000606D01*
X91518741Y-71909394D01*
X91546000Y-71807661D01*
X91546000Y-71801447D01*
X92225474Y-72480921D01*
X92257859Y-72436349D01*
X92350755Y-72254031D01*
X92413990Y-72059417D01*
X92446000Y-71857317D01*
X92446000Y-71652682D01*
X92413990Y-71450582D01*
X92350755Y-71255968D01*
X92257859Y-71073650D01*
X92225474Y-71029077D01*
X92225474Y-71029076D01*
X91546000Y-71708551D01*
X91546000Y-71702339D01*
X91518741Y-71600606D01*
X91466080Y-71509394D01*
X91391606Y-71434920D01*
X91300394Y-71382259D01*
X91198661Y-71355000D01*
X91192446Y-71355000D01*
X91871922Y-70675524D01*
X91871921Y-70675523D01*
X91827359Y-70643147D01*
X91827350Y-70643141D01*
X91645027Y-70550242D01*
X91596369Y-70534432D01*
X91538694Y-70494994D01*
X91511497Y-70430635D01*
X91523413Y-70361789D01*
X91570658Y-70310314D01*
X91578378Y-70306025D01*
X91584988Y-70302658D01*
X91649662Y-70255670D01*
X92861670Y-69043662D01*
X92875290Y-69028928D01*
X92885379Y-69017115D01*
X92934088Y-68930135D01*
X92952995Y-68871944D01*
X92965500Y-68792992D01*
X92965500Y-64302023D01*
X92964874Y-64284152D01*
X92963905Y-64270332D01*
X92938624Y-64176100D01*
X92928571Y-64155511D01*
X92911780Y-64121121D01*
X92865899Y-64055655D01*
X91652905Y-62800637D01*
X91652902Y-62800634D01*
X91636772Y-62785337D01*
X91636763Y-62785329D01*
X91623814Y-62774077D01*
X91622127Y-62772622D01*
X91622125Y-62772621D01*
X91535150Y-62723914D01*
X91535141Y-62723910D01*
X91476955Y-62705005D01*
X91437478Y-62698752D01*
X91398002Y-62692500D01*
X83006876Y-62692500D01*
X82966031Y-62695786D01*
X82966029Y-62695786D01*
X82966018Y-62695787D01*
X82934796Y-62700844D01*
X82914265Y-62705038D01*
X82824027Y-62747399D01*
X82774773Y-62783708D01*
X82718639Y-62840625D01*
X82718635Y-62840629D01*
X80829794Y-65478688D01*
X80774762Y-65521736D01*
X80728973Y-65530500D01*
X78736992Y-65530500D01*
X78697047Y-65533644D01*
X78697043Y-65533644D01*
X78697035Y-65533645D01*
X78697032Y-65533645D01*
X78697026Y-65533646D01*
X78666446Y-65538488D01*
X78646762Y-65542404D01*
X78556228Y-65584140D01*
X78556223Y-65584143D01*
X78506740Y-65620094D01*
X78506732Y-65620100D01*
X78462622Y-65660876D01*
X78462620Y-65660878D01*
X78413914Y-65747851D01*
X78413910Y-65747860D01*
X78395005Y-65806046D01*
X78382500Y-65885000D01*
X77208500Y-65885000D01*
X77208500Y-42599525D01*
X79967500Y-42599525D01*
X79967500Y-49915525D01*
X79967500Y-56968475D01*
X80002012Y-57097273D01*
X80002011Y-57097273D01*
X80002012Y-57097275D01*
X80005014Y-57108482D01*
X80005016Y-57108485D01*
X80077490Y-57234015D01*
X80433985Y-57590510D01*
X80559515Y-57662984D01*
X80699525Y-57700500D01*
X80699528Y-57700500D01*
X80844472Y-57700500D01*
X80844475Y-57700500D01*
X80984485Y-57662984D01*
X81110015Y-57590510D01*
X81212510Y-57488015D01*
X81284984Y-57362485D01*
X81291944Y-57336509D01*
X81322500Y-57222475D01*
X81322500Y-57077525D01*
X81284984Y-56937515D01*
X81212510Y-56811985D01*
X81104819Y-56704294D01*
X81071334Y-56642971D01*
X81068500Y-56616613D01*
X81068500Y-51108525D01*
X94826500Y-51108525D01*
X94826500Y-51253475D01*
X94848345Y-51335000D01*
X94864017Y-51393488D01*
X94936488Y-51519011D01*
X94936490Y-51519013D01*
X94936491Y-51519015D01*
X95038985Y-51621509D01*
X95038986Y-51621510D01*
X95038988Y-51621511D01*
X95164511Y-51693982D01*
X95164512Y-51693982D01*
X95164515Y-51693984D01*
X95304525Y-51731500D01*
X95304528Y-51731500D01*
X95449472Y-51731500D01*
X95449475Y-51731500D01*
X95589485Y-51693984D01*
X95668936Y-51648112D01*
X95730936Y-51631500D01*
X105807672Y-51631500D01*
X105874711Y-51651185D01*
X105920466Y-51703989D01*
X105930410Y-51773147D01*
X105901385Y-51836703D01*
X105869672Y-51862887D01*
X105833988Y-51883489D01*
X105833982Y-51883493D01*
X105731493Y-51985982D01*
X105731488Y-51985988D01*
X105659017Y-52111511D01*
X105659016Y-52111515D01*
X105621500Y-52251525D01*
X105621500Y-52396475D01*
X105659016Y-52536485D01*
X105659017Y-52536488D01*
X105731488Y-52662011D01*
X105731493Y-52662017D01*
X105735181Y-52665705D01*
X105768666Y-52727028D01*
X105771500Y-52753386D01*
X105771500Y-66880614D01*
X105751815Y-66947653D01*
X105735181Y-66968295D01*
X105731493Y-66971982D01*
X105731488Y-66971988D01*
X105659017Y-67097511D01*
X105659016Y-67097515D01*
X105621500Y-67237525D01*
X105621500Y-67237527D01*
X105621500Y-67242745D01*
X105601815Y-67309784D01*
X105585181Y-67330426D01*
X104835522Y-68080084D01*
X104835520Y-68080087D01*
X104782791Y-68171414D01*
X104762115Y-68248584D01*
X104762115Y-68248585D01*
X104759456Y-68258511D01*
X104755500Y-68273273D01*
X104755500Y-71575273D01*
X104755500Y-71680727D01*
X104764579Y-71714610D01*
X104782793Y-71782589D01*
X104797269Y-71807661D01*
X104835520Y-71873913D01*
X105724130Y-72762523D01*
X106609179Y-73647571D01*
X106609189Y-73647582D01*
X106613519Y-73651912D01*
X106613520Y-73651913D01*
X106688087Y-73726480D01*
X106779413Y-73779207D01*
X106881273Y-73806501D01*
X106881275Y-73806501D01*
X106994323Y-73806501D01*
X106994339Y-73806500D01*
X109510745Y-73806500D01*
X109577784Y-73826185D01*
X109598426Y-73842819D01*
X111033212Y-75277604D01*
X111066697Y-75338927D01*
X111061713Y-75408619D01*
X111019841Y-75464552D01*
X111001825Y-75475770D01*
X110929213Y-75512766D01*
X110831174Y-75583996D01*
X110789072Y-75614586D01*
X110789070Y-75614588D01*
X110789069Y-75614588D01*
X110666588Y-75737069D01*
X110666588Y-75737070D01*
X110666586Y-75737072D01*
X110622859Y-75797256D01*
X110564768Y-75877211D01*
X110486128Y-76031552D01*
X110432597Y-76196302D01*
X110422349Y-76261007D01*
X110405500Y-76367389D01*
X110405500Y-76540611D01*
X110409138Y-76563583D01*
X110423660Y-76655273D01*
X110432598Y-76711701D01*
X110486127Y-76876445D01*
X110564768Y-77030788D01*
X110666586Y-77170928D01*
X110789072Y-77293414D01*
X110929212Y-77395232D01*
X111083555Y-77473873D01*
X111248299Y-77527402D01*
X111419389Y-77554500D01*
X111419390Y-77554500D01*
X111592610Y-77554500D01*
X111592611Y-77554500D01*
X111763701Y-77527402D01*
X111928445Y-77473873D01*
X112082788Y-77395232D01*
X112222928Y-77293414D01*
X112345414Y-77170928D01*
X112447232Y-77030788D01*
X112525873Y-76876445D01*
X112579402Y-76711701D01*
X112606500Y-76540611D01*
X112606500Y-76367389D01*
X112579402Y-76196299D01*
X112525873Y-76031555D01*
X112447232Y-75877212D01*
X112345414Y-75737072D01*
X112222928Y-75614586D01*
X112116709Y-75537413D01*
X112082786Y-75512766D01*
X111974206Y-75457443D01*
X111963141Y-75446993D01*
X111949297Y-75440671D01*
X111938256Y-75423491D01*
X111923409Y-75409469D01*
X111919167Y-75393787D01*
X111911523Y-75381893D01*
X111906500Y-75346958D01*
X111906500Y-75246729D01*
X111906501Y-75246716D01*
X111906501Y-75131274D01*
X111879206Y-75029410D01*
X111879204Y-75029407D01*
X111860184Y-74996464D01*
X111860183Y-74996463D01*
X111855009Y-74987501D01*
X111826480Y-74938087D01*
X111751913Y-74863520D01*
X111751910Y-74863518D01*
X111740594Y-74852202D01*
X111303638Y-74415245D01*
X111270153Y-74353922D01*
X111275137Y-74284230D01*
X111317009Y-74228297D01*
X111382473Y-74203880D01*
X111423413Y-74207790D01*
X111433525Y-74210500D01*
X111433527Y-74210500D01*
X111578472Y-74210500D01*
X111578475Y-74210500D01*
X111718485Y-74172984D01*
X111844015Y-74100509D01*
X111946509Y-73998015D01*
X112018984Y-73872485D01*
X112056500Y-73732475D01*
X112056500Y-73587525D01*
X112018984Y-73447515D01*
X111946509Y-73321985D01*
X111844015Y-73219491D01*
X111844013Y-73219490D01*
X111844011Y-73219488D01*
X111718488Y-73147017D01*
X111718489Y-73147017D01*
X111707006Y-73143940D01*
X111578475Y-73109500D01*
X111578472Y-73109500D01*
X111573255Y-73109500D01*
X111506216Y-73089815D01*
X111485574Y-73073181D01*
X109806819Y-71394426D01*
X109773334Y-71333103D01*
X109770500Y-71306745D01*
X109770500Y-71301527D01*
X109770500Y-71301525D01*
X109732984Y-71161515D01*
X109669300Y-71051212D01*
X109660511Y-71035988D01*
X109660506Y-71035982D01*
X109558017Y-70933493D01*
X109558011Y-70933488D01*
X109432488Y-70861017D01*
X109432489Y-70861017D01*
X109421006Y-70857940D01*
X109292475Y-70823500D01*
X109292472Y-70823500D01*
X109287255Y-70823500D01*
X109220216Y-70803815D01*
X109199574Y-70787181D01*
X108640819Y-70228426D01*
X108607334Y-70167103D01*
X108604500Y-70140745D01*
X108604500Y-68507525D01*
X112479500Y-68507525D01*
X112479500Y-68652475D01*
X112517016Y-68792485D01*
X112562887Y-68871936D01*
X112579500Y-68933935D01*
X112579500Y-75497311D01*
X112590245Y-75537413D01*
X112590246Y-75537413D01*
X112610201Y-75611887D01*
X112669511Y-75714614D01*
X112669513Y-75714616D01*
X112962665Y-76007768D01*
X112996150Y-76069091D01*
X112992915Y-76133767D01*
X112972598Y-76196294D01*
X112972598Y-76196297D01*
X112962349Y-76261007D01*
X112945500Y-76367389D01*
X112945500Y-76540611D01*
X112949138Y-76563583D01*
X112963660Y-76655273D01*
X112972598Y-76711701D01*
X113026127Y-76876445D01*
X113104768Y-77030788D01*
X113206586Y-77170928D01*
X113329072Y-77293414D01*
X113469212Y-77395232D01*
X113623555Y-77473873D01*
X113788299Y-77527402D01*
X113959389Y-77554500D01*
X113959390Y-77554500D01*
X114132610Y-77554500D01*
X114132611Y-77554500D01*
X114303701Y-77527402D01*
X114468445Y-77473873D01*
X114622788Y-77395232D01*
X114762928Y-77293414D01*
X114885414Y-77170928D01*
X114987232Y-77030788D01*
X115065873Y-76876445D01*
X115119402Y-76711701D01*
X115146500Y-76540611D01*
X115146500Y-76367389D01*
X115119402Y-76196299D01*
X115065873Y-76031555D01*
X114987232Y-75877212D01*
X114885414Y-75737072D01*
X114762928Y-75614586D01*
X114622788Y-75512768D01*
X114468445Y-75434127D01*
X114303701Y-75380598D01*
X114303699Y-75380597D01*
X114303698Y-75380597D01*
X114172271Y-75359781D01*
X114132611Y-75353500D01*
X113959389Y-75353500D01*
X113906316Y-75361906D01*
X113788297Y-75380598D01*
X113788294Y-75380598D01*
X113725767Y-75400915D01*
X113710554Y-75401349D01*
X113696295Y-75406668D01*
X113676339Y-75402326D01*
X113655926Y-75402910D01*
X113641839Y-75394821D01*
X113628022Y-75391816D01*
X113599768Y-75370665D01*
X113516819Y-75287716D01*
X113483334Y-75226393D01*
X113480500Y-75200035D01*
X113480500Y-68933935D01*
X113497112Y-68871936D01*
X113542984Y-68792485D01*
X113580500Y-68652475D01*
X113580500Y-68507525D01*
X113542984Y-68367515D01*
X113540901Y-68363908D01*
X113470511Y-68241988D01*
X113470506Y-68241982D01*
X113368017Y-68139493D01*
X113368011Y-68139488D01*
X113242488Y-68067017D01*
X113242489Y-68067017D01*
X113231006Y-68063940D01*
X113102475Y-68029500D01*
X112957525Y-68029500D01*
X112828993Y-68063940D01*
X112817511Y-68067017D01*
X112691988Y-68139488D01*
X112691982Y-68139493D01*
X112589493Y-68241982D01*
X112589488Y-68241988D01*
X112517017Y-68367511D01*
X112517016Y-68367515D01*
X112479500Y-68507525D01*
X108604500Y-68507525D01*
X108604500Y-67491525D01*
X110193500Y-67491525D01*
X110193500Y-67636475D01*
X110222721Y-67745527D01*
X110231017Y-67776488D01*
X110303488Y-67902011D01*
X110303490Y-67902013D01*
X110303491Y-67902015D01*
X110405985Y-68004509D01*
X110405986Y-68004510D01*
X110405988Y-68004511D01*
X110531511Y-68076982D01*
X110531512Y-68076982D01*
X110531515Y-68076984D01*
X110671525Y-68114500D01*
X110671528Y-68114500D01*
X110816472Y-68114500D01*
X110816475Y-68114500D01*
X110956485Y-68076984D01*
X111082015Y-68004509D01*
X111184509Y-67902015D01*
X111256984Y-67776485D01*
X111280729Y-67687864D01*
X111312820Y-67632281D01*
X113637821Y-65307281D01*
X113699142Y-65273798D01*
X113768834Y-65278782D01*
X113824767Y-65320654D01*
X113849184Y-65386118D01*
X113849500Y-65394964D01*
X113849500Y-71687309D01*
X113865550Y-71747207D01*
X113875030Y-71782589D01*
X113880202Y-71801889D01*
X113892736Y-71823598D01*
X113939511Y-71904614D01*
X113939513Y-71904616D01*
X114493176Y-72458280D01*
X114525269Y-72513866D01*
X114549014Y-72602481D01*
X114549017Y-72602488D01*
X114621488Y-72728011D01*
X114621490Y-72728013D01*
X114621491Y-72728015D01*
X114723985Y-72830509D01*
X114723986Y-72830510D01*
X114723988Y-72830511D01*
X114849511Y-72902982D01*
X114849512Y-72902982D01*
X114849515Y-72902984D01*
X114989525Y-72940500D01*
X114989528Y-72940500D01*
X115134472Y-72940500D01*
X115134475Y-72940500D01*
X115274485Y-72902984D01*
X115400015Y-72830509D01*
X115502509Y-72728015D01*
X115574984Y-72602485D01*
X115612500Y-72462475D01*
X115612500Y-72317525D01*
X115574984Y-72177515D01*
X115536292Y-72110500D01*
X115519820Y-72042600D01*
X115542672Y-71976573D01*
X115597593Y-71933383D01*
X115643680Y-71924500D01*
X115754472Y-71924500D01*
X115754475Y-71924500D01*
X115894485Y-71886984D01*
X116020015Y-71814509D01*
X116023705Y-71810819D01*
X116085028Y-71777334D01*
X116111386Y-71774500D01*
X118924725Y-71774500D01*
X118924727Y-71774500D01*
X119026588Y-71747207D01*
X119117913Y-71694480D01*
X119271004Y-71541389D01*
X127169500Y-71541389D01*
X127169500Y-71714610D01*
X127194730Y-71873912D01*
X127196598Y-71885701D01*
X127250127Y-72050445D01*
X127328768Y-72204788D01*
X127430586Y-72344928D01*
X127553072Y-72467414D01*
X127693212Y-72569232D01*
X127847555Y-72647873D01*
X128012299Y-72701402D01*
X128183389Y-72728500D01*
X128183390Y-72728500D01*
X128356610Y-72728500D01*
X128356611Y-72728500D01*
X128527701Y-72701402D01*
X128692445Y-72647873D01*
X128846788Y-72569232D01*
X128986928Y-72467414D01*
X129109414Y-72344928D01*
X129211232Y-72204788D01*
X129289873Y-72050445D01*
X129343402Y-71885701D01*
X129370500Y-71714611D01*
X129370500Y-71541389D01*
X129343402Y-71370299D01*
X129289873Y-71205555D01*
X129211232Y-71051212D01*
X129109414Y-70911072D01*
X128986928Y-70788586D01*
X128846788Y-70686768D01*
X128692445Y-70608127D01*
X128527701Y-70554598D01*
X128527699Y-70554597D01*
X128527698Y-70554597D01*
X128390478Y-70532864D01*
X128356611Y-70527500D01*
X128183389Y-70527500D01*
X128149522Y-70532864D01*
X128012302Y-70554597D01*
X127847552Y-70608128D01*
X127693211Y-70686768D01*
X127613256Y-70744859D01*
X127553072Y-70788586D01*
X127553070Y-70788588D01*
X127553069Y-70788588D01*
X127430588Y-70911069D01*
X127430588Y-70911070D01*
X127430586Y-70911072D01*
X127416597Y-70930326D01*
X127328768Y-71051211D01*
X127250128Y-71205552D01*
X127196597Y-71370302D01*
X127169500Y-71541389D01*
X119271004Y-71541389D01*
X121811004Y-69001389D01*
X127169500Y-69001389D01*
X127169500Y-69174611D01*
X127196598Y-69345701D01*
X127250127Y-69510445D01*
X127328768Y-69664788D01*
X127430586Y-69804928D01*
X127553072Y-69927414D01*
X127693212Y-70029232D01*
X127847555Y-70107873D01*
X128012299Y-70161402D01*
X128183389Y-70188500D01*
X128183390Y-70188500D01*
X128356610Y-70188500D01*
X128356611Y-70188500D01*
X128527701Y-70161402D01*
X128692445Y-70107873D01*
X128846788Y-70029232D01*
X128986928Y-69927414D01*
X129109414Y-69804928D01*
X129211232Y-69664788D01*
X129289873Y-69510445D01*
X129343402Y-69345701D01*
X129370500Y-69174611D01*
X129370500Y-69001389D01*
X129343402Y-68830299D01*
X129289873Y-68665555D01*
X129211232Y-68511212D01*
X129109414Y-68371072D01*
X128986928Y-68248586D01*
X128846788Y-68146768D01*
X128692445Y-68068127D01*
X128527701Y-68014598D01*
X128527699Y-68014597D01*
X128527698Y-68014597D01*
X128396271Y-67993781D01*
X128356611Y-67987500D01*
X128183389Y-67987500D01*
X128143728Y-67993781D01*
X128012302Y-68014597D01*
X127847552Y-68068128D01*
X127693211Y-68146768D01*
X127606899Y-68209477D01*
X127553072Y-68248586D01*
X127553069Y-68248588D01*
X127430588Y-68371069D01*
X127430588Y-68371070D01*
X127430586Y-68371072D01*
X127411062Y-68397945D01*
X127328768Y-68511211D01*
X127250128Y-68665552D01*
X127196597Y-68830302D01*
X127176906Y-68954629D01*
X127169500Y-69001389D01*
X121811004Y-69001389D01*
X124780480Y-66031913D01*
X124826793Y-65951697D01*
X124833206Y-65940588D01*
X124833207Y-65940587D01*
X124860500Y-65838727D01*
X124860500Y-65673321D01*
X127169500Y-65673321D01*
X127169500Y-67422678D01*
X127184032Y-67495735D01*
X127184033Y-67495739D01*
X127184034Y-67495740D01*
X127239399Y-67578601D01*
X127284798Y-67608935D01*
X127322260Y-67633966D01*
X127322264Y-67633967D01*
X127395321Y-67648499D01*
X127395324Y-67648500D01*
X127395326Y-67648500D01*
X129144676Y-67648500D01*
X129144677Y-67648499D01*
X129217740Y-67633966D01*
X129300601Y-67578601D01*
X129355966Y-67495740D01*
X129370500Y-67422674D01*
X129370500Y-65673326D01*
X129370500Y-65673323D01*
X129370499Y-65673321D01*
X129355967Y-65600264D01*
X129355966Y-65600260D01*
X129345195Y-65584140D01*
X129300601Y-65517399D01*
X129217740Y-65462034D01*
X129217739Y-65462033D01*
X129217735Y-65462032D01*
X129144677Y-65447500D01*
X129144674Y-65447500D01*
X127395326Y-65447500D01*
X127395323Y-65447500D01*
X127322264Y-65462032D01*
X127322260Y-65462033D01*
X127239399Y-65517399D01*
X127184033Y-65600260D01*
X127184032Y-65600264D01*
X127169500Y-65673321D01*
X124860500Y-65673321D01*
X124860500Y-53150321D01*
X135093500Y-53150321D01*
X135093500Y-54799678D01*
X135108032Y-54872735D01*
X135108033Y-54872739D01*
X135108034Y-54872740D01*
X135163399Y-54955601D01*
X135246260Y-55010966D01*
X135246264Y-55010967D01*
X135319321Y-55025499D01*
X135319324Y-55025500D01*
X135319326Y-55025500D01*
X136968676Y-55025500D01*
X136968677Y-55025499D01*
X137041740Y-55010966D01*
X137124601Y-54955601D01*
X137179966Y-54872740D01*
X137194500Y-54799674D01*
X137194500Y-54503689D01*
X137214185Y-54436650D01*
X137266989Y-54390895D01*
X137336147Y-54380951D01*
X137399703Y-54409976D01*
X137436431Y-54465372D01*
X137439243Y-54474028D01*
X137532141Y-54656350D01*
X137532147Y-54656359D01*
X137564523Y-54700921D01*
X137564524Y-54700922D01*
X138244000Y-54021446D01*
X138244000Y-54027661D01*
X138271259Y-54129394D01*
X138323920Y-54220606D01*
X138398394Y-54295080D01*
X138489606Y-54347741D01*
X138591339Y-54375000D01*
X138597553Y-54375000D01*
X137918076Y-55054474D01*
X137962650Y-55086859D01*
X138144968Y-55179755D01*
X138339582Y-55242990D01*
X138541683Y-55275000D01*
X138746317Y-55275000D01*
X138948417Y-55242990D01*
X139143031Y-55179755D01*
X139325349Y-55086859D01*
X139369921Y-55054474D01*
X138690447Y-54375000D01*
X138696661Y-54375000D01*
X138798394Y-54347741D01*
X138889606Y-54295080D01*
X138964080Y-54220606D01*
X139016741Y-54129394D01*
X139044000Y-54027661D01*
X139044000Y-54021448D01*
X139723474Y-54700922D01*
X139723474Y-54700921D01*
X139755859Y-54656349D01*
X139848755Y-54474031D01*
X139911990Y-54279417D01*
X139944000Y-54077317D01*
X139944000Y-53872682D01*
X139911990Y-53670582D01*
X139848755Y-53475968D01*
X139755859Y-53293650D01*
X139723474Y-53249077D01*
X139723474Y-53249076D01*
X139044000Y-53928551D01*
X139044000Y-53922339D01*
X139016741Y-53820606D01*
X138964080Y-53729394D01*
X138889606Y-53654920D01*
X138798394Y-53602259D01*
X138696661Y-53575000D01*
X138690446Y-53575000D01*
X139369922Y-52895524D01*
X139369921Y-52895523D01*
X139325359Y-52863147D01*
X139325350Y-52863141D01*
X139143031Y-52770244D01*
X138948417Y-52707009D01*
X138746317Y-52675000D01*
X138541683Y-52675000D01*
X138339582Y-52707009D01*
X138144968Y-52770244D01*
X137962644Y-52863143D01*
X137918077Y-52895523D01*
X137918077Y-52895524D01*
X138597554Y-53575000D01*
X138591339Y-53575000D01*
X138489606Y-53602259D01*
X138398394Y-53654920D01*
X138323920Y-53729394D01*
X138271259Y-53820606D01*
X138244000Y-53922339D01*
X138244000Y-53928553D01*
X137564524Y-53249077D01*
X137564523Y-53249077D01*
X137532143Y-53293644D01*
X137439244Y-53475968D01*
X137436431Y-53484629D01*
X137396993Y-53542304D01*
X137332634Y-53569502D01*
X137263788Y-53557587D01*
X137212312Y-53510342D01*
X137194500Y-53446310D01*
X137194500Y-53150323D01*
X137194499Y-53150321D01*
X137179967Y-53077264D01*
X137179966Y-53077262D01*
X137179966Y-53077260D01*
X137124601Y-52994399D01*
X137041740Y-52939034D01*
X137041739Y-52939033D01*
X137041735Y-52939032D01*
X136968677Y-52924500D01*
X136968674Y-52924500D01*
X135319326Y-52924500D01*
X135319323Y-52924500D01*
X135246264Y-52939032D01*
X135246260Y-52939033D01*
X135163399Y-52994399D01*
X135108033Y-53077260D01*
X135108032Y-53077264D01*
X135093500Y-53150321D01*
X124860500Y-53150321D01*
X124860500Y-51559986D01*
X160591001Y-51559986D01*
X160601494Y-51662697D01*
X160656641Y-51829119D01*
X160656643Y-51829124D01*
X160748684Y-51978345D01*
X160872654Y-52102315D01*
X161021875Y-52194356D01*
X161021880Y-52194358D01*
X161188302Y-52249505D01*
X161188309Y-52249506D01*
X161291019Y-52259999D01*
X162690999Y-52259999D01*
X162691000Y-52259998D01*
X162691000Y-51335000D01*
X160591001Y-51335000D01*
X160591001Y-51559986D01*
X124860500Y-51559986D01*
X124860500Y-50610013D01*
X160591000Y-50610013D01*
X160591000Y-50835000D01*
X162691000Y-50835000D01*
X162691000Y-49910000D01*
X161291028Y-49910000D01*
X161291012Y-49910001D01*
X161188302Y-49920494D01*
X161021880Y-49975641D01*
X161021875Y-49975643D01*
X160872654Y-50067684D01*
X160748684Y-50191654D01*
X160656643Y-50340875D01*
X160656641Y-50340880D01*
X160601494Y-50507302D01*
X160601493Y-50507309D01*
X160591000Y-50610013D01*
X124860500Y-50610013D01*
X124860500Y-46699255D01*
X124880185Y-46632216D01*
X124896819Y-46611574D01*
X125598407Y-45909986D01*
X160591001Y-45909986D01*
X160601494Y-46012697D01*
X160656641Y-46179119D01*
X160656643Y-46179124D01*
X160748684Y-46328345D01*
X160872654Y-46452315D01*
X161021875Y-46544356D01*
X161021880Y-46544358D01*
X161188302Y-46599505D01*
X161188309Y-46599506D01*
X161291019Y-46609999D01*
X162690999Y-46609999D01*
X162691000Y-46609998D01*
X162691000Y-45685000D01*
X160591001Y-45685000D01*
X160591001Y-45909986D01*
X125598407Y-45909986D01*
X126548380Y-44960013D01*
X160591000Y-44960013D01*
X160591000Y-45185000D01*
X162691000Y-45185000D01*
X162691000Y-44260000D01*
X161291028Y-44260000D01*
X161291012Y-44260001D01*
X161188302Y-44270494D01*
X161021880Y-44325641D01*
X161021875Y-44325643D01*
X160872654Y-44417684D01*
X160748684Y-44541654D01*
X160656643Y-44690875D01*
X160656641Y-44690880D01*
X160601494Y-44857302D01*
X160601493Y-44857309D01*
X160591000Y-44960013D01*
X126548380Y-44960013D01*
X128653574Y-42854819D01*
X128714897Y-42821334D01*
X128741255Y-42818500D01*
X131142614Y-42818500D01*
X131209653Y-42838185D01*
X131230295Y-42854819D01*
X131233985Y-42858509D01*
X131233986Y-42858510D01*
X131233988Y-42858511D01*
X131359511Y-42930982D01*
X131359512Y-42930982D01*
X131359515Y-42930984D01*
X131499525Y-42968500D01*
X131499528Y-42968500D01*
X131644472Y-42968500D01*
X131644475Y-42968500D01*
X131784485Y-42930984D01*
X131910015Y-42858509D01*
X132012509Y-42756015D01*
X132084984Y-42630485D01*
X132122500Y-42490475D01*
X132122500Y-42345525D01*
X132084984Y-42205515D01*
X132012509Y-42079985D01*
X131910015Y-41977491D01*
X131910013Y-41977490D01*
X131910011Y-41977488D01*
X131784488Y-41905017D01*
X131784489Y-41905017D01*
X131773006Y-41901940D01*
X131644475Y-41867500D01*
X131499525Y-41867500D01*
X131370993Y-41901940D01*
X131359511Y-41905017D01*
X131233988Y-41977488D01*
X131233982Y-41977493D01*
X131230295Y-41981181D01*
X131168972Y-42014666D01*
X131142614Y-42017500D01*
X128471273Y-42017500D01*
X128369410Y-42044793D01*
X128278087Y-42097520D01*
X128278084Y-42097522D01*
X124139522Y-46236084D01*
X124139518Y-46236090D01*
X124086792Y-46327412D01*
X124086793Y-46327413D01*
X124059500Y-46429273D01*
X124059500Y-65568745D01*
X124039815Y-65635784D01*
X124023181Y-65656426D01*
X123516249Y-66163357D01*
X123454926Y-66196842D01*
X123385234Y-66191858D01*
X123329301Y-66149986D01*
X123304884Y-66084522D01*
X123309810Y-66040004D01*
X123313962Y-66026178D01*
X123338104Y-65984365D01*
X123375620Y-65844355D01*
X123375620Y-65820914D01*
X123380862Y-65803463D01*
X123390388Y-65788839D01*
X123395305Y-65772096D01*
X123411939Y-65751454D01*
X123506967Y-65656426D01*
X123639480Y-65523913D01*
X123692207Y-65432588D01*
X123719500Y-65330727D01*
X123719500Y-65225273D01*
X123719500Y-46316255D01*
X123739185Y-46249216D01*
X123755819Y-46228574D01*
X129161574Y-40822819D01*
X129222897Y-40789334D01*
X129249255Y-40786500D01*
X131142614Y-40786500D01*
X131209653Y-40806185D01*
X131230295Y-40822819D01*
X131233985Y-40826509D01*
X131233986Y-40826510D01*
X131233988Y-40826511D01*
X131359511Y-40898982D01*
X131359512Y-40898982D01*
X131359515Y-40898984D01*
X131499525Y-40936500D01*
X131499528Y-40936500D01*
X131644472Y-40936500D01*
X131644475Y-40936500D01*
X131784485Y-40898984D01*
X131910015Y-40826509D01*
X132012509Y-40724015D01*
X132084984Y-40598485D01*
X132122500Y-40458475D01*
X132122500Y-40313525D01*
X132084984Y-40173515D01*
X132080668Y-40166040D01*
X132012511Y-40047988D01*
X132012506Y-40047982D01*
X131910017Y-39945493D01*
X131910011Y-39945488D01*
X131784488Y-39873017D01*
X131784489Y-39873017D01*
X131773006Y-39869940D01*
X131644475Y-39835500D01*
X131499525Y-39835500D01*
X131370993Y-39869940D01*
X131359511Y-39873017D01*
X131233988Y-39945488D01*
X131233982Y-39945493D01*
X131230295Y-39949181D01*
X131168972Y-39982666D01*
X131142614Y-39985500D01*
X129482775Y-39985500D01*
X129415736Y-39965815D01*
X129369981Y-39913011D01*
X129360037Y-39843853D01*
X129389062Y-39780297D01*
X129395094Y-39773819D01*
X130378094Y-38790819D01*
X130439417Y-38757334D01*
X130465775Y-38754500D01*
X131142614Y-38754500D01*
X131209653Y-38774185D01*
X131230295Y-38790819D01*
X131233985Y-38794509D01*
X131233986Y-38794510D01*
X131233988Y-38794511D01*
X131359511Y-38866982D01*
X131359512Y-38866982D01*
X131359515Y-38866984D01*
X131499525Y-38904500D01*
X131499528Y-38904500D01*
X131644472Y-38904500D01*
X131644475Y-38904500D01*
X131784485Y-38866984D01*
X131910015Y-38794509D01*
X132012509Y-38692015D01*
X132084984Y-38566485D01*
X132122500Y-38426475D01*
X132122500Y-38281525D01*
X132084984Y-38141515D01*
X132012509Y-38015985D01*
X131910015Y-37913491D01*
X131910013Y-37913490D01*
X131910011Y-37913488D01*
X131784488Y-37841017D01*
X131784489Y-37841017D01*
X131773006Y-37837940D01*
X131644475Y-37803500D01*
X131499525Y-37803500D01*
X131370993Y-37837940D01*
X131359511Y-37841017D01*
X131233988Y-37913488D01*
X131233982Y-37913493D01*
X131230295Y-37917181D01*
X131168972Y-37950666D01*
X131142614Y-37953500D01*
X130806254Y-37953500D01*
X130739215Y-37933815D01*
X130693460Y-37881011D01*
X130683516Y-37811853D01*
X130712541Y-37748297D01*
X130718573Y-37741819D01*
X131551573Y-36908819D01*
X131612896Y-36875334D01*
X131639254Y-36872500D01*
X131644472Y-36872500D01*
X131644475Y-36872500D01*
X131784485Y-36834984D01*
X131910015Y-36762509D01*
X132012509Y-36660015D01*
X132084984Y-36534485D01*
X132122500Y-36394475D01*
X132122500Y-36249525D01*
X132084984Y-36109515D01*
X132012509Y-35983985D01*
X131910015Y-35881491D01*
X131910013Y-35881490D01*
X131910011Y-35881488D01*
X131784488Y-35809017D01*
X131784489Y-35809017D01*
X131773006Y-35805940D01*
X131644475Y-35771500D01*
X131499525Y-35771500D01*
X131370993Y-35805940D01*
X131359511Y-35809017D01*
X131233988Y-35881488D01*
X131233982Y-35881493D01*
X131131493Y-35983982D01*
X131131488Y-35983988D01*
X131059017Y-36109511D01*
X131059016Y-36109515D01*
X131021500Y-36249525D01*
X131021500Y-36249527D01*
X131021500Y-36254745D01*
X131001815Y-36321784D01*
X130985181Y-36342426D01*
X121996522Y-45331084D01*
X121996518Y-45331090D01*
X121943792Y-45422412D01*
X121943793Y-45422413D01*
X121916500Y-45524273D01*
X121916500Y-64044745D01*
X121896815Y-64111784D01*
X121880181Y-64132426D01*
X120297426Y-65715181D01*
X120236103Y-65748666D01*
X120209745Y-65751500D01*
X120204525Y-65751500D01*
X120075993Y-65785940D01*
X120064511Y-65789017D01*
X119938988Y-65861488D01*
X119938982Y-65861493D01*
X119836493Y-65963982D01*
X119836488Y-65963988D01*
X119764017Y-66089511D01*
X119764016Y-66089515D01*
X119726500Y-66229525D01*
X119726500Y-66229527D01*
X119726500Y-66234745D01*
X119706815Y-66301784D01*
X119690181Y-66322426D01*
X118631426Y-67381181D01*
X118570103Y-67414666D01*
X118543745Y-67417500D01*
X117777386Y-67417500D01*
X117710347Y-67397815D01*
X117689705Y-67381181D01*
X117686017Y-67377493D01*
X117686011Y-67377488D01*
X117560488Y-67305017D01*
X117560489Y-67305017D01*
X117546382Y-67301237D01*
X117420475Y-67267500D01*
X117275525Y-67267500D01*
X117149618Y-67301237D01*
X117135511Y-67305017D01*
X117009988Y-67377488D01*
X117009982Y-67377493D01*
X116907493Y-67479982D01*
X116907488Y-67479988D01*
X116835017Y-67605511D01*
X116835016Y-67605515D01*
X116797500Y-67745525D01*
X116797500Y-67890475D01*
X116830759Y-68014597D01*
X116835017Y-68030488D01*
X116907488Y-68156011D01*
X116907490Y-68156013D01*
X116907491Y-68156015D01*
X117009985Y-68258509D01*
X117009986Y-68258510D01*
X117009988Y-68258511D01*
X117135511Y-68330982D01*
X117135512Y-68330982D01*
X117135515Y-68330984D01*
X117275525Y-68368500D01*
X117275528Y-68368500D01*
X117420472Y-68368500D01*
X117420475Y-68368500D01*
X117560485Y-68330984D01*
X117686015Y-68258509D01*
X117689705Y-68254819D01*
X117751028Y-68221334D01*
X117777386Y-68218500D01*
X118519500Y-68218500D01*
X118586539Y-68238185D01*
X118632294Y-68290989D01*
X118643500Y-68342500D01*
X118643500Y-68466475D01*
X118669611Y-68563920D01*
X118681017Y-68606488D01*
X118753488Y-68732011D01*
X118753490Y-68732013D01*
X118753491Y-68732015D01*
X118855985Y-68834509D01*
X118855986Y-68834510D01*
X118855988Y-68834511D01*
X118981511Y-68906982D01*
X118981512Y-68906982D01*
X118981515Y-68906984D01*
X119121525Y-68944500D01*
X119121528Y-68944500D01*
X119266472Y-68944500D01*
X119266475Y-68944500D01*
X119406485Y-68906984D01*
X119532015Y-68834509D01*
X119634509Y-68732015D01*
X119696087Y-68625358D01*
X119746652Y-68577144D01*
X119815259Y-68563920D01*
X119880124Y-68589888D01*
X119891154Y-68599678D01*
X119892991Y-68601515D01*
X119995485Y-68704009D01*
X119995486Y-68704010D01*
X119995488Y-68704011D01*
X120121011Y-68776482D01*
X120121012Y-68776482D01*
X120121015Y-68776484D01*
X120261025Y-68814000D01*
X120261028Y-68814000D01*
X120405972Y-68814000D01*
X120405975Y-68814000D01*
X120545985Y-68776484D01*
X120575295Y-68759561D01*
X120643194Y-68743088D01*
X120709221Y-68765939D01*
X120752413Y-68820860D01*
X120759056Y-68890413D01*
X120727041Y-68952516D01*
X120724977Y-68954629D01*
X118742426Y-70937181D01*
X118681103Y-70970666D01*
X118654745Y-70973500D01*
X116111386Y-70973500D01*
X116044347Y-70953815D01*
X116023705Y-70937181D01*
X116020017Y-70933493D01*
X116020011Y-70933488D01*
X115894488Y-70861017D01*
X115894489Y-70861017D01*
X115883006Y-70857940D01*
X115754475Y-70823500D01*
X115609525Y-70823500D01*
X115480993Y-70857940D01*
X115469511Y-70861017D01*
X115343988Y-70933488D01*
X115343982Y-70933493D01*
X115241493Y-71035982D01*
X115241488Y-71035988D01*
X115169017Y-71161511D01*
X115169016Y-71161515D01*
X115131500Y-71301525D01*
X115131500Y-71446475D01*
X115135689Y-71462107D01*
X115149322Y-71512988D01*
X115147659Y-71582838D01*
X115108496Y-71640700D01*
X115044267Y-71668204D01*
X114975365Y-71656617D01*
X114941866Y-71632762D01*
X114786819Y-71477715D01*
X114753334Y-71416392D01*
X114750500Y-71390034D01*
X114750500Y-64245965D01*
X114770185Y-64178926D01*
X114786819Y-64158284D01*
X115206848Y-63738255D01*
X115676489Y-63268614D01*
X115735798Y-63165887D01*
X115735799Y-63165886D01*
X115766500Y-63051309D01*
X115766500Y-58360691D01*
X115735799Y-58246114D01*
X115735799Y-58246113D01*
X115676489Y-58143386D01*
X113852822Y-56319719D01*
X113820728Y-56264131D01*
X113796984Y-56175515D01*
X113724509Y-56049985D01*
X113622015Y-55947491D01*
X113622013Y-55947490D01*
X113622011Y-55947488D01*
X113496488Y-55875017D01*
X113496489Y-55875017D01*
X113485006Y-55871940D01*
X113356475Y-55837500D01*
X113211525Y-55837500D01*
X113082993Y-55871940D01*
X113071511Y-55875017D01*
X112945988Y-55947488D01*
X112945982Y-55947493D01*
X112843493Y-56049982D01*
X112843488Y-56049988D01*
X112771017Y-56175511D01*
X112771016Y-56175515D01*
X112733500Y-56315525D01*
X112733500Y-56460475D01*
X112771016Y-56600485D01*
X112771017Y-56600488D01*
X112843488Y-56726011D01*
X112843490Y-56726013D01*
X112843491Y-56726015D01*
X112945985Y-56828509D01*
X113071515Y-56900984D01*
X113160132Y-56924728D01*
X113215719Y-56956822D01*
X114829181Y-58570284D01*
X114862666Y-58631607D01*
X114865500Y-58657965D01*
X114865500Y-62754035D01*
X114845815Y-62821074D01*
X114829181Y-62841716D01*
X113515386Y-64155511D01*
X110675719Y-66995176D01*
X110620133Y-67027269D01*
X110531518Y-67051014D01*
X110531511Y-67051017D01*
X110405988Y-67123488D01*
X110405982Y-67123493D01*
X110303493Y-67225982D01*
X110303488Y-67225988D01*
X110231017Y-67351511D01*
X110231016Y-67351515D01*
X110193500Y-67491525D01*
X108604500Y-67491525D01*
X108604500Y-62143389D01*
X109135500Y-62143389D01*
X109135500Y-62316611D01*
X109137528Y-62329414D01*
X109153660Y-62431273D01*
X109162598Y-62487701D01*
X109216127Y-62652445D01*
X109294768Y-62806788D01*
X109396586Y-62946928D01*
X109519072Y-63069414D01*
X109659212Y-63171232D01*
X109813555Y-63249873D01*
X109978299Y-63303402D01*
X110149389Y-63330500D01*
X110149390Y-63330500D01*
X110322610Y-63330500D01*
X110322611Y-63330500D01*
X110493701Y-63303402D01*
X110658445Y-63249873D01*
X110812788Y-63171232D01*
X110952928Y-63069414D01*
X111075414Y-62946928D01*
X111177232Y-62806788D01*
X111255873Y-62652445D01*
X111309402Y-62487701D01*
X111336500Y-62316611D01*
X111336500Y-62143389D01*
X111675500Y-62143389D01*
X111675500Y-62316611D01*
X111677528Y-62329414D01*
X111693660Y-62431273D01*
X111702598Y-62487701D01*
X111756127Y-62652445D01*
X111834768Y-62806788D01*
X111936586Y-62946928D01*
X112059072Y-63069414D01*
X112199212Y-63171232D01*
X112353555Y-63249873D01*
X112518299Y-63303402D01*
X112689389Y-63330500D01*
X112689390Y-63330500D01*
X112862610Y-63330500D01*
X112862611Y-63330500D01*
X113033701Y-63303402D01*
X113198445Y-63249873D01*
X113352788Y-63171232D01*
X113492928Y-63069414D01*
X113615414Y-62946928D01*
X113717232Y-62806788D01*
X113795873Y-62652445D01*
X113849402Y-62487701D01*
X113876500Y-62316611D01*
X113876500Y-62143389D01*
X113849402Y-61972299D01*
X113795873Y-61807555D01*
X113717232Y-61653212D01*
X113615414Y-61513072D01*
X113492928Y-61390586D01*
X113352788Y-61288768D01*
X113198445Y-61210127D01*
X113033701Y-61156598D01*
X113033699Y-61156597D01*
X113033698Y-61156597D01*
X112902271Y-61135781D01*
X112862611Y-61129500D01*
X112689389Y-61129500D01*
X112649728Y-61135781D01*
X112518302Y-61156597D01*
X112518299Y-61156598D01*
X112390549Y-61198107D01*
X112353552Y-61210128D01*
X112199211Y-61288768D01*
X112119256Y-61346859D01*
X112059072Y-61390586D01*
X112059070Y-61390588D01*
X112059069Y-61390588D01*
X111936588Y-61513069D01*
X111936588Y-61513070D01*
X111936586Y-61513072D01*
X111892859Y-61573256D01*
X111834768Y-61653211D01*
X111756128Y-61807552D01*
X111702597Y-61972302D01*
X111675500Y-62143389D01*
X111336500Y-62143389D01*
X111309402Y-61972299D01*
X111255873Y-61807555D01*
X111177232Y-61653212D01*
X111075414Y-61513072D01*
X110952928Y-61390586D01*
X110812788Y-61288768D01*
X110658445Y-61210127D01*
X110493701Y-61156598D01*
X110493699Y-61156597D01*
X110493698Y-61156597D01*
X110362271Y-61135781D01*
X110322611Y-61129500D01*
X110149389Y-61129500D01*
X110109728Y-61135781D01*
X109978302Y-61156597D01*
X109978299Y-61156598D01*
X109850549Y-61198107D01*
X109813552Y-61210128D01*
X109659211Y-61288768D01*
X109579256Y-61346859D01*
X109519072Y-61390586D01*
X109519070Y-61390588D01*
X109519069Y-61390588D01*
X109396588Y-61513069D01*
X109396588Y-61513070D01*
X109396586Y-61513072D01*
X109352859Y-61573256D01*
X109294768Y-61653211D01*
X109216128Y-61807552D01*
X109162597Y-61972302D01*
X109135500Y-62143389D01*
X108604500Y-62143389D01*
X108604500Y-58815321D01*
X109135500Y-58815321D01*
X109135500Y-60564678D01*
X109150032Y-60637735D01*
X109150033Y-60637739D01*
X109150034Y-60637740D01*
X109205399Y-60720601D01*
X109284551Y-60773488D01*
X109288260Y-60775966D01*
X109288264Y-60775967D01*
X109361321Y-60790499D01*
X109361324Y-60790500D01*
X109361326Y-60790500D01*
X111110676Y-60790500D01*
X111110677Y-60790499D01*
X111183740Y-60775966D01*
X111266601Y-60720601D01*
X111321966Y-60637740D01*
X111336500Y-60564674D01*
X111336500Y-59603389D01*
X111675500Y-59603389D01*
X111675500Y-59776611D01*
X111702598Y-59947701D01*
X111728694Y-60028017D01*
X111756128Y-60112447D01*
X111802259Y-60202984D01*
X111834768Y-60266788D01*
X111936586Y-60406928D01*
X112059072Y-60529414D01*
X112199212Y-60631232D01*
X112353555Y-60709873D01*
X112518299Y-60763402D01*
X112689389Y-60790500D01*
X112689390Y-60790500D01*
X112862610Y-60790500D01*
X112862611Y-60790500D01*
X113033701Y-60763402D01*
X113198445Y-60709873D01*
X113352788Y-60631232D01*
X113492928Y-60529414D01*
X113615414Y-60406928D01*
X113717232Y-60266788D01*
X113795873Y-60112445D01*
X113849402Y-59947701D01*
X113876500Y-59776611D01*
X113876500Y-59603389D01*
X113849402Y-59432299D01*
X113795873Y-59267555D01*
X113717232Y-59113212D01*
X113615414Y-58973072D01*
X113492928Y-58850586D01*
X113352788Y-58748768D01*
X113198445Y-58670127D01*
X113033701Y-58616598D01*
X113033699Y-58616597D01*
X113033698Y-58616597D01*
X112902271Y-58595781D01*
X112862611Y-58589500D01*
X112689389Y-58589500D01*
X112649728Y-58595781D01*
X112518302Y-58616597D01*
X112518299Y-58616598D01*
X112390986Y-58657965D01*
X112353552Y-58670128D01*
X112199211Y-58748768D01*
X112119256Y-58806859D01*
X112059072Y-58850586D01*
X112059070Y-58850588D01*
X112059069Y-58850588D01*
X111936588Y-58973069D01*
X111936588Y-58973070D01*
X111936586Y-58973072D01*
X111892859Y-59033256D01*
X111834768Y-59113211D01*
X111756128Y-59267552D01*
X111702597Y-59432302D01*
X111695437Y-59477511D01*
X111675500Y-59603389D01*
X111336500Y-59603389D01*
X111336500Y-58815326D01*
X111336500Y-58815323D01*
X111336499Y-58815321D01*
X111321967Y-58742264D01*
X111321966Y-58742260D01*
X111266601Y-58659399D01*
X111183740Y-58604034D01*
X111183739Y-58604033D01*
X111183735Y-58604032D01*
X111110677Y-58589500D01*
X111110674Y-58589500D01*
X109361326Y-58589500D01*
X109361323Y-58589500D01*
X109288264Y-58604032D01*
X109288260Y-58604033D01*
X109205399Y-58659399D01*
X109150033Y-58742260D01*
X109150032Y-58742264D01*
X109135500Y-58815321D01*
X108604500Y-58815321D01*
X108604500Y-54277386D01*
X108624185Y-54210347D01*
X108640819Y-54189705D01*
X108644509Y-54186015D01*
X108716984Y-54060485D01*
X108754500Y-53920475D01*
X108754500Y-53775525D01*
X108716984Y-53635515D01*
X108708861Y-53621446D01*
X108644511Y-53509988D01*
X108644506Y-53509982D01*
X108542017Y-53407493D01*
X108542011Y-53407488D01*
X108416488Y-53335017D01*
X108416489Y-53335017D01*
X108405006Y-53331940D01*
X108276475Y-53297500D01*
X108131525Y-53297500D01*
X108002993Y-53331940D01*
X107991511Y-53335017D01*
X107865988Y-53407488D01*
X107865982Y-53407493D01*
X107800181Y-53473295D01*
X107738858Y-53506780D01*
X107669166Y-53501796D01*
X107613233Y-53459924D01*
X107588816Y-53394460D01*
X107588500Y-53385614D01*
X107588500Y-52753386D01*
X107608185Y-52686347D01*
X107624819Y-52665705D01*
X107628509Y-52662015D01*
X107700984Y-52536485D01*
X107738500Y-52396475D01*
X107738500Y-52251525D01*
X107700984Y-52111515D01*
X107695672Y-52102315D01*
X107628511Y-51985988D01*
X107628506Y-51985982D01*
X107526017Y-51883493D01*
X107526015Y-51883491D01*
X107490328Y-51862887D01*
X107442112Y-51812320D01*
X107428890Y-51743713D01*
X107454858Y-51678848D01*
X107511772Y-51638320D01*
X107552328Y-51631500D01*
X118619614Y-51631500D01*
X118686653Y-51651185D01*
X118707295Y-51667819D01*
X118787985Y-51748509D01*
X118787986Y-51748510D01*
X118787988Y-51748511D01*
X118913511Y-51820982D01*
X118913512Y-51820982D01*
X118913515Y-51820984D01*
X119053525Y-51858500D01*
X119053528Y-51858500D01*
X119198472Y-51858500D01*
X119198475Y-51858500D01*
X119338485Y-51820984D01*
X119464015Y-51748509D01*
X119566509Y-51646015D01*
X119638984Y-51520485D01*
X119676500Y-51380475D01*
X119676500Y-51235525D01*
X119638984Y-51095515D01*
X119566509Y-50969985D01*
X119464015Y-50867491D01*
X119464013Y-50867490D01*
X119464011Y-50867488D01*
X119338488Y-50795017D01*
X119338489Y-50795017D01*
X119327006Y-50791940D01*
X119198475Y-50757500D01*
X119198472Y-50757500D01*
X119175400Y-50757500D01*
X119143307Y-50753275D01*
X119095596Y-50740491D01*
X119058309Y-50730500D01*
X119058308Y-50730500D01*
X118707269Y-50730500D01*
X118640230Y-50710815D01*
X118594475Y-50658011D01*
X118584531Y-50588853D01*
X118599882Y-50544500D01*
X118616849Y-50515109D01*
X118622984Y-50504485D01*
X118660500Y-50364475D01*
X118660500Y-50219525D01*
X118622984Y-50079515D01*
X118616153Y-50067684D01*
X118550511Y-49953988D01*
X118550506Y-49953982D01*
X118448017Y-49851493D01*
X118448011Y-49851488D01*
X118322488Y-49779017D01*
X118322483Y-49779015D01*
X118233865Y-49755269D01*
X118178279Y-49723176D01*
X118132616Y-49677513D01*
X118132614Y-49677511D01*
X118081250Y-49647856D01*
X118029888Y-49618201D01*
X118017780Y-49614957D01*
X118005673Y-49611713D01*
X118005670Y-49611712D01*
X117952596Y-49597491D01*
X117915309Y-49587500D01*
X117915308Y-49587500D01*
X117098386Y-49587500D01*
X117031347Y-49567815D01*
X116985592Y-49515011D01*
X116975648Y-49445853D01*
X117004673Y-49382297D01*
X117010705Y-49375819D01*
X117026509Y-49360015D01*
X117098984Y-49234485D01*
X117136500Y-49094475D01*
X117136500Y-48949525D01*
X117098984Y-48809515D01*
X117026509Y-48683985D01*
X116924015Y-48581491D01*
X116924013Y-48581490D01*
X116924011Y-48581488D01*
X116798488Y-48509017D01*
X116798489Y-48509017D01*
X116787006Y-48505940D01*
X116658475Y-48471500D01*
X116513525Y-48471500D01*
X116373515Y-48509016D01*
X116294063Y-48554887D01*
X116232064Y-48571500D01*
X95857936Y-48571500D01*
X95795936Y-48554887D01*
X95716485Y-48509016D01*
X95576475Y-48471500D01*
X95431525Y-48471500D01*
X95302993Y-48505940D01*
X95291511Y-48509017D01*
X95165988Y-48581488D01*
X95165982Y-48581493D01*
X95063493Y-48683982D01*
X95063488Y-48683988D01*
X94991017Y-48809511D01*
X94991016Y-48809515D01*
X94953500Y-48949525D01*
X94953500Y-49094475D01*
X94991016Y-49234485D01*
X94991017Y-49234488D01*
X95063488Y-49360011D01*
X95063493Y-49360017D01*
X95145795Y-49442319D01*
X95179280Y-49503642D01*
X95174296Y-49573334D01*
X95145795Y-49617681D01*
X95063493Y-49699982D01*
X95063488Y-49699988D01*
X94991017Y-49825511D01*
X94991016Y-49825515D01*
X94953500Y-49965525D01*
X94953500Y-50110475D01*
X94982721Y-50219527D01*
X94991017Y-50250488D01*
X95063488Y-50376011D01*
X95063493Y-50376017D01*
X95171321Y-50483845D01*
X95204806Y-50545168D01*
X95199822Y-50614860D01*
X95157950Y-50670793D01*
X95145641Y-50678913D01*
X95038985Y-50740491D01*
X95038982Y-50740493D01*
X94936493Y-50842982D01*
X94936488Y-50842988D01*
X94864017Y-50968511D01*
X94864016Y-50968515D01*
X94826500Y-51108525D01*
X81068500Y-51108525D01*
X81068500Y-42951387D01*
X81088185Y-42884348D01*
X81104819Y-42863706D01*
X82487706Y-41480819D01*
X82549029Y-41447334D01*
X82575387Y-41444500D01*
X89480472Y-41444500D01*
X89480474Y-41444500D01*
X89480475Y-41444500D01*
X89620485Y-41406984D01*
X89746015Y-41334510D01*
X90615706Y-40464819D01*
X90677029Y-40431334D01*
X90703387Y-40428500D01*
X107162613Y-40428500D01*
X107229652Y-40448185D01*
X107250294Y-40464819D01*
X114723985Y-47938510D01*
X114849515Y-48010984D01*
X114989525Y-48048500D01*
X114989528Y-48048500D01*
X115134472Y-48048500D01*
X115134475Y-48048500D01*
X115274485Y-48010984D01*
X115400014Y-47938510D01*
X115502510Y-47836014D01*
X115574984Y-47710485D01*
X115612500Y-47570475D01*
X115612500Y-47425525D01*
X115574984Y-47285515D01*
X115502510Y-47159985D01*
X107780015Y-39437490D01*
X107654485Y-39365016D01*
X107654486Y-39365016D01*
X107619482Y-39355637D01*
X107514475Y-39327500D01*
X90351525Y-39327500D01*
X90246517Y-39355637D01*
X90211514Y-39365016D01*
X90085986Y-39437489D01*
X90085983Y-39437491D01*
X89216294Y-40307181D01*
X89154971Y-40340666D01*
X89128613Y-40343500D01*
X84099387Y-40343500D01*
X84069946Y-40334855D01*
X84039960Y-40328332D01*
X84034944Y-40324577D01*
X84032348Y-40323815D01*
X84011706Y-40307181D01*
X83898819Y-40194294D01*
X83865334Y-40132971D01*
X83862500Y-40106613D01*
X83862500Y-38789527D01*
X83862500Y-38789525D01*
X83824984Y-38649515D01*
X83777046Y-38566485D01*
X83752511Y-38523988D01*
X83752506Y-38523982D01*
X83650017Y-38421493D01*
X83650011Y-38421488D01*
X83524488Y-38349017D01*
X83524489Y-38349017D01*
X83513006Y-38345940D01*
X83384475Y-38311500D01*
X83239525Y-38311500D01*
X83110993Y-38345940D01*
X83099511Y-38349017D01*
X82973988Y-38421488D01*
X82973982Y-38421493D01*
X82871493Y-38523982D01*
X82871488Y-38523988D01*
X82799017Y-38649511D01*
X82799016Y-38649515D01*
X82761500Y-38789525D01*
X82761500Y-38789527D01*
X82761500Y-40106613D01*
X82752855Y-40136053D01*
X82746332Y-40166040D01*
X82742577Y-40171055D01*
X82741815Y-40173652D01*
X82725181Y-40194294D01*
X82612294Y-40307181D01*
X82550971Y-40340666D01*
X82524613Y-40343500D01*
X82223525Y-40343500D01*
X82118517Y-40371637D01*
X82083514Y-40381016D01*
X81957986Y-40453489D01*
X81957983Y-40453491D01*
X80077491Y-42333983D01*
X80077489Y-42333986D01*
X80005016Y-42459514D01*
X80005016Y-42459515D01*
X79967500Y-42599525D01*
X77208500Y-42599525D01*
X77208500Y-39882676D01*
X77228185Y-39815637D01*
X77244819Y-39794995D01*
X79885495Y-37154319D01*
X79946818Y-37120834D01*
X79973176Y-37118000D01*
X120399000Y-37118000D01*
X120466039Y-37137685D01*
X120511794Y-37190489D01*
X120523000Y-37242000D01*
X120523000Y-60579000D01*
X121158000Y-60579000D01*
X121158000Y-37242000D01*
X121177685Y-37174961D01*
X121230489Y-37129206D01*
X121282000Y-37118000D01*
X126616000Y-37118000D01*
X126616000Y-31104500D01*
X126635685Y-31037461D01*
X126688489Y-30991706D01*
X126740000Y-30980500D01*
X156205324Y-30980500D01*
X156272363Y-31000185D01*
G37*
%TD.AperFunction*%
%TD*%
%TA.AperFunction,Conductor*%
%TO.N,+3.3V*%
G36*
X91456193Y-62966907D02*
G01*
X91469187Y-62978198D01*
X92682185Y-64233221D01*
X92709031Y-64288203D01*
X92710000Y-64302023D01*
X92710000Y-68792992D01*
X92691093Y-68851183D01*
X92681004Y-68862996D01*
X91468996Y-70075004D01*
X91414479Y-70102781D01*
X91398992Y-70104000D01*
X83357619Y-70104000D01*
X83299428Y-70085093D01*
X83282361Y-70069322D01*
X82251328Y-68862996D01*
X80924000Y-67310000D01*
X80923999Y-67310000D01*
X78737000Y-67310000D01*
X78678809Y-67291093D01*
X78642845Y-67241593D01*
X78638000Y-67211000D01*
X78638000Y-65885000D01*
X78656907Y-65826809D01*
X78706407Y-65790845D01*
X78737000Y-65786000D01*
X80924000Y-65786000D01*
X82926382Y-62989365D01*
X82975631Y-62953060D01*
X83006876Y-62948000D01*
X91398002Y-62948000D01*
X91456193Y-62966907D01*
G37*
%TD.AperFunction*%
%TD*%
M02*
