%TF.GenerationSoftware,KiCad,Pcbnew,9.0.0*%
%TF.CreationDate,2025-04-10T09:35:26+02:00*%
%TF.ProjectId,3band_testboard_mcu_based,3362616e-645f-4746-9573-74626f617264,1.0*%
%TF.SameCoordinates,Original*%
%TF.FileFunction,Soldermask,Bot*%
%TF.FilePolarity,Negative*%
%FSLAX46Y46*%
G04 Gerber Fmt 4.6, Leading zero omitted, Abs format (unit mm)*
G04 Created by KiCad (PCBNEW 9.0.0) date 2025-04-10 09:35:26*
%MOMM*%
%LPD*%
G01*
G04 APERTURE LIST*
G04 Aperture macros list*
%AMRoundRect*
0 Rectangle with rounded corners*
0 $1 Rounding radius*
0 $2 $3 $4 $5 $6 $7 $8 $9 X,Y pos of 4 corners*
0 Add a 4 corners polygon primitive as box body*
4,1,4,$2,$3,$4,$5,$6,$7,$8,$9,$2,$3,0*
0 Add four circle primitives for the rounded corners*
1,1,$1+$1,$2,$3*
1,1,$1+$1,$4,$5*
1,1,$1+$1,$6,$7*
1,1,$1+$1,$8,$9*
0 Add four rect primitives between the rounded corners*
20,1,$1+$1,$2,$3,$4,$5,0*
20,1,$1+$1,$4,$5,$6,$7,0*
20,1,$1+$1,$6,$7,$8,$9,0*
20,1,$1+$1,$8,$9,$2,$3,0*%
G04 Aperture macros list end*
%ADD10RoundRect,0.250000X1.600000X-0.425000X1.600000X0.425000X-1.600000X0.425000X-1.600000X-0.425000X0*%
%ADD11R,1.700000X1.700000*%
%ADD12O,1.700000X1.700000*%
%ADD13RoundRect,0.250000X-1.000000X-1.000000X1.000000X-1.000000X1.000000X1.000000X-1.000000X1.000000X0*%
%ADD14C,2.500000*%
%ADD15R,1.800000X1.800000*%
%ADD16C,1.800000*%
%ADD17R,1.600000X1.600000*%
%ADD18C,1.600000*%
%ADD19C,0.650000*%
%ADD20O,2.100000X1.000000*%
%ADD21O,1.600000X1.000000*%
%ADD22C,1.700000*%
G04 APERTURE END LIST*
D10*
%TO.C,J2*%
X162814000Y-84522718D03*
X162814000Y-90172718D03*
%TD*%
D11*
%TO.C,J9*%
X110236000Y-59690000D03*
D12*
X112776000Y-59690000D03*
X110236000Y-62230000D03*
X112776000Y-62230000D03*
%TD*%
D11*
%TO.C,J8*%
X101346000Y-83058000D03*
D12*
X103886000Y-83058000D03*
X106426000Y-83058000D03*
X108966000Y-83058000D03*
X111506000Y-83058000D03*
X114046000Y-83058000D03*
%TD*%
D10*
%TO.C,J3*%
X162814000Y-65374000D03*
X162814000Y-71024000D03*
%TD*%
D13*
%TO.C,J5*%
X99100000Y-98465500D03*
D14*
X104100000Y-98465500D03*
%TD*%
D15*
%TO.C,D2*%
X86106000Y-91186000D03*
D16*
X86106000Y-88646000D03*
%TD*%
D17*
%TO.C,C9*%
X136144000Y-53975000D03*
D18*
X138644000Y-53975000D03*
%TD*%
D17*
%TO.C,C12*%
X88646000Y-71755000D03*
D18*
X91146000Y-71755000D03*
%TD*%
D11*
%TO.C,J7*%
X101346000Y-76454000D03*
D12*
X103886000Y-76454000D03*
X106426000Y-76454000D03*
X108966000Y-76454000D03*
X111506000Y-76454000D03*
X114046000Y-76454000D03*
%TD*%
D19*
%TO.C,J6*%
X83320000Y-77628000D03*
X83320000Y-83408000D03*
D20*
X83850000Y-76198000D03*
D21*
X79670000Y-76198000D03*
D20*
X83850000Y-84838000D03*
D21*
X79670000Y-84838000D03*
%TD*%
D17*
%TO.C,C8*%
X130937000Y-96201113D03*
D18*
X130937000Y-93701113D03*
%TD*%
D10*
%TO.C,J1*%
X162941000Y-45435000D03*
X162941000Y-51085000D03*
%TD*%
D11*
%TO.C,J10*%
X128270000Y-66548000D03*
D22*
X128270000Y-69088000D03*
X128270000Y-71628000D03*
%TD*%
M02*
