M48
; DRILL file {KiCad 9.0.0} date 2025-04-10T09:35:22+0200
; FORMAT={-:-/ absolute / inch / decimal}
; #@! TF.CreationDate,2025-04-10T09:35:22+02:00
; #@! TF.GenerationSoftware,Kicad,Pcbnew,9.0.0
; #@! TF.FileFunction,Plated,1,2,PTH
FMAT,2
INCH
; #@! TA.AperFunction,Plated,PTH,ViaDrill
T1C0.0118
; #@! TA.AperFunction,Plated,PTH,ComponentDrill
T2C0.0118
; #@! TA.AperFunction,Plated,PTH,ComponentDrill
T3C0.0244
; #@! TA.AperFunction,Plated,PTH,ComponentDrill
T4C0.0315
; #@! TA.AperFunction,Plated,PTH,ComponentDrill
T5C0.0354
; #@! TA.AperFunction,Plated,PTH,ComponentDrill
T6C0.0394
; #@! TA.AperFunction,Plated,PTH,ComponentDrill
T7C0.0512
%
G90
G05
T1
X3.085Y-2.3
X3.17Y-1.968
X3.18Y-2.25
X3.22Y-2.58
X3.22Y-2.62
X3.22Y-2.66
X3.24Y-1.79
X3.24Y-1.89
X3.26Y-2.54
X3.26Y-2.58
X3.26Y-2.62
X3.26Y-2.66
X3.26Y-2.7
X3.28Y-1.53
X3.28Y-1.79
X3.28Y-1.89
X3.3Y-2.115
X3.3Y-2.5
X3.3Y-2.54
X3.3Y-2.58
X3.3Y-2.62
X3.3Y-2.66
X3.3Y-2.7
X3.3Y-2.74
X3.34Y-2.115
X3.34Y-2.5
X3.34Y-2.74
X3.38Y-2.5
X3.38Y-2.74
X3.4Y-3.12
X3.4Y-3.235
X3.41Y-3.01
X3.4185Y-3.15
X3.4185Y-3.1848
X3.42Y-2.5
X3.42Y-2.74
X3.42Y-3.31
X3.46Y-2.5
X3.46Y-2.54
X3.46Y-2.58
X3.46Y-2.62
X3.46Y-2.66
X3.46Y-2.7
X3.46Y-2.74
X3.5Y-2.5
X3.5Y-2.54
X3.5Y-2.58
X3.5Y-2.62
X3.5Y-2.66
X3.5Y-2.7
X3.5Y-2.74
X3.54Y-2.5
X3.54Y-2.54
X3.54Y-2.58
X3.54Y-2.62
X3.54Y-2.66
X3.54Y-2.7
X3.54Y-2.74
X3.56Y-1.57
X3.5645Y-1.52
X3.58Y-2.5
X3.58Y-2.54
X3.58Y-2.58
X3.58Y-2.62
X3.58Y-2.66
X3.58Y-2.7
X3.58Y-2.74
X3.6045Y-1.52
X3.62Y-2.54
X3.62Y-2.58
X3.62Y-2.62
X3.62Y-2.66
X3.62Y-2.7
X3.67Y-3.06
X3.67Y-3.525
X3.73Y-3.25
X3.73Y-3.29
X3.75Y-2.41
X3.75Y-2.98
X3.7533Y-2.4429
X3.755Y-2.015
X3.76Y-1.93
X3.76Y-1.97
X3.78Y-2.13
X3.82Y-1.51
X3.82Y-1.61
X3.82Y-1.71
X3.82Y-1.81
X3.82Y-3.525
X3.86Y-2.3
X3.875Y-3.455
X3.88Y-2.13
X3.905Y-3.455
X3.91Y-2.3
X3.92Y-3.525
X3.96Y-2.3
X3.98Y-2.13
X4.01Y-2.3
X4.02Y-3.525
X4.06Y-2.3
X4.08Y-2.13
X4.12Y-1.53
X4.12Y-1.63
X4.12Y-1.73
X4.12Y-1.83
X4.12Y-3.525
X4.17Y-2.75
X4.18Y-2.06
X4.18Y-2.65
X4.22Y-2.06
X4.22Y-3.525
X4.23Y-2.6988
X4.26Y-2.12
X4.2886Y-2.8444
X4.3Y-1.81
X4.3Y-2.15
X4.3Y-2.81
X4.32Y-3.525
X4.32Y-3.71
X4.32Y-3.81
X4.32Y-3.91
X4.36Y-2.66
X4.39Y-2.9
X4.42Y-3.525
X4.42Y-3.71
X4.42Y-3.81
X4.42Y-3.91
X4.45Y-2.7
X4.46Y-2.22
X4.52Y-3.71
X4.52Y-3.81
X4.52Y-3.91
X4.53Y-1.87
X4.53Y-2.85
X4.5544Y-2.81
X4.59Y-1.93
X4.615Y-3.0
X4.62Y-2.67
X4.62Y-3.71
X4.62Y-3.81
X4.62Y-3.91
X4.64Y-3.25
X4.64Y-3.395
X4.65Y-1.98
X4.68Y-3.15
X4.69Y-2.02
X4.6927Y-2.6927
X4.7353Y-2.6103
X4.7375Y-2.6875
X4.74Y-2.96
X4.78Y-3.05
X4.78Y-3.15
X4.78Y-3.25
X4.78Y-3.35
X4.7852Y-2.6002
X4.79Y-1.48
X4.79Y-1.52
X4.79Y-1.56
X4.79Y-1.6
X4.79Y-1.64
X4.79Y-1.68
X4.79Y-1.72
X4.79Y-1.76
X4.79Y-1.8
X4.79Y-1.84
X4.79Y-1.88
X4.79Y-1.92
X4.79Y-1.96
X4.79Y-2.0
X4.79Y-2.04
X4.79Y-2.08
X4.79Y-2.12
X4.79Y-2.16
X4.79Y-2.2
X4.79Y-2.24
X4.79Y-2.28
X4.79Y-2.32
X4.79Y-2.36
X4.83Y-1.48
X4.8356Y-2.5894
X4.87Y-1.48
X4.88Y-3.15
X4.88Y-3.25
X4.88Y-3.35
X4.91Y-1.48
X4.93Y-2.4
X4.95Y-1.48
X4.97Y-2.4
X4.98Y-2.53
X4.98Y-3.25
X4.99Y-1.48
X5.0Y-1.24
X5.0Y-1.28
X5.0Y-1.32
X5.0Y-1.36
X5.0Y-1.4
X5.0Y-1.44
X5.01Y-2.4
X5.04Y-1.24
X5.04Y-3.45
X5.05Y-2.4
X5.08Y-1.24
X5.08Y-2.53
X5.08Y-2.93
X5.08Y-3.45
X5.09Y-2.4
X5.1Y-2.99
X5.1Y-3.87
X5.1Y-3.97
X5.12Y-1.24
X5.12Y-2.35
X5.12Y-3.45
X5.13Y-2.4
X5.15Y-2.35
X5.16Y-1.24
X5.16Y-3.45
X5.18Y-1.43
X5.18Y-1.51
X5.18Y-1.59
X5.18Y-1.67
X5.2Y-1.24
X5.2Y-3.87
X5.2Y-3.97
X5.23Y-2.28
X5.23Y-2.32
X5.23Y-2.36
X5.23Y-2.4
X5.23Y-2.44
X5.23Y-2.48
X5.23Y-2.52
X5.23Y-2.56
X5.23Y-2.6
X5.23Y-2.64
X5.23Y-2.68
X5.23Y-2.72
X5.23Y-2.76
X5.23Y-2.8
X5.23Y-2.84
X5.23Y-2.88
X5.23Y-2.92
X5.23Y-2.96
X5.23Y-3.0
X5.23Y-3.04
X5.23Y-3.08
X5.23Y-3.12
X5.23Y-3.16
X5.23Y-3.2
X5.23Y-3.28
X5.23Y-3.33
X5.23Y-3.38
X5.23Y-3.44
X5.24Y-1.24
X5.24Y-1.35
X5.24Y-1.46
X5.24Y-1.56
X5.24Y-1.66
X5.25Y-3.73
X5.28Y-1.24
X5.28Y-2.28
X5.3Y-2.35
X5.3Y-2.39
X5.3Y-2.43
X5.3Y-2.47
X5.3Y-2.51
X5.3Y-2.55
X5.3Y-2.59
X5.3Y-2.63
X5.3Y-2.67
X5.3Y-2.71
X5.3Y-2.75
X5.3Y-2.79
X5.3Y-2.83
X5.3Y-2.87
X5.3Y-2.91
X5.3Y-2.95
X5.3Y-2.99
X5.3Y-3.03
X5.3Y-3.07
X5.3Y-3.11
X5.3Y-3.15
X5.3Y-3.19
X5.3Y-3.53
X5.3Y-3.87
X5.3Y-3.97
X5.32Y-1.24
X5.32Y-2.28
X5.34Y-1.35
X5.34Y-1.46
X5.34Y-1.56
X5.34Y-2.35
X5.36Y-1.24
X5.36Y-2.28
X5.36Y-3.73
X5.38Y-2.35
X5.38Y-2.43
X5.38Y-2.53
X5.38Y-2.63
X5.38Y-2.73
X5.38Y-2.83
X5.38Y-2.93
X5.38Y-3.03
X5.38Y-3.13
X5.38Y-3.23
X5.38Y-3.64
X5.4Y-1.24
X5.4Y-2.28
X5.4Y-3.43
X5.4Y-3.87
X5.4Y-3.97
X5.42Y-2.35
X5.44Y-1.24
X5.44Y-1.35
X5.44Y-1.46
X5.44Y-1.66
X5.44Y-1.76
X5.44Y-1.86
X5.44Y-1.96
X5.44Y-2.06
X5.44Y-2.28
X5.45Y-3.54
X5.46Y-2.35
X5.48Y-1.24
X5.48Y-2.28
X5.48Y-2.43
X5.48Y-2.53
X5.48Y-2.63
X5.48Y-2.73
X5.48Y-2.83
X5.48Y-2.93
X5.48Y-3.03
X5.5Y-2.35
X5.52Y-1.24
X5.52Y-2.28
X5.54Y-1.35
X5.54Y-1.46
X5.54Y-1.66
X5.54Y-1.76
X5.54Y-2.06
X5.54Y-2.16
X5.54Y-2.35
X5.56Y-1.24
X5.56Y-2.28
X5.57Y-1.825
X5.57Y-1.86
X5.57Y-1.895
X5.57Y-1.93
X5.57Y-1.965
X5.57Y-2.0
X5.57Y-2.48
X5.58Y-2.35
X5.58Y-2.43
X5.58Y-2.53
X5.58Y-2.63
X5.58Y-2.73
X5.58Y-2.83
X5.58Y-2.93
X5.58Y-3.03
X5.6Y-1.24
X5.6Y-2.28
X5.61Y-2.0
X5.62Y-2.35
X5.64Y-1.24
X5.64Y-2.06
X5.64Y-2.16
X5.64Y-2.28
X5.65Y-2.0
X5.66Y-2.35
X5.68Y-1.24
X5.68Y-2.28
X5.68Y-2.43
X5.68Y-2.63
X5.68Y-2.73
X5.68Y-2.83
X5.68Y-2.93
X5.68Y-3.03
X5.69Y-2.0
X5.69Y-3.83
X5.7Y-2.35
X5.7196Y-3.38
X5.7196Y-3.51
X5.7196Y-3.64
X5.72Y-1.24
X5.72Y-2.28
X5.73Y-2.0
X5.73Y-2.035
X5.74Y-2.16
X5.74Y-2.35
X5.76Y-1.24
X5.76Y-2.28
X5.765Y-1.82
X5.77Y-2.035
X5.78Y-2.35
X5.78Y-2.43
X5.78Y-2.53
X5.785Y-3.745
X5.8Y-1.24
X5.8Y-1.8
X5.8Y-2.28
X5.81Y-2.035
X5.8196Y-3.64
X5.82Y-2.35
X5.84Y-1.24
X5.84Y-1.8
X5.84Y-2.16
X5.84Y-2.28
X5.8489Y-2.8888
X5.8489Y-3.1585
X5.85Y-2.035
X5.85Y-2.77
X5.85Y-2.8
X5.85Y-2.83
X5.85Y-2.86
X5.85Y-2.92
X5.85Y-2.95
X5.85Y-2.98
X5.85Y-3.01
X5.85Y-3.04
X5.85Y-3.0697
X5.85Y-3.0997
X5.85Y-3.1297
X5.85Y-3.1897
X5.85Y-3.2197
X5.85Y-3.2497
X5.85Y-3.2797
X5.86Y-2.35
X5.86Y-2.74
X5.87Y-2.71
X5.87Y-3.755
X5.87Y-3.965
X5.88Y-1.24
X5.88Y-1.8
X5.88Y-2.28
X5.88Y-2.43
X5.88Y-2.53
X5.88Y-3.37
X5.89Y-2.035
X5.89Y-2.68
X5.9Y-1.57
X5.9Y-2.35
X5.91Y-2.66
X5.9196Y-3.38
X5.9196Y-3.51
X5.9196Y-3.64
X5.92Y-1.24
X5.92Y-1.55
X5.92Y-1.77
X5.92Y-2.28
X5.92Y-3.42
X5.92Y-3.47
X5.93Y-2.035
X5.94Y-2.16
X5.94Y-2.35
X5.94Y-2.64
X5.96Y-1.24
X5.96Y-1.73
X5.96Y-2.28
X5.97Y-2.035
X5.97Y-2.63
X5.97Y-4.0
X5.98Y-2.35
X5.98Y-2.43
X5.98Y-2.53
X5.98Y-2.8603
X5.98Y-2.9203
X5.98Y-2.9503
X5.98Y-2.9803
X5.98Y-3.01
X5.98Y-3.04
X5.98Y-3.07
X5.98Y-3.1
X5.98Y-3.13
X5.98Y-3.19
X5.98Y-3.22
X5.98Y-3.25
X5.98Y-3.28
X5.9811Y-2.8915
X5.9811Y-3.1612
X5.99Y-2.8303
X6.0Y-1.24
X6.0Y-1.69
X6.0Y-2.28
X6.0Y-2.62
X6.0Y-3.37
X6.01Y-2.035
X6.01Y-2.81
X6.01Y-3.345
X6.01Y-3.48
X6.02Y-2.35
X6.02Y-3.21
X6.02Y-3.725
X6.03Y-2.615
X6.04Y-1.24
X6.04Y-1.65
X6.04Y-2.16
X6.04Y-2.28
X6.04Y-2.8
X6.04Y-3.32
X6.04Y-3.49
X6.05Y-2.035
X6.06Y-2.35
X6.06Y-2.61
X6.0696Y-3.57
X6.0696Y-3.61
X6.0696Y-3.65
X6.0696Y-3.69
X6.07Y-2.8
X6.07Y-3.5
X6.08Y-1.24
X6.08Y-1.61
X6.08Y-2.28
X6.08Y-2.43
X6.08Y-2.53
X6.08Y-3.32
X6.08Y-3.77
X6.09Y-2.035
X6.09Y-2.61
X6.1Y-2.35
X6.1Y-2.8
X6.1Y-3.34
X6.1Y-3.5
X6.1Y-3.96
X6.105Y-3.865
X6.12Y-1.24
X6.12Y-1.61
X6.12Y-2.28
X6.12Y-2.61
X6.12Y-3.37
X6.13Y-2.035
X6.13Y-2.8
X6.13Y-3.5
X6.14Y-2.16
X6.14Y-2.35
X6.14Y-2.93
X6.14Y-3.03
X6.14Y-3.13
X6.14Y-3.22
X6.15Y-1.27
X6.15Y-2.61
X6.15Y-3.37
X6.16Y-1.61
X6.16Y-2.28
X6.16Y-2.7998
X6.16Y-3.5
X6.165Y-3.6
X6.17Y-2.035
X6.18Y-1.3
X6.18Y-2.35
X6.18Y-2.43
X6.18Y-2.53
X6.18Y-2.61
X6.18Y-3.37
X6.19Y-2.8
X6.1912Y-3.4989
X6.2Y-1.61
X6.2Y-2.28
X6.2Y-3.34
X6.205Y-2.035
X6.21Y-1.33
X6.21Y-1.8
X6.21Y-2.61
X6.22Y-2.35
X6.22Y-2.8
X6.22Y-3.5
X6.23Y-3.32
X6.24Y-1.36
X6.24Y-1.61
X6.24Y-2.16
X6.24Y-2.28
X6.24Y-2.61
X6.24Y-2.83
X6.24Y-2.93
X6.24Y-3.03
X6.24Y-3.13
X6.24Y-3.22
X6.245Y-2.035
X6.25Y-2.8
X6.25Y-3.5
X6.26Y-2.35
X6.26Y-3.32
X6.27Y-1.39
X6.27Y-2.61
X6.28Y-1.61
X6.28Y-1.8
X6.28Y-2.28
X6.28Y-2.43
X6.28Y-2.8
X6.28Y-3.5
X6.28Y-3.6
X6.285Y-2.035
X6.285Y-2.075
X6.29Y-3.34
X6.29Y-3.37
X6.3Y-1.42
X6.3Y-2.35
X6.3Y-2.61
X6.31Y-3.5
X6.32Y-1.61
X6.32Y-2.28
X6.32Y-3.38
X6.325Y-2.075
X6.33Y-1.45
X6.34Y-2.16
X6.34Y-2.35
X6.34Y-3.03
X6.34Y-3.13
X6.34Y-3.5
X6.35Y-3.38
X6.36Y-1.48
X6.36Y-1.61
X6.36Y-2.28
X6.365Y-2.075
X6.37Y-3.5
X6.38Y-2.35
X6.38Y-2.43
X6.38Y-3.38
X6.39Y-1.51
X6.4Y-1.61
X6.4Y-2.28
X6.4Y-3.5
X6.41Y-3.38
X6.42Y-1.54
X6.42Y-2.35
X6.43Y-3.5
X6.44Y-1.61
X6.44Y-2.16
X6.44Y-2.28
X6.44Y-3.03
X6.44Y-3.13
X6.44Y-3.38
X6.45Y-1.57
X6.46Y-2.35
X6.46Y-3.5
X6.47Y-3.38
X6.48Y-1.6
X6.48Y-1.64
X6.48Y-2.12
X6.48Y-2.16
X6.48Y-2.2
X6.48Y-2.24
X6.48Y-2.28
X6.48Y-2.39
X6.48Y-2.43
T2
X3.9258Y-1.7964
X3.9258Y-1.8515
X3.9534Y-1.7688
X3.9534Y-1.8239
X3.9534Y-1.8791
X3.9809Y-1.7964
X3.9809Y-1.8515
X4.0085Y-1.7688
X4.0085Y-1.8239
X4.0085Y-1.8791
X4.0361Y-1.7964
X4.0361Y-1.8515
T4
X3.49Y-2.825
X3.5884Y-2.825
X5.155Y-3.689
X5.155Y-3.7874
X5.36Y-2.125
X5.4584Y-2.125
T5
X3.39Y-3.49
X3.39Y-3.59
T6
X3.99Y-3.01
X3.99Y-3.27
X4.09Y-3.01
X4.09Y-3.27
X4.19Y-3.01
X4.19Y-3.27
X4.29Y-3.01
X4.29Y-3.27
X4.34Y-2.35
X4.34Y-2.45
X4.39Y-3.01
X4.39Y-3.27
X4.44Y-2.35
X4.44Y-2.45
X4.49Y-3.01
X4.49Y-3.27
X5.05Y-2.62
X5.05Y-2.72
X5.05Y-2.82
T7
X3.9016Y-3.8766
X4.0984Y-3.8766
T3
G00X3.148Y-2.9999
M15
G01X3.1252Y-2.9999
M16
G05
G00X3.148Y-3.3401
M15
G01X3.1252Y-3.3401
M16
G05
G00X3.3224Y-2.9999
M15
G01X3.2799Y-2.9999
M16
G05
G00X3.3224Y-3.3401
M15
G01X3.2799Y-3.3401
M16
G05
M30
